M48
;DRILL file {KiCad (5.0.1-3-g963ef8bb5)} date Sunday, November 04, 2018 at 12:53:15 AM
;FORMAT={2:4/ absolute / inch / keep zeros}
FMAT,2
INCH,TZ
T1C0.0080
T2C0.0472
T3C0.0630
T4C0.1063
%
G90
G05
M72
T1
X047500Y-033900
X048100Y-032800
X049000Y-036700
X049200Y-037100
X049700Y-034700
X049900Y-036700
X050200Y-032100
X050200Y-034600
X050400Y-034400
X050600Y-035200
X051100Y-035000
X051300Y-034600
X052300Y-036700
X052600Y-033000
X052700Y-028400
X052700Y-030100
X053500Y-034900
X053700Y-032200
X053700Y-033300
X054000Y-031900
X054000Y-033200
X054200Y-035600
X054500Y-034500
X055200Y-032600
X055200Y-033600
X055200Y-035800
X056800Y-032600
X056800Y-036400
T2
X059100Y-033000
X059100Y-034378
T3
X044388Y-029000
X045569Y-030850
X046750Y-029000
T4
X059300Y-028000
X042500Y-038500
X059300Y-038500
T0
M30
