G04 #@! TF.GenerationSoftware,KiCad,Pcbnew,(5.0.1-3-g963ef8bb5)*
G04 #@! TF.CreationDate,2018-11-04T15:31:46-05:00*
G04 #@! TF.ProjectId,Solar LiPo Charger,536F6C6172204C69506F204368617267,1A*
G04 #@! TF.SameCoordinates,Original*
G04 #@! TF.FileFunction,Paste,Top*
G04 #@! TF.FilePolarity,Positive*
%FSLAX46Y46*%
G04 Gerber Fmt 4.6, Leading zero omitted, Abs format (unit mm)*
G04 Created by KiCad (PCBNEW (5.0.1-3-g963ef8bb5)) date Sunday, November 04, 2018 at 03:31:46 PM*
%MOMM*%
%LPD*%
G01*
G04 APERTURE LIST*
%ADD10R,0.900000X0.800000*%
%ADD11R,0.800000X0.900000*%
%ADD12R,1.200000X1.200000*%
%ADD13R,1.800000X1.500000*%
%ADD14R,1.500000X1.800000*%
%ADD15R,1.955800X2.159000*%
%ADD16C,0.100000*%
%ADD17C,0.875000*%
%ADD18R,1.790700X7.493000*%
%ADD19R,0.800000X0.280000*%
%ADD20R,0.280000X0.800000*%
%ADD21R,2.140000X2.140000*%
G04 APERTURE END LIST*
D10*
G04 #@! TO.C,Q2*
X134130000Y-79756000D03*
X132130000Y-80706000D03*
X132130000Y-78806000D03*
G04 #@! TD*
G04 #@! TO.C,Q1*
X132064000Y-75377000D03*
X130064000Y-76327000D03*
X130064000Y-74427000D03*
G04 #@! TD*
D11*
G04 #@! TO.C,D4*
X136210000Y-80790000D03*
X138110000Y-80790000D03*
X137160000Y-78790000D03*
G04 #@! TD*
D12*
G04 #@! TO.C,C6*
X127762000Y-78672000D03*
X127762000Y-80772000D03*
G04 #@! TD*
D13*
G04 #@! TO.C,C13*
X141732000Y-94024000D03*
X141732000Y-90424000D03*
G04 #@! TD*
D14*
G04 #@! TO.C,C1*
X121898000Y-90170000D03*
X125498000Y-90170000D03*
G04 #@! TD*
D12*
G04 #@! TO.C,C2*
X125730000Y-82042000D03*
X123630000Y-82042000D03*
G04 #@! TD*
G04 #@! TO.C,C3*
X124460000Y-74168000D03*
X122360000Y-74168000D03*
G04 #@! TD*
D14*
G04 #@! TO.C,C4*
X121920000Y-76708000D03*
X125520000Y-76708000D03*
G04 #@! TD*
G04 #@! TO.C,C5*
X125520000Y-79248000D03*
X121920000Y-79248000D03*
G04 #@! TD*
D12*
G04 #@! TO.C,C7*
X131894000Y-89662000D03*
X129794000Y-89662000D03*
G04 #@! TD*
G04 #@! TO.C,C8*
X147320000Y-90864000D03*
X147320000Y-92964000D03*
G04 #@! TD*
G04 #@! TO.C,C9*
X137668000Y-85598000D03*
X137668000Y-87698000D03*
G04 #@! TD*
G04 #@! TO.C,C10*
X140208000Y-85598000D03*
X140208000Y-87698000D03*
G04 #@! TD*
G04 #@! TO.C,C11*
X138244000Y-82804000D03*
X136144000Y-82804000D03*
G04 #@! TD*
D13*
G04 #@! TO.C,C12*
X144780000Y-90424000D03*
X144780000Y-94024000D03*
G04 #@! TD*
D12*
G04 #@! TO.C,C14*
X134112000Y-93413000D03*
X134112000Y-91313000D03*
G04 #@! TD*
D15*
G04 #@! TO.C,D1*
X118808500Y-83312000D03*
X114871500Y-83312000D03*
G04 #@! TD*
D16*
G04 #@! TO.C,D2*
G36*
X122160191Y-92109053D02*
X122181426Y-92112203D01*
X122202250Y-92117419D01*
X122222462Y-92124651D01*
X122241868Y-92133830D01*
X122260281Y-92144866D01*
X122277524Y-92157654D01*
X122293430Y-92172070D01*
X122307846Y-92187976D01*
X122320634Y-92205219D01*
X122331670Y-92223632D01*
X122340849Y-92243038D01*
X122348081Y-92263250D01*
X122353297Y-92284074D01*
X122356447Y-92305309D01*
X122357500Y-92326750D01*
X122357500Y-92839250D01*
X122356447Y-92860691D01*
X122353297Y-92881926D01*
X122348081Y-92902750D01*
X122340849Y-92922962D01*
X122331670Y-92942368D01*
X122320634Y-92960781D01*
X122307846Y-92978024D01*
X122293430Y-92993930D01*
X122277524Y-93008346D01*
X122260281Y-93021134D01*
X122241868Y-93032170D01*
X122222462Y-93041349D01*
X122202250Y-93048581D01*
X122181426Y-93053797D01*
X122160191Y-93056947D01*
X122138750Y-93058000D01*
X121701250Y-93058000D01*
X121679809Y-93056947D01*
X121658574Y-93053797D01*
X121637750Y-93048581D01*
X121617538Y-93041349D01*
X121598132Y-93032170D01*
X121579719Y-93021134D01*
X121562476Y-93008346D01*
X121546570Y-92993930D01*
X121532154Y-92978024D01*
X121519366Y-92960781D01*
X121508330Y-92942368D01*
X121499151Y-92922962D01*
X121491919Y-92902750D01*
X121486703Y-92881926D01*
X121483553Y-92860691D01*
X121482500Y-92839250D01*
X121482500Y-92326750D01*
X121483553Y-92305309D01*
X121486703Y-92284074D01*
X121491919Y-92263250D01*
X121499151Y-92243038D01*
X121508330Y-92223632D01*
X121519366Y-92205219D01*
X121532154Y-92187976D01*
X121546570Y-92172070D01*
X121562476Y-92157654D01*
X121579719Y-92144866D01*
X121598132Y-92133830D01*
X121617538Y-92124651D01*
X121637750Y-92117419D01*
X121658574Y-92112203D01*
X121679809Y-92109053D01*
X121701250Y-92108000D01*
X122138750Y-92108000D01*
X122160191Y-92109053D01*
X122160191Y-92109053D01*
G37*
D17*
X121920000Y-92583000D03*
D16*
G36*
X123735191Y-92109053D02*
X123756426Y-92112203D01*
X123777250Y-92117419D01*
X123797462Y-92124651D01*
X123816868Y-92133830D01*
X123835281Y-92144866D01*
X123852524Y-92157654D01*
X123868430Y-92172070D01*
X123882846Y-92187976D01*
X123895634Y-92205219D01*
X123906670Y-92223632D01*
X123915849Y-92243038D01*
X123923081Y-92263250D01*
X123928297Y-92284074D01*
X123931447Y-92305309D01*
X123932500Y-92326750D01*
X123932500Y-92839250D01*
X123931447Y-92860691D01*
X123928297Y-92881926D01*
X123923081Y-92902750D01*
X123915849Y-92922962D01*
X123906670Y-92942368D01*
X123895634Y-92960781D01*
X123882846Y-92978024D01*
X123868430Y-92993930D01*
X123852524Y-93008346D01*
X123835281Y-93021134D01*
X123816868Y-93032170D01*
X123797462Y-93041349D01*
X123777250Y-93048581D01*
X123756426Y-93053797D01*
X123735191Y-93056947D01*
X123713750Y-93058000D01*
X123276250Y-93058000D01*
X123254809Y-93056947D01*
X123233574Y-93053797D01*
X123212750Y-93048581D01*
X123192538Y-93041349D01*
X123173132Y-93032170D01*
X123154719Y-93021134D01*
X123137476Y-93008346D01*
X123121570Y-92993930D01*
X123107154Y-92978024D01*
X123094366Y-92960781D01*
X123083330Y-92942368D01*
X123074151Y-92922962D01*
X123066919Y-92902750D01*
X123061703Y-92881926D01*
X123058553Y-92860691D01*
X123057500Y-92839250D01*
X123057500Y-92326750D01*
X123058553Y-92305309D01*
X123061703Y-92284074D01*
X123066919Y-92263250D01*
X123074151Y-92243038D01*
X123083330Y-92223632D01*
X123094366Y-92205219D01*
X123107154Y-92187976D01*
X123121570Y-92172070D01*
X123137476Y-92157654D01*
X123154719Y-92144866D01*
X123173132Y-92133830D01*
X123192538Y-92124651D01*
X123212750Y-92117419D01*
X123233574Y-92112203D01*
X123254809Y-92109053D01*
X123276250Y-92108000D01*
X123713750Y-92108000D01*
X123735191Y-92109053D01*
X123735191Y-92109053D01*
G37*
D17*
X123495000Y-92583000D03*
G04 #@! TD*
D16*
G04 #@! TO.C,D3*
G36*
X123735191Y-94649053D02*
X123756426Y-94652203D01*
X123777250Y-94657419D01*
X123797462Y-94664651D01*
X123816868Y-94673830D01*
X123835281Y-94684866D01*
X123852524Y-94697654D01*
X123868430Y-94712070D01*
X123882846Y-94727976D01*
X123895634Y-94745219D01*
X123906670Y-94763632D01*
X123915849Y-94783038D01*
X123923081Y-94803250D01*
X123928297Y-94824074D01*
X123931447Y-94845309D01*
X123932500Y-94866750D01*
X123932500Y-95379250D01*
X123931447Y-95400691D01*
X123928297Y-95421926D01*
X123923081Y-95442750D01*
X123915849Y-95462962D01*
X123906670Y-95482368D01*
X123895634Y-95500781D01*
X123882846Y-95518024D01*
X123868430Y-95533930D01*
X123852524Y-95548346D01*
X123835281Y-95561134D01*
X123816868Y-95572170D01*
X123797462Y-95581349D01*
X123777250Y-95588581D01*
X123756426Y-95593797D01*
X123735191Y-95596947D01*
X123713750Y-95598000D01*
X123276250Y-95598000D01*
X123254809Y-95596947D01*
X123233574Y-95593797D01*
X123212750Y-95588581D01*
X123192538Y-95581349D01*
X123173132Y-95572170D01*
X123154719Y-95561134D01*
X123137476Y-95548346D01*
X123121570Y-95533930D01*
X123107154Y-95518024D01*
X123094366Y-95500781D01*
X123083330Y-95482368D01*
X123074151Y-95462962D01*
X123066919Y-95442750D01*
X123061703Y-95421926D01*
X123058553Y-95400691D01*
X123057500Y-95379250D01*
X123057500Y-94866750D01*
X123058553Y-94845309D01*
X123061703Y-94824074D01*
X123066919Y-94803250D01*
X123074151Y-94783038D01*
X123083330Y-94763632D01*
X123094366Y-94745219D01*
X123107154Y-94727976D01*
X123121570Y-94712070D01*
X123137476Y-94697654D01*
X123154719Y-94684866D01*
X123173132Y-94673830D01*
X123192538Y-94664651D01*
X123212750Y-94657419D01*
X123233574Y-94652203D01*
X123254809Y-94649053D01*
X123276250Y-94648000D01*
X123713750Y-94648000D01*
X123735191Y-94649053D01*
X123735191Y-94649053D01*
G37*
D17*
X123495000Y-95123000D03*
D16*
G36*
X122160191Y-94649053D02*
X122181426Y-94652203D01*
X122202250Y-94657419D01*
X122222462Y-94664651D01*
X122241868Y-94673830D01*
X122260281Y-94684866D01*
X122277524Y-94697654D01*
X122293430Y-94712070D01*
X122307846Y-94727976D01*
X122320634Y-94745219D01*
X122331670Y-94763632D01*
X122340849Y-94783038D01*
X122348081Y-94803250D01*
X122353297Y-94824074D01*
X122356447Y-94845309D01*
X122357500Y-94866750D01*
X122357500Y-95379250D01*
X122356447Y-95400691D01*
X122353297Y-95421926D01*
X122348081Y-95442750D01*
X122340849Y-95462962D01*
X122331670Y-95482368D01*
X122320634Y-95500781D01*
X122307846Y-95518024D01*
X122293430Y-95533930D01*
X122277524Y-95548346D01*
X122260281Y-95561134D01*
X122241868Y-95572170D01*
X122222462Y-95581349D01*
X122202250Y-95588581D01*
X122181426Y-95593797D01*
X122160191Y-95596947D01*
X122138750Y-95598000D01*
X121701250Y-95598000D01*
X121679809Y-95596947D01*
X121658574Y-95593797D01*
X121637750Y-95588581D01*
X121617538Y-95581349D01*
X121598132Y-95572170D01*
X121579719Y-95561134D01*
X121562476Y-95548346D01*
X121546570Y-95533930D01*
X121532154Y-95518024D01*
X121519366Y-95500781D01*
X121508330Y-95482368D01*
X121499151Y-95462962D01*
X121491919Y-95442750D01*
X121486703Y-95421926D01*
X121483553Y-95400691D01*
X121482500Y-95379250D01*
X121482500Y-94866750D01*
X121483553Y-94845309D01*
X121486703Y-94824074D01*
X121491919Y-94803250D01*
X121499151Y-94783038D01*
X121508330Y-94763632D01*
X121519366Y-94745219D01*
X121532154Y-94727976D01*
X121546570Y-94712070D01*
X121562476Y-94697654D01*
X121579719Y-94684866D01*
X121598132Y-94673830D01*
X121617538Y-94664651D01*
X121637750Y-94657419D01*
X121658574Y-94652203D01*
X121679809Y-94649053D01*
X121701250Y-94648000D01*
X122138750Y-94648000D01*
X122160191Y-94649053D01*
X122160191Y-94649053D01*
G37*
D17*
X121920000Y-95123000D03*
G04 #@! TD*
D18*
G04 #@! TO.C,L1*
X134861300Y-73152000D03*
X140462000Y-73152000D03*
G04 #@! TD*
D12*
G04 #@! TO.C,R1*
X119380000Y-89916000D03*
X117280000Y-89916000D03*
G04 #@! TD*
G04 #@! TO.C,R2*
X119414000Y-87376000D03*
X117314000Y-87376000D03*
G04 #@! TD*
G04 #@! TO.C,R3*
X122106000Y-87376000D03*
X124206000Y-87376000D03*
G04 #@! TD*
G04 #@! TO.C,R4*
X125730000Y-84328000D03*
X123630000Y-84328000D03*
G04 #@! TD*
G04 #@! TO.C,R5*
X119380000Y-92456000D03*
X117280000Y-92456000D03*
G04 #@! TD*
G04 #@! TO.C,R6*
X117314000Y-94996000D03*
X119414000Y-94996000D03*
G04 #@! TD*
G04 #@! TO.C,R7*
X130048000Y-80772000D03*
X130048000Y-78672000D03*
G04 #@! TD*
G04 #@! TO.C,R8*
X130810000Y-91948000D03*
X128710000Y-91948000D03*
G04 #@! TD*
G04 #@! TO.C,R9*
X130810000Y-93980000D03*
X128710000Y-93980000D03*
G04 #@! TD*
G04 #@! TO.C,R10*
X128710000Y-96012000D03*
X130810000Y-96012000D03*
G04 #@! TD*
D13*
G04 #@! TO.C,R11*
X142494000Y-80010000D03*
X142494000Y-83610000D03*
G04 #@! TD*
D12*
G04 #@! TO.C,R12*
X136525000Y-91313000D03*
X136525000Y-93413000D03*
G04 #@! TD*
G04 #@! TO.C,R13*
X138938000Y-91313000D03*
X138938000Y-93413000D03*
G04 #@! TD*
D19*
G04 #@! TO.C,U1*
X128805998Y-84339999D03*
X128805998Y-84840000D03*
X128805998Y-85340000D03*
X128805998Y-85840001D03*
D20*
X129805811Y-86840002D03*
X130305937Y-86840002D03*
X130806063Y-86840002D03*
X131306189Y-86840002D03*
D19*
X132306002Y-85840001D03*
X132306002Y-85340000D03*
X132306002Y-84840000D03*
X132306002Y-84339999D03*
D20*
X131306189Y-83339998D03*
X130806063Y-83339998D03*
X130305937Y-83339998D03*
X129805811Y-83339998D03*
D21*
X130556000Y-85090000D03*
G04 #@! TD*
M02*
