G04 #@! TF.GenerationSoftware,KiCad,Pcbnew,(5.0.1-3-g963ef8bb5)*
G04 #@! TF.CreationDate,2018-11-04T15:03:24-05:00*
G04 #@! TF.ProjectId,Solar LiPo Charger,536F6C6172204C69506F204368617267,1A*
G04 #@! TF.SameCoordinates,Original*
G04 #@! TF.FileFunction,Copper,L1,Top,Signal*
G04 #@! TF.FilePolarity,Positive*
%FSLAX46Y46*%
G04 Gerber Fmt 4.6, Leading zero omitted, Abs format (unit mm)*
G04 Created by KiCad (PCBNEW (5.0.1-3-g963ef8bb5)) date Sunday, November 04, 2018 at 03:03:24 PM*
%MOMM*%
%LPD*%
G01*
G04 APERTURE LIST*
G04 #@! TA.AperFunction,SMDPad,CuDef*
%ADD10R,0.900000X0.800000*%
G04 #@! TD*
G04 #@! TA.AperFunction,SMDPad,CuDef*
%ADD11R,0.800000X0.900000*%
G04 #@! TD*
G04 #@! TA.AperFunction,SMDPad,CuDef*
%ADD12R,1.200000X1.200000*%
G04 #@! TD*
G04 #@! TA.AperFunction,SMDPad,CuDef*
%ADD13R,1.800000X1.500000*%
G04 #@! TD*
G04 #@! TA.AperFunction,SMDPad,CuDef*
%ADD14R,1.500000X1.800000*%
G04 #@! TD*
G04 #@! TA.AperFunction,SMDPad,CuDef*
%ADD15R,1.955800X2.159000*%
G04 #@! TD*
G04 #@! TA.AperFunction,Conductor*
%ADD16C,0.100000*%
G04 #@! TD*
G04 #@! TA.AperFunction,SMDPad,CuDef*
%ADD17C,0.875000*%
G04 #@! TD*
G04 #@! TA.AperFunction,ComponentPad*
%ADD18R,2.600000X2.600000*%
G04 #@! TD*
G04 #@! TA.AperFunction,ComponentPad*
%ADD19C,2.600000*%
G04 #@! TD*
G04 #@! TA.AperFunction,ComponentPad*
%ADD20R,2.400000X2.400000*%
G04 #@! TD*
G04 #@! TA.AperFunction,ComponentPad*
%ADD21C,2.400000*%
G04 #@! TD*
G04 #@! TA.AperFunction,SMDPad,CuDef*
%ADD22R,1.790700X7.493000*%
G04 #@! TD*
G04 #@! TA.AperFunction,SMDPad,CuDef*
%ADD23R,0.800000X0.280000*%
G04 #@! TD*
G04 #@! TA.AperFunction,SMDPad,CuDef*
%ADD24R,0.280000X0.800000*%
G04 #@! TD*
G04 #@! TA.AperFunction,SMDPad,CuDef*
%ADD25R,2.140000X2.140000*%
G04 #@! TD*
G04 #@! TA.AperFunction,ComponentPad*
%ADD26C,4.400000*%
G04 #@! TD*
G04 #@! TA.AperFunction,ViaPad*
%ADD27C,0.457200*%
G04 #@! TD*
G04 #@! TA.AperFunction,Conductor*
%ADD28C,0.508000*%
G04 #@! TD*
G04 #@! TA.AperFunction,Conductor*
%ADD29C,0.254000*%
G04 #@! TD*
G04 #@! TA.AperFunction,Conductor*
%ADD30C,1.270000*%
G04 #@! TD*
G04 #@! TA.AperFunction,Conductor*
%ADD31C,0.812800*%
G04 #@! TD*
G04 APERTURE END LIST*
D10*
G04 #@! TO.P,Q2,3*
G04 #@! TO.N,GND*
X134130000Y-79756000D03*
G04 #@! TO.P,Q2,2*
G04 #@! TO.N,Net-(Q2-Pad2)*
X132130000Y-80706000D03*
G04 #@! TO.P,Q2,1*
G04 #@! TO.N,BTST*
X132130000Y-78806000D03*
G04 #@! TD*
G04 #@! TO.P,Q1,3*
G04 #@! TO.N,BTST*
X132064000Y-75377000D03*
G04 #@! TO.P,Q1,2*
G04 #@! TO.N,Net-(Q1-Pad2)*
X130064000Y-76327000D03*
G04 #@! TO.P,Q1,1*
G04 #@! TO.N,Net-(C3-Pad1)*
X130064000Y-74427000D03*
G04 #@! TD*
D11*
G04 #@! TO.P,D4,2*
G04 #@! TO.N,Net-(C11-Pad2)*
X136210000Y-80790000D03*
X138110000Y-80790000D03*
G04 #@! TO.P,D4,1*
G04 #@! TO.N,BTST*
X137160000Y-78790000D03*
G04 #@! TD*
D12*
G04 #@! TO.P,C6,1*
G04 #@! TO.N,BTST*
X127762000Y-78672000D03*
G04 #@! TO.P,C6,2*
G04 #@! TO.N,Net-(C6-Pad2)*
X127762000Y-80772000D03*
G04 #@! TD*
D13*
G04 #@! TO.P,C13,2*
G04 #@! TO.N,GND*
X141732000Y-94024000D03*
G04 #@! TO.P,C13,1*
G04 #@! TO.N,SRN*
X141732000Y-90424000D03*
G04 #@! TD*
D14*
G04 #@! TO.P,C1,1*
G04 #@! TO.N,Net-(C1-Pad1)*
X121898000Y-90170000D03*
G04 #@! TO.P,C1,2*
G04 #@! TO.N,GND*
X125498000Y-90170000D03*
G04 #@! TD*
D12*
G04 #@! TO.P,C2,1*
G04 #@! TO.N,Net-(C2-Pad1)*
X125730000Y-82042000D03*
G04 #@! TO.P,C2,2*
G04 #@! TO.N,GND*
X123630000Y-82042000D03*
G04 #@! TD*
G04 #@! TO.P,C3,2*
G04 #@! TO.N,GND*
X124460000Y-74168000D03*
G04 #@! TO.P,C3,1*
G04 #@! TO.N,Net-(C3-Pad1)*
X122360000Y-74168000D03*
G04 #@! TD*
D14*
G04 #@! TO.P,C4,1*
G04 #@! TO.N,Net-(C3-Pad1)*
X121920000Y-76708000D03*
G04 #@! TO.P,C4,2*
G04 #@! TO.N,GND*
X125520000Y-76708000D03*
G04 #@! TD*
G04 #@! TO.P,C5,2*
G04 #@! TO.N,GND*
X125520000Y-79248000D03*
G04 #@! TO.P,C5,1*
G04 #@! TO.N,Net-(C3-Pad1)*
X121920000Y-79248000D03*
G04 #@! TD*
D12*
G04 #@! TO.P,C7,2*
G04 #@! TO.N,GND*
X131894000Y-89662000D03*
G04 #@! TO.P,C7,1*
G04 #@! TO.N,Net-(C7-Pad1)*
X129794000Y-89662000D03*
G04 #@! TD*
G04 #@! TO.P,C8,2*
G04 #@! TO.N,SRN*
X147320000Y-90864000D03*
G04 #@! TO.P,C8,1*
G04 #@! TO.N,GND*
X147320000Y-92964000D03*
G04 #@! TD*
G04 #@! TO.P,C9,1*
G04 #@! TO.N,SRP*
X137668000Y-85598000D03*
G04 #@! TO.P,C9,2*
G04 #@! TO.N,SRN*
X137668000Y-87698000D03*
G04 #@! TD*
G04 #@! TO.P,C10,2*
G04 #@! TO.N,SRP*
X140208000Y-85598000D03*
G04 #@! TO.P,C10,1*
G04 #@! TO.N,GND*
X140208000Y-87698000D03*
G04 #@! TD*
G04 #@! TO.P,C11,1*
G04 #@! TO.N,GND*
X138244000Y-82804000D03*
G04 #@! TO.P,C11,2*
G04 #@! TO.N,Net-(C11-Pad2)*
X136144000Y-82804000D03*
G04 #@! TD*
D13*
G04 #@! TO.P,C12,1*
G04 #@! TO.N,SRN*
X144780000Y-90424000D03*
G04 #@! TO.P,C12,2*
G04 #@! TO.N,GND*
X144780000Y-94024000D03*
G04 #@! TD*
D12*
G04 #@! TO.P,C14,2*
G04 #@! TO.N,VFB*
X134112000Y-93413000D03*
G04 #@! TO.P,C14,1*
G04 #@! TO.N,SRN*
X134112000Y-91313000D03*
G04 #@! TD*
D15*
G04 #@! TO.P,D1,1*
G04 #@! TO.N,Net-(C3-Pad1)*
X118808500Y-83312000D03*
G04 #@! TO.P,D1,2*
G04 #@! TO.N,Vsolar*
X114871500Y-83312000D03*
G04 #@! TD*
D16*
G04 #@! TO.N,Net-(D2-Pad2)*
G04 #@! TO.C,D2*
G36*
X122160191Y-92109053D02*
X122181426Y-92112203D01*
X122202250Y-92117419D01*
X122222462Y-92124651D01*
X122241868Y-92133830D01*
X122260281Y-92144866D01*
X122277524Y-92157654D01*
X122293430Y-92172070D01*
X122307846Y-92187976D01*
X122320634Y-92205219D01*
X122331670Y-92223632D01*
X122340849Y-92243038D01*
X122348081Y-92263250D01*
X122353297Y-92284074D01*
X122356447Y-92305309D01*
X122357500Y-92326750D01*
X122357500Y-92839250D01*
X122356447Y-92860691D01*
X122353297Y-92881926D01*
X122348081Y-92902750D01*
X122340849Y-92922962D01*
X122331670Y-92942368D01*
X122320634Y-92960781D01*
X122307846Y-92978024D01*
X122293430Y-92993930D01*
X122277524Y-93008346D01*
X122260281Y-93021134D01*
X122241868Y-93032170D01*
X122222462Y-93041349D01*
X122202250Y-93048581D01*
X122181426Y-93053797D01*
X122160191Y-93056947D01*
X122138750Y-93058000D01*
X121701250Y-93058000D01*
X121679809Y-93056947D01*
X121658574Y-93053797D01*
X121637750Y-93048581D01*
X121617538Y-93041349D01*
X121598132Y-93032170D01*
X121579719Y-93021134D01*
X121562476Y-93008346D01*
X121546570Y-92993930D01*
X121532154Y-92978024D01*
X121519366Y-92960781D01*
X121508330Y-92942368D01*
X121499151Y-92922962D01*
X121491919Y-92902750D01*
X121486703Y-92881926D01*
X121483553Y-92860691D01*
X121482500Y-92839250D01*
X121482500Y-92326750D01*
X121483553Y-92305309D01*
X121486703Y-92284074D01*
X121491919Y-92263250D01*
X121499151Y-92243038D01*
X121508330Y-92223632D01*
X121519366Y-92205219D01*
X121532154Y-92187976D01*
X121546570Y-92172070D01*
X121562476Y-92157654D01*
X121579719Y-92144866D01*
X121598132Y-92133830D01*
X121617538Y-92124651D01*
X121637750Y-92117419D01*
X121658574Y-92112203D01*
X121679809Y-92109053D01*
X121701250Y-92108000D01*
X122138750Y-92108000D01*
X122160191Y-92109053D01*
X122160191Y-92109053D01*
G37*
D17*
G04 #@! TD*
G04 #@! TO.P,D2,2*
G04 #@! TO.N,Net-(D2-Pad2)*
X121920000Y-92583000D03*
D16*
G04 #@! TO.N,Net-(D2-Pad1)*
G04 #@! TO.C,D2*
G36*
X123735191Y-92109053D02*
X123756426Y-92112203D01*
X123777250Y-92117419D01*
X123797462Y-92124651D01*
X123816868Y-92133830D01*
X123835281Y-92144866D01*
X123852524Y-92157654D01*
X123868430Y-92172070D01*
X123882846Y-92187976D01*
X123895634Y-92205219D01*
X123906670Y-92223632D01*
X123915849Y-92243038D01*
X123923081Y-92263250D01*
X123928297Y-92284074D01*
X123931447Y-92305309D01*
X123932500Y-92326750D01*
X123932500Y-92839250D01*
X123931447Y-92860691D01*
X123928297Y-92881926D01*
X123923081Y-92902750D01*
X123915849Y-92922962D01*
X123906670Y-92942368D01*
X123895634Y-92960781D01*
X123882846Y-92978024D01*
X123868430Y-92993930D01*
X123852524Y-93008346D01*
X123835281Y-93021134D01*
X123816868Y-93032170D01*
X123797462Y-93041349D01*
X123777250Y-93048581D01*
X123756426Y-93053797D01*
X123735191Y-93056947D01*
X123713750Y-93058000D01*
X123276250Y-93058000D01*
X123254809Y-93056947D01*
X123233574Y-93053797D01*
X123212750Y-93048581D01*
X123192538Y-93041349D01*
X123173132Y-93032170D01*
X123154719Y-93021134D01*
X123137476Y-93008346D01*
X123121570Y-92993930D01*
X123107154Y-92978024D01*
X123094366Y-92960781D01*
X123083330Y-92942368D01*
X123074151Y-92922962D01*
X123066919Y-92902750D01*
X123061703Y-92881926D01*
X123058553Y-92860691D01*
X123057500Y-92839250D01*
X123057500Y-92326750D01*
X123058553Y-92305309D01*
X123061703Y-92284074D01*
X123066919Y-92263250D01*
X123074151Y-92243038D01*
X123083330Y-92223632D01*
X123094366Y-92205219D01*
X123107154Y-92187976D01*
X123121570Y-92172070D01*
X123137476Y-92157654D01*
X123154719Y-92144866D01*
X123173132Y-92133830D01*
X123192538Y-92124651D01*
X123212750Y-92117419D01*
X123233574Y-92112203D01*
X123254809Y-92109053D01*
X123276250Y-92108000D01*
X123713750Y-92108000D01*
X123735191Y-92109053D01*
X123735191Y-92109053D01*
G37*
D17*
G04 #@! TD*
G04 #@! TO.P,D2,1*
G04 #@! TO.N,Net-(D2-Pad1)*
X123495000Y-92583000D03*
D16*
G04 #@! TO.N,Net-(D3-Pad1)*
G04 #@! TO.C,D3*
G36*
X123735191Y-94649053D02*
X123756426Y-94652203D01*
X123777250Y-94657419D01*
X123797462Y-94664651D01*
X123816868Y-94673830D01*
X123835281Y-94684866D01*
X123852524Y-94697654D01*
X123868430Y-94712070D01*
X123882846Y-94727976D01*
X123895634Y-94745219D01*
X123906670Y-94763632D01*
X123915849Y-94783038D01*
X123923081Y-94803250D01*
X123928297Y-94824074D01*
X123931447Y-94845309D01*
X123932500Y-94866750D01*
X123932500Y-95379250D01*
X123931447Y-95400691D01*
X123928297Y-95421926D01*
X123923081Y-95442750D01*
X123915849Y-95462962D01*
X123906670Y-95482368D01*
X123895634Y-95500781D01*
X123882846Y-95518024D01*
X123868430Y-95533930D01*
X123852524Y-95548346D01*
X123835281Y-95561134D01*
X123816868Y-95572170D01*
X123797462Y-95581349D01*
X123777250Y-95588581D01*
X123756426Y-95593797D01*
X123735191Y-95596947D01*
X123713750Y-95598000D01*
X123276250Y-95598000D01*
X123254809Y-95596947D01*
X123233574Y-95593797D01*
X123212750Y-95588581D01*
X123192538Y-95581349D01*
X123173132Y-95572170D01*
X123154719Y-95561134D01*
X123137476Y-95548346D01*
X123121570Y-95533930D01*
X123107154Y-95518024D01*
X123094366Y-95500781D01*
X123083330Y-95482368D01*
X123074151Y-95462962D01*
X123066919Y-95442750D01*
X123061703Y-95421926D01*
X123058553Y-95400691D01*
X123057500Y-95379250D01*
X123057500Y-94866750D01*
X123058553Y-94845309D01*
X123061703Y-94824074D01*
X123066919Y-94803250D01*
X123074151Y-94783038D01*
X123083330Y-94763632D01*
X123094366Y-94745219D01*
X123107154Y-94727976D01*
X123121570Y-94712070D01*
X123137476Y-94697654D01*
X123154719Y-94684866D01*
X123173132Y-94673830D01*
X123192538Y-94664651D01*
X123212750Y-94657419D01*
X123233574Y-94652203D01*
X123254809Y-94649053D01*
X123276250Y-94648000D01*
X123713750Y-94648000D01*
X123735191Y-94649053D01*
X123735191Y-94649053D01*
G37*
D17*
G04 #@! TD*
G04 #@! TO.P,D3,1*
G04 #@! TO.N,Net-(D3-Pad1)*
X123495000Y-95123000D03*
D16*
G04 #@! TO.N,Net-(D3-Pad2)*
G04 #@! TO.C,D3*
G36*
X122160191Y-94649053D02*
X122181426Y-94652203D01*
X122202250Y-94657419D01*
X122222462Y-94664651D01*
X122241868Y-94673830D01*
X122260281Y-94684866D01*
X122277524Y-94697654D01*
X122293430Y-94712070D01*
X122307846Y-94727976D01*
X122320634Y-94745219D01*
X122331670Y-94763632D01*
X122340849Y-94783038D01*
X122348081Y-94803250D01*
X122353297Y-94824074D01*
X122356447Y-94845309D01*
X122357500Y-94866750D01*
X122357500Y-95379250D01*
X122356447Y-95400691D01*
X122353297Y-95421926D01*
X122348081Y-95442750D01*
X122340849Y-95462962D01*
X122331670Y-95482368D01*
X122320634Y-95500781D01*
X122307846Y-95518024D01*
X122293430Y-95533930D01*
X122277524Y-95548346D01*
X122260281Y-95561134D01*
X122241868Y-95572170D01*
X122222462Y-95581349D01*
X122202250Y-95588581D01*
X122181426Y-95593797D01*
X122160191Y-95596947D01*
X122138750Y-95598000D01*
X121701250Y-95598000D01*
X121679809Y-95596947D01*
X121658574Y-95593797D01*
X121637750Y-95588581D01*
X121617538Y-95581349D01*
X121598132Y-95572170D01*
X121579719Y-95561134D01*
X121562476Y-95548346D01*
X121546570Y-95533930D01*
X121532154Y-95518024D01*
X121519366Y-95500781D01*
X121508330Y-95482368D01*
X121499151Y-95462962D01*
X121491919Y-95442750D01*
X121486703Y-95421926D01*
X121483553Y-95400691D01*
X121482500Y-95379250D01*
X121482500Y-94866750D01*
X121483553Y-94845309D01*
X121486703Y-94824074D01*
X121491919Y-94803250D01*
X121499151Y-94783038D01*
X121508330Y-94763632D01*
X121519366Y-94745219D01*
X121532154Y-94727976D01*
X121546570Y-94712070D01*
X121562476Y-94697654D01*
X121579719Y-94684866D01*
X121598132Y-94673830D01*
X121617538Y-94664651D01*
X121637750Y-94657419D01*
X121658574Y-94652203D01*
X121679809Y-94649053D01*
X121701250Y-94648000D01*
X122138750Y-94648000D01*
X122160191Y-94649053D01*
X122160191Y-94649053D01*
G37*
D17*
G04 #@! TD*
G04 #@! TO.P,D3,2*
G04 #@! TO.N,Net-(D3-Pad2)*
X121920000Y-95123000D03*
D18*
G04 #@! TO.P,J1,1*
G04 #@! TO.N,Vsolar*
X118745000Y-74168000D03*
D19*
G04 #@! TO.P,J1,2*
G04 #@! TO.N,GND*
X112745000Y-74168000D03*
G04 #@! TO.P,J1,3*
G04 #@! TO.N,N/C*
X115745000Y-78868000D03*
G04 #@! TD*
D20*
G04 #@! TO.P,J2,1*
G04 #@! TO.N,SRN*
X149733000Y-81534000D03*
D21*
G04 #@! TO.P,J2,2*
G04 #@! TO.N,GND*
X149733000Y-85034000D03*
G04 #@! TD*
D22*
G04 #@! TO.P,L1,1*
G04 #@! TO.N,BTST*
X134861300Y-73152000D03*
G04 #@! TO.P,L1,2*
G04 #@! TO.N,SRP*
X140462000Y-73152000D03*
G04 #@! TD*
D12*
G04 #@! TO.P,R1,2*
G04 #@! TO.N,Net-(C1-Pad1)*
X119380000Y-89916000D03*
G04 #@! TO.P,R1,1*
G04 #@! TO.N,Vsolar*
X117280000Y-89916000D03*
G04 #@! TD*
G04 #@! TO.P,R2,2*
G04 #@! TO.N,MPPSET*
X119414000Y-87376000D03*
G04 #@! TO.P,R2,1*
G04 #@! TO.N,Vsolar*
X117314000Y-87376000D03*
G04 #@! TD*
G04 #@! TO.P,R3,1*
G04 #@! TO.N,MPPSET*
X122106000Y-87376000D03*
G04 #@! TO.P,R3,2*
G04 #@! TO.N,GND*
X124206000Y-87376000D03*
G04 #@! TD*
G04 #@! TO.P,R4,2*
G04 #@! TO.N,Net-(C2-Pad1)*
X125730000Y-84328000D03*
G04 #@! TO.P,R4,1*
G04 #@! TO.N,Net-(C3-Pad1)*
X123630000Y-84328000D03*
G04 #@! TD*
G04 #@! TO.P,R5,1*
G04 #@! TO.N,Net-(D2-Pad2)*
X119380000Y-92456000D03*
G04 #@! TO.P,R5,2*
G04 #@! TO.N,Vsolar*
X117280000Y-92456000D03*
G04 #@! TD*
G04 #@! TO.P,R6,2*
G04 #@! TO.N,Vsolar*
X117314000Y-94996000D03*
G04 #@! TO.P,R6,1*
G04 #@! TO.N,Net-(D3-Pad2)*
X119414000Y-94996000D03*
G04 #@! TD*
G04 #@! TO.P,R7,2*
G04 #@! TO.N,Net-(R7-Pad2)*
X130048000Y-80772000D03*
G04 #@! TO.P,R7,1*
G04 #@! TO.N,Net-(Q1-Pad2)*
X130048000Y-78672000D03*
G04 #@! TD*
G04 #@! TO.P,R8,1*
G04 #@! TO.N,Net-(R8-Pad1)*
X130810000Y-91948000D03*
G04 #@! TO.P,R8,2*
G04 #@! TO.N,TS*
X128710000Y-91948000D03*
G04 #@! TD*
G04 #@! TO.P,R9,2*
G04 #@! TO.N,GND*
X130810000Y-93980000D03*
G04 #@! TO.P,R9,1*
G04 #@! TO.N,TS*
X128710000Y-93980000D03*
G04 #@! TD*
G04 #@! TO.P,R10,1*
G04 #@! TO.N,TS*
X128710000Y-96012000D03*
G04 #@! TO.P,R10,2*
G04 #@! TO.N,GND*
X130810000Y-96012000D03*
G04 #@! TD*
D13*
G04 #@! TO.P,R11,2*
G04 #@! TO.N,SRP*
X142494000Y-80010000D03*
G04 #@! TO.P,R11,1*
G04 #@! TO.N,SRN*
X142494000Y-83610000D03*
G04 #@! TD*
D12*
G04 #@! TO.P,R12,1*
G04 #@! TO.N,SRN*
X136525000Y-91313000D03*
G04 #@! TO.P,R12,2*
G04 #@! TO.N,VFB*
X136525000Y-93413000D03*
G04 #@! TD*
G04 #@! TO.P,R13,1*
G04 #@! TO.N,VFB*
X138938000Y-91313000D03*
G04 #@! TO.P,R13,2*
G04 #@! TO.N,GND*
X138938000Y-93413000D03*
G04 #@! TD*
D23*
G04 #@! TO.P,U1,1*
G04 #@! TO.N,Net-(C2-Pad1)*
X128805998Y-84339999D03*
G04 #@! TO.P,U1,2*
G04 #@! TO.N,MPPSET*
X128805998Y-84840000D03*
G04 #@! TO.P,U1,3*
G04 #@! TO.N,Net-(D2-Pad1)*
X128805998Y-85340000D03*
G04 #@! TO.P,U1,4*
G04 #@! TO.N,TS*
X128805998Y-85840001D03*
D24*
G04 #@! TO.P,U1,5*
G04 #@! TO.N,Net-(D3-Pad1)*
X129805811Y-86840002D03*
G04 #@! TO.P,U1,6*
G04 #@! TO.N,Net-(C7-Pad1)*
X130305937Y-86840002D03*
G04 #@! TO.P,U1,7*
G04 #@! TO.N,Net-(R8-Pad1)*
X130806063Y-86840002D03*
G04 #@! TO.P,U1,8*
G04 #@! TO.N,VFB*
X131306189Y-86840002D03*
D23*
G04 #@! TO.P,U1,9*
G04 #@! TO.N,SRN*
X132306002Y-85840001D03*
G04 #@! TO.P,U1,10*
G04 #@! TO.N,SRP*
X132306002Y-85340000D03*
G04 #@! TO.P,U1,11*
G04 #@! TO.N,GND*
X132306002Y-84840000D03*
G04 #@! TO.P,U1,12*
G04 #@! TO.N,Net-(C11-Pad2)*
X132306002Y-84339999D03*
D24*
G04 #@! TO.P,U1,13*
G04 #@! TO.N,Net-(Q2-Pad2)*
X131306189Y-83339998D03*
G04 #@! TO.P,U1,14*
G04 #@! TO.N,BTST*
X130806063Y-83339998D03*
G04 #@! TO.P,U1,15*
G04 #@! TO.N,Net-(R7-Pad2)*
X130305937Y-83339998D03*
G04 #@! TO.P,U1,16*
G04 #@! TO.N,Net-(C6-Pad2)*
X129805811Y-83339998D03*
D25*
G04 #@! TO.P,U1,17*
G04 #@! TO.N,N/C*
X130556000Y-85090000D03*
G04 #@! TD*
D26*
G04 #@! TO.P,MT3,1*
G04 #@! TO.N,N/C*
X151130000Y-70358000D03*
G04 #@! TD*
G04 #@! TO.P,MT2,1*
G04 #@! TO.N,N/C*
X150876000Y-98298000D03*
G04 #@! TD*
G04 #@! TO.P,MT1,1*
G04 #@! TO.N,N/C*
X107696000Y-98044000D03*
G04 #@! TD*
D27*
G04 #@! TO.N,GND*
X125984000Y-86614000D03*
X121666000Y-82296000D03*
X140208000Y-88900000D03*
X133858000Y-82804000D03*
X134620000Y-84836000D03*
G04 #@! TO.N,Net-(D3-Pad1)*
X124968000Y-94742000D03*
X129794000Y-88392000D03*
G04 #@! TD*
D28*
G04 #@! TO.N,Net-(C1-Pad1)*
X121644000Y-89916000D02*
X121898000Y-90170000D01*
X119380000Y-89916000D02*
X121644000Y-89916000D01*
D29*
G04 #@! TO.N,GND*
X134616000Y-84840000D02*
X134620000Y-84836000D01*
X132306002Y-84840000D02*
X134616000Y-84840000D01*
X134616000Y-84840000D02*
X135886000Y-84840000D01*
X135886000Y-84840000D02*
X136398000Y-84328000D01*
X138244000Y-83658000D02*
X138244000Y-82804000D01*
X137574000Y-84328000D02*
X138244000Y-83658000D01*
X136398000Y-84328000D02*
X137574000Y-84328000D01*
X134620000Y-84836000D02*
X134620000Y-84836000D01*
D30*
G04 #@! TO.N,Net-(C3-Pad1)*
X121920000Y-79248000D02*
X121920000Y-76708000D01*
X121920000Y-74608000D02*
X122360000Y-74168000D01*
X121920000Y-76708000D02*
X121920000Y-74608000D01*
X118808500Y-82359500D02*
X121920000Y-79248000D01*
X118808500Y-83312000D02*
X118808500Y-82359500D01*
D29*
G04 #@! TO.N,Net-(C2-Pad1)*
X125741999Y-84339999D02*
X125730000Y-84328000D01*
X128805998Y-84339999D02*
X125741999Y-84339999D01*
D28*
X125730000Y-84328000D02*
X125730000Y-82042000D01*
G04 #@! TO.N,Net-(C3-Pad1)*
X118808500Y-83312000D02*
X118808500Y-83413600D01*
D30*
X119824500Y-84328000D02*
X118808500Y-83312000D01*
X123630000Y-84328000D02*
X119824500Y-84328000D01*
X128094000Y-74427000D02*
X130014000Y-74427000D01*
X126498399Y-72831399D02*
X128094000Y-74427000D01*
X123270719Y-72831399D02*
X126498399Y-72831399D01*
X122360000Y-73742118D02*
X123270719Y-72831399D01*
X122360000Y-74168000D02*
X122360000Y-73742118D01*
D28*
G04 #@! TO.N,BTST*
X131730000Y-78806000D02*
X132080000Y-78806000D01*
X127762000Y-78672000D02*
X128717601Y-79627601D01*
X132080000Y-75411000D02*
X132114000Y-75377000D01*
D29*
X131201399Y-79334601D02*
X131318000Y-79218000D01*
X131201399Y-82290662D02*
X131201399Y-79334601D01*
X130806063Y-83339998D02*
X130806063Y-82685998D01*
D28*
X131318000Y-79218000D02*
X131730000Y-78806000D01*
D29*
X130806063Y-82685998D02*
X131201399Y-82290662D01*
D28*
X130908399Y-79627601D02*
X131318000Y-79218000D01*
X128717601Y-79627601D02*
X130908399Y-79627601D01*
X132146000Y-78740000D02*
X132080000Y-78806000D01*
D31*
X132636300Y-75377000D02*
X134861300Y-73152000D01*
X132114000Y-75377000D02*
X132636300Y-75377000D01*
X132114000Y-78772000D02*
X132080000Y-78806000D01*
X132114000Y-75377000D02*
X132114000Y-78772000D01*
X137094000Y-78806000D02*
X137160000Y-78740000D01*
X132080000Y-78806000D02*
X137094000Y-78806000D01*
D29*
G04 #@! TO.N,Net-(C6-Pad2)*
X129475998Y-83339998D02*
X129805811Y-83339998D01*
X127762000Y-81626000D02*
X129475998Y-83339998D01*
X127762000Y-80772000D02*
X127762000Y-81626000D01*
G04 #@! TO.N,Net-(C7-Pad1)*
X130305937Y-89658063D02*
X130048000Y-89916000D01*
X130305937Y-89150063D02*
X129794000Y-89662000D01*
X130305937Y-86840002D02*
X130305937Y-89150063D01*
G04 #@! TO.N,SRN*
X132566002Y-85840001D02*
X132306002Y-85840001D01*
X135810001Y-85840001D02*
X137668000Y-87698000D01*
X132306002Y-85840001D02*
X135810001Y-85840001D01*
D30*
X147657000Y-83610000D02*
X149733000Y-81534000D01*
X142494000Y-83610000D02*
X147657000Y-83610000D01*
X142494000Y-89662000D02*
X141732000Y-90424000D01*
X142494000Y-83610000D02*
X142494000Y-89662000D01*
D28*
X134112000Y-91313000D02*
X136525000Y-91313000D01*
X136525000Y-88841000D02*
X137668000Y-87698000D01*
X136525000Y-91313000D02*
X136525000Y-88841000D01*
X140324000Y-90424000D02*
X141732000Y-90424000D01*
X137668000Y-87768000D02*
X140324000Y-90424000D01*
X137668000Y-87698000D02*
X137668000Y-87768000D01*
X141732000Y-90424000D02*
X144780000Y-90424000D01*
X146880000Y-90424000D02*
X147320000Y-90864000D01*
X144780000Y-90424000D02*
X146880000Y-90424000D01*
D29*
G04 #@! TO.N,SRP*
X137410000Y-85340000D02*
X137668000Y-85598000D01*
X132306002Y-85340000D02*
X137410000Y-85340000D01*
D30*
X140462000Y-77978000D02*
X142494000Y-80010000D01*
X140462000Y-73152000D02*
X140462000Y-77978000D01*
D28*
X137668000Y-85598000D02*
X140208000Y-85598000D01*
D31*
X140208000Y-82296000D02*
X142494000Y-80010000D01*
X140208000Y-85598000D02*
X140208000Y-82296000D01*
D29*
G04 #@! TO.N,Net-(C11-Pad2)*
X136144000Y-83658000D02*
X136144000Y-82804000D01*
X135462001Y-84339999D02*
X136144000Y-83658000D01*
X132306002Y-84339999D02*
X135462001Y-84339999D01*
X136144000Y-80906000D02*
X136210000Y-80840000D01*
D28*
X136210000Y-82738000D02*
X136144000Y-82804000D01*
X136210000Y-80840000D02*
X136210000Y-82738000D01*
D31*
X136210000Y-80790000D02*
X138110000Y-80790000D01*
D29*
G04 #@! TO.N,VFB*
X138938000Y-91854000D02*
X138938000Y-91313000D01*
D28*
X134112000Y-93413000D02*
X136525000Y-93413000D01*
X136838000Y-93413000D02*
X138938000Y-91313000D01*
X136525000Y-93413000D02*
X136838000Y-93413000D01*
D29*
X132842000Y-92997000D02*
X133258000Y-93413000D01*
X132842000Y-88635813D02*
X132842000Y-92997000D01*
X131306189Y-87100002D02*
X132842000Y-88635813D01*
X133258000Y-93413000D02*
X134112000Y-93413000D01*
X131306189Y-86840002D02*
X131306189Y-87100002D01*
D30*
G04 #@! TO.N,Vsolar*
X118745000Y-79438500D02*
X114871500Y-83312000D01*
X118745000Y-74168000D02*
X118745000Y-79438500D01*
X117280000Y-94962000D02*
X117314000Y-94996000D01*
X117280000Y-92456000D02*
X117280000Y-94962000D01*
X115444000Y-87376000D02*
X117314000Y-87376000D01*
X114871500Y-86803500D02*
X115444000Y-87376000D01*
X114871500Y-83312000D02*
X114871500Y-86803500D01*
X117314000Y-89882000D02*
X117280000Y-89916000D01*
X117314000Y-87376000D02*
X117314000Y-89882000D01*
X117280000Y-89916000D02*
X117280000Y-92456000D01*
D28*
G04 #@! TO.N,Net-(D2-Pad2)*
X121793000Y-92456000D02*
X121920000Y-92583000D01*
X119380000Y-92456000D02*
X121793000Y-92456000D01*
D29*
G04 #@! TO.N,Net-(D2-Pad1)*
X123495000Y-92583000D02*
X123495000Y-92761000D01*
X128274000Y-85340000D02*
X128805998Y-85340000D01*
X127000000Y-86614000D02*
X128274000Y-85340000D01*
X123495000Y-92583000D02*
X125146482Y-92583000D01*
X127000000Y-90729482D02*
X125146482Y-92583000D01*
X127000000Y-86614000D02*
X127000000Y-90729482D01*
G04 #@! TO.N,Net-(D3-Pad1)*
X124587000Y-95123000D02*
X124968000Y-94742000D01*
X123495000Y-95123000D02*
X124587000Y-95123000D01*
X129794000Y-86851813D02*
X129805811Y-86840002D01*
X129794000Y-88392000D02*
X129794000Y-86851813D01*
D28*
G04 #@! TO.N,Net-(D3-Pad2)*
X121793000Y-94996000D02*
X121920000Y-95123000D01*
X119414000Y-94996000D02*
X121793000Y-94996000D01*
G04 #@! TO.N,Net-(Q1-Pad2)*
X130014000Y-78638000D02*
X130048000Y-78672000D01*
X130014000Y-76327000D02*
X130014000Y-78638000D01*
D29*
G04 #@! TO.N,Net-(Q2-Pad2)*
X132080000Y-81260000D02*
X132080000Y-80706000D01*
X132080000Y-82306187D02*
X132080000Y-81260000D01*
X131306189Y-83079998D02*
X132080000Y-82306187D01*
X131306189Y-83339998D02*
X131306189Y-83079998D01*
D28*
G04 #@! TO.N,MPPSET*
X119414000Y-87376000D02*
X122106000Y-87376000D01*
D29*
X128151998Y-84840000D02*
X128805998Y-84840000D01*
X127523397Y-85468601D02*
X128151998Y-84840000D01*
X123159399Y-85468601D02*
X127523397Y-85468601D01*
X122106000Y-86522000D02*
X123159399Y-85468601D01*
X122106000Y-87376000D02*
X122106000Y-86522000D01*
G04 #@! TO.N,Net-(R7-Pad2)*
X130305937Y-81029937D02*
X130048000Y-80772000D01*
X130305937Y-83339998D02*
X130305937Y-81029937D01*
G04 #@! TO.N,Net-(R8-Pad1)*
X130806063Y-91944063D02*
X130810000Y-91948000D01*
X130806063Y-86840002D02*
X130806063Y-91944063D01*
G04 #@! TO.N,TS*
X128710000Y-85935999D02*
X128805998Y-85840001D01*
D28*
X128710000Y-96012000D02*
X128710000Y-93980000D01*
X128710000Y-93980000D02*
X128710000Y-91948000D01*
D29*
X128805998Y-91852002D02*
X128710000Y-91948000D01*
X128805998Y-85840001D02*
X128805998Y-91852002D01*
G04 #@! TD*
G04 #@! TO.N,GND*
G36*
X115697000Y-75946000D02*
X115706667Y-75994601D01*
X115734197Y-76035803D01*
X115775399Y-76063333D01*
X115824000Y-76073000D01*
X117678200Y-76073000D01*
X117678201Y-78996616D01*
X117476800Y-79198017D01*
X117476800Y-78523524D01*
X117213149Y-77887014D01*
X116725986Y-77399851D01*
X116089476Y-77136200D01*
X115400524Y-77136200D01*
X114764014Y-77399851D01*
X114276851Y-77887014D01*
X114013200Y-78523524D01*
X114013200Y-79212476D01*
X114276851Y-79848986D01*
X114764014Y-80336149D01*
X115400524Y-80599800D01*
X116075017Y-80599800D01*
X114882577Y-81792241D01*
X113893600Y-81792241D01*
X113725120Y-81825754D01*
X113582290Y-81921190D01*
X113486854Y-82064020D01*
X113453341Y-82232500D01*
X113453341Y-84391500D01*
X113486854Y-84559980D01*
X113582290Y-84702810D01*
X113725120Y-84798246D01*
X113804700Y-84814076D01*
X113804701Y-86698434D01*
X113783802Y-86803500D01*
X113866598Y-87219744D01*
X114042866Y-87483548D01*
X114042868Y-87483550D01*
X114102382Y-87572619D01*
X114191451Y-87632133D01*
X114615365Y-88056047D01*
X114674881Y-88145119D01*
X115027756Y-88380903D01*
X115338934Y-88442800D01*
X115338938Y-88442800D01*
X115443999Y-88463698D01*
X115549061Y-88442800D01*
X116247200Y-88442800D01*
X116247201Y-89278498D01*
X116239741Y-89316000D01*
X116239741Y-89677504D01*
X116213200Y-89810935D01*
X116213200Y-89810939D01*
X116192302Y-89916000D01*
X116213200Y-90021062D01*
X116213201Y-92350930D01*
X116213200Y-92350935D01*
X116213201Y-94856934D01*
X116192302Y-94962000D01*
X116273741Y-95371422D01*
X116273741Y-95596000D01*
X116307254Y-95764480D01*
X116402690Y-95907310D01*
X116545520Y-96002746D01*
X116714000Y-96036259D01*
X117075507Y-96036259D01*
X117313999Y-96083698D01*
X117552492Y-96036259D01*
X117914000Y-96036259D01*
X118082480Y-96002746D01*
X118225310Y-95907310D01*
X118320746Y-95764480D01*
X118354259Y-95596000D01*
X118354259Y-95234492D01*
X118373741Y-95136549D01*
X118373741Y-95596000D01*
X118407254Y-95764480D01*
X118502690Y-95907310D01*
X118645520Y-96002746D01*
X118814000Y-96036259D01*
X120014000Y-96036259D01*
X120182480Y-96002746D01*
X120325310Y-95907310D01*
X120420746Y-95764480D01*
X120437192Y-95681800D01*
X121126053Y-95681800D01*
X121235260Y-95845240D01*
X121449058Y-95988095D01*
X121701250Y-96038259D01*
X122138750Y-96038259D01*
X122390942Y-95988095D01*
X122604740Y-95845240D01*
X122707500Y-95691449D01*
X122810260Y-95845240D01*
X123024058Y-95988095D01*
X123276250Y-96038259D01*
X123713750Y-96038259D01*
X123965942Y-95988095D01*
X124179740Y-95845240D01*
X124288947Y-95681800D01*
X124531965Y-95681800D01*
X124587000Y-95692747D01*
X124642035Y-95681800D01*
X124805033Y-95649378D01*
X124989872Y-95525872D01*
X125021050Y-95479211D01*
X125097861Y-95402400D01*
X125099362Y-95402400D01*
X125342087Y-95301860D01*
X125527860Y-95116087D01*
X125628400Y-94873362D01*
X125628400Y-94610638D01*
X125527860Y-94367913D01*
X125342087Y-94182140D01*
X125099362Y-94081600D01*
X124836638Y-94081600D01*
X124593913Y-94182140D01*
X124408140Y-94367913D01*
X124326835Y-94564200D01*
X124288947Y-94564200D01*
X124179740Y-94400760D01*
X123965942Y-94257905D01*
X123713750Y-94207741D01*
X123276250Y-94207741D01*
X123024058Y-94257905D01*
X122810260Y-94400760D01*
X122707500Y-94554551D01*
X122604740Y-94400760D01*
X122390942Y-94257905D01*
X122138750Y-94207741D01*
X121701250Y-94207741D01*
X121449058Y-94257905D01*
X121370793Y-94310200D01*
X120437192Y-94310200D01*
X120420746Y-94227520D01*
X120325310Y-94084690D01*
X120182480Y-93989254D01*
X120014000Y-93955741D01*
X118814000Y-93955741D01*
X118645520Y-93989254D01*
X118502690Y-94084690D01*
X118407254Y-94227520D01*
X118373741Y-94396000D01*
X118373741Y-94855450D01*
X118354259Y-94757507D01*
X118354259Y-94396000D01*
X118346800Y-94358501D01*
X118346800Y-93091488D01*
X118373254Y-93224480D01*
X118468690Y-93367310D01*
X118611520Y-93462746D01*
X118780000Y-93496259D01*
X119980000Y-93496259D01*
X120148480Y-93462746D01*
X120291310Y-93367310D01*
X120386746Y-93224480D01*
X120403192Y-93141800D01*
X121126053Y-93141800D01*
X121235260Y-93305240D01*
X121449058Y-93448095D01*
X121701250Y-93498259D01*
X122138750Y-93498259D01*
X122390942Y-93448095D01*
X122604740Y-93305240D01*
X122707500Y-93151449D01*
X122810260Y-93305240D01*
X123024058Y-93448095D01*
X123276250Y-93498259D01*
X123713750Y-93498259D01*
X123965942Y-93448095D01*
X124179740Y-93305240D01*
X124288947Y-93141800D01*
X125091447Y-93141800D01*
X125146482Y-93152747D01*
X125201517Y-93141800D01*
X125364515Y-93109378D01*
X125549354Y-92985872D01*
X125580532Y-92939211D01*
X127356214Y-91163530D01*
X127402872Y-91132354D01*
X127526378Y-90947515D01*
X127558800Y-90784517D01*
X127558800Y-90784513D01*
X127569746Y-90729483D01*
X127558800Y-90674453D01*
X127558800Y-86845461D01*
X128105636Y-86298626D01*
X128237518Y-86386747D01*
X128247198Y-86388673D01*
X128247199Y-90907741D01*
X128110000Y-90907741D01*
X127941520Y-90941254D01*
X127798690Y-91036690D01*
X127703254Y-91179520D01*
X127669741Y-91348000D01*
X127669741Y-92548000D01*
X127703254Y-92716480D01*
X127798690Y-92859310D01*
X127941520Y-92954746D01*
X127988043Y-92964000D01*
X127941520Y-92973254D01*
X127798690Y-93068690D01*
X127703254Y-93211520D01*
X127669741Y-93380000D01*
X127669741Y-94580000D01*
X127703254Y-94748480D01*
X127798690Y-94891310D01*
X127941520Y-94986746D01*
X127988043Y-94996000D01*
X127941520Y-95005254D01*
X127798690Y-95100690D01*
X127703254Y-95243520D01*
X127669741Y-95412000D01*
X127669741Y-96612000D01*
X127703254Y-96780480D01*
X127798690Y-96923310D01*
X127941520Y-97018746D01*
X128110000Y-97052259D01*
X129310000Y-97052259D01*
X129478480Y-97018746D01*
X129621310Y-96923310D01*
X129640027Y-96895298D01*
X129671673Y-96971699D01*
X129850302Y-97150327D01*
X130083691Y-97247000D01*
X130524250Y-97247000D01*
X130683000Y-97088250D01*
X130683000Y-96139000D01*
X130937000Y-96139000D01*
X130937000Y-97088250D01*
X131095750Y-97247000D01*
X131536309Y-97247000D01*
X131769698Y-97150327D01*
X131948327Y-96971699D01*
X132045000Y-96738310D01*
X132045000Y-96297750D01*
X131886250Y-96139000D01*
X130937000Y-96139000D01*
X130683000Y-96139000D01*
X130663000Y-96139000D01*
X130663000Y-95885000D01*
X130683000Y-95885000D01*
X130683000Y-94107000D01*
X130937000Y-94107000D01*
X130937000Y-95885000D01*
X131886250Y-95885000D01*
X132045000Y-95726250D01*
X132045000Y-95285690D01*
X131948327Y-95052301D01*
X131892026Y-94996000D01*
X131948327Y-94939699D01*
X132045000Y-94706310D01*
X132045000Y-94265750D01*
X131886250Y-94107000D01*
X130937000Y-94107000D01*
X130683000Y-94107000D01*
X130663000Y-94107000D01*
X130663000Y-93853000D01*
X130683000Y-93853000D01*
X130683000Y-93833000D01*
X130937000Y-93833000D01*
X130937000Y-93853000D01*
X131886250Y-93853000D01*
X132045000Y-93694250D01*
X132045000Y-93253690D01*
X131948327Y-93020301D01*
X131769698Y-92841673D01*
X131741029Y-92829798D01*
X131816746Y-92716480D01*
X131850259Y-92548000D01*
X131850259Y-91348000D01*
X131816746Y-91179520D01*
X131721310Y-91036690D01*
X131578480Y-90941254D01*
X131410000Y-90907741D01*
X131364863Y-90907741D01*
X131364863Y-90897000D01*
X131608250Y-90897000D01*
X131767000Y-90738250D01*
X131767000Y-89789000D01*
X131747000Y-89789000D01*
X131747000Y-89535000D01*
X131767000Y-89535000D01*
X131767000Y-89515000D01*
X132021000Y-89515000D01*
X132021000Y-89535000D01*
X132041000Y-89535000D01*
X132041000Y-89789000D01*
X132021000Y-89789000D01*
X132021000Y-90738250D01*
X132179750Y-90897000D01*
X132283201Y-90897000D01*
X132283201Y-92941960D01*
X132272253Y-92997000D01*
X132315622Y-93215032D01*
X132338820Y-93249750D01*
X132439129Y-93399872D01*
X132485786Y-93431047D01*
X132823953Y-93769216D01*
X132855128Y-93815872D01*
X132901783Y-93847046D01*
X132901784Y-93847047D01*
X133039967Y-93939378D01*
X133071741Y-93945698D01*
X133071741Y-94013000D01*
X133105254Y-94181480D01*
X133200690Y-94324310D01*
X133343520Y-94419746D01*
X133512000Y-94453259D01*
X134712000Y-94453259D01*
X134880480Y-94419746D01*
X135023310Y-94324310D01*
X135118746Y-94181480D01*
X135135192Y-94098800D01*
X135501808Y-94098800D01*
X135518254Y-94181480D01*
X135613690Y-94324310D01*
X135756520Y-94419746D01*
X135925000Y-94453259D01*
X137125000Y-94453259D01*
X137293480Y-94419746D01*
X137436310Y-94324310D01*
X137531746Y-94181480D01*
X137565259Y-94013000D01*
X137565259Y-93655607D01*
X137703000Y-93517866D01*
X137703000Y-93540002D01*
X137861748Y-93540002D01*
X137703000Y-93698750D01*
X137703000Y-94139309D01*
X137799673Y-94372698D01*
X137978301Y-94551327D01*
X138211690Y-94648000D01*
X138652250Y-94648000D01*
X138811000Y-94489250D01*
X138811000Y-93540000D01*
X139065000Y-93540000D01*
X139065000Y-94489250D01*
X139223750Y-94648000D01*
X139664310Y-94648000D01*
X139897699Y-94551327D01*
X140076327Y-94372698D01*
X140102400Y-94309750D01*
X140197000Y-94309750D01*
X140197000Y-94900309D01*
X140293673Y-95133698D01*
X140472301Y-95312327D01*
X140705690Y-95409000D01*
X141446250Y-95409000D01*
X141605000Y-95250250D01*
X141605000Y-94151000D01*
X141859000Y-94151000D01*
X141859000Y-95250250D01*
X142017750Y-95409000D01*
X142758310Y-95409000D01*
X142991699Y-95312327D01*
X143170327Y-95133698D01*
X143256000Y-94926865D01*
X143341673Y-95133698D01*
X143520301Y-95312327D01*
X143753690Y-95409000D01*
X144494250Y-95409000D01*
X144653000Y-95250250D01*
X144653000Y-94151000D01*
X143403750Y-94151000D01*
X143256000Y-94298750D01*
X143108250Y-94151000D01*
X141859000Y-94151000D01*
X141605000Y-94151000D01*
X140355750Y-94151000D01*
X140197000Y-94309750D01*
X140102400Y-94309750D01*
X140173000Y-94139309D01*
X140173000Y-93698750D01*
X140014250Y-93540000D01*
X139065000Y-93540000D01*
X138811000Y-93540000D01*
X138791000Y-93540000D01*
X138791000Y-93286000D01*
X138811000Y-93286000D01*
X138811000Y-93266000D01*
X139065000Y-93266000D01*
X139065000Y-93286000D01*
X140014250Y-93286000D01*
X140152559Y-93147691D01*
X140197000Y-93147691D01*
X140197000Y-93738250D01*
X140355750Y-93897000D01*
X141605000Y-93897000D01*
X141605000Y-92797750D01*
X141859000Y-92797750D01*
X141859000Y-93897000D01*
X143108250Y-93897000D01*
X143256000Y-93749250D01*
X143403750Y-93897000D01*
X144653000Y-93897000D01*
X144653000Y-92797750D01*
X144494250Y-92639000D01*
X143753690Y-92639000D01*
X143520301Y-92735673D01*
X143341673Y-92914302D01*
X143256000Y-93121135D01*
X143170327Y-92914302D01*
X142991699Y-92735673D01*
X142758310Y-92639000D01*
X142017750Y-92639000D01*
X141859000Y-92797750D01*
X141605000Y-92797750D01*
X141446250Y-92639000D01*
X140705690Y-92639000D01*
X140472301Y-92735673D01*
X140293673Y-92914302D01*
X140197000Y-93147691D01*
X140152559Y-93147691D01*
X140173000Y-93127250D01*
X140173000Y-92686691D01*
X140076327Y-92453302D01*
X139897699Y-92274673D01*
X139821298Y-92243027D01*
X139849310Y-92224310D01*
X139944746Y-92081480D01*
X139978259Y-91913000D01*
X139978259Y-91017787D01*
X140056401Y-91070000D01*
X140056414Y-91070009D01*
X140323999Y-91123235D01*
X140391542Y-91109800D01*
X140391741Y-91109800D01*
X140391741Y-91174000D01*
X140425254Y-91342480D01*
X140520690Y-91485310D01*
X140663520Y-91580746D01*
X140832000Y-91614259D01*
X141605000Y-91614259D01*
X141605000Y-91948000D01*
X141614667Y-91996601D01*
X141642197Y-92037803D01*
X141683399Y-92065333D01*
X141732000Y-92075000D01*
X146152389Y-92075000D01*
X146085000Y-92237691D01*
X146085000Y-92678250D01*
X146243748Y-92836998D01*
X146141023Y-92836998D01*
X146039699Y-92735673D01*
X145806310Y-92639000D01*
X145065750Y-92639000D01*
X144907000Y-92797750D01*
X144907000Y-93897000D01*
X144927000Y-93897000D01*
X144927000Y-94151000D01*
X144907000Y-94151000D01*
X144907000Y-95250250D01*
X145065750Y-95409000D01*
X145806310Y-95409000D01*
X146039699Y-95312327D01*
X146218327Y-95133698D01*
X146315000Y-94900309D01*
X146315000Y-94309750D01*
X146156252Y-94151002D01*
X146315000Y-94151002D01*
X146315000Y-94057026D01*
X146360301Y-94102327D01*
X146593690Y-94199000D01*
X147034250Y-94199000D01*
X147193000Y-94040250D01*
X147193000Y-93091000D01*
X147447000Y-93091000D01*
X147447000Y-94040250D01*
X147605750Y-94199000D01*
X148046310Y-94199000D01*
X148279699Y-94102327D01*
X148458327Y-93923698D01*
X148555000Y-93690309D01*
X148555000Y-93249750D01*
X148396250Y-93091000D01*
X147447000Y-93091000D01*
X147193000Y-93091000D01*
X147173000Y-93091000D01*
X147173000Y-92837000D01*
X147193000Y-92837000D01*
X147193000Y-92817000D01*
X147447000Y-92817000D01*
X147447000Y-92837000D01*
X148396250Y-92837000D01*
X148555000Y-92678250D01*
X148555000Y-92237691D01*
X148487611Y-92075000D01*
X153860501Y-92075000D01*
X153860501Y-101155500D01*
X104584500Y-101155500D01*
X104584500Y-97520502D01*
X105064200Y-97520502D01*
X105064200Y-98567498D01*
X105464868Y-99534795D01*
X106205205Y-100275132D01*
X107172502Y-100675800D01*
X108219498Y-100675800D01*
X109186795Y-100275132D01*
X109927132Y-99534795D01*
X110327800Y-98567498D01*
X110327800Y-97774502D01*
X148244200Y-97774502D01*
X148244200Y-98821498D01*
X148644868Y-99788795D01*
X149385205Y-100529132D01*
X150352502Y-100929800D01*
X151399498Y-100929800D01*
X152366795Y-100529132D01*
X153107132Y-99788795D01*
X153507800Y-98821498D01*
X153507800Y-97774502D01*
X153107132Y-96807205D01*
X152366795Y-96066868D01*
X151399498Y-95666200D01*
X150352502Y-95666200D01*
X149385205Y-96066868D01*
X148644868Y-96807205D01*
X148244200Y-97774502D01*
X110327800Y-97774502D01*
X110327800Y-97520502D01*
X109927132Y-96553205D01*
X109186795Y-95812868D01*
X108219498Y-95412200D01*
X107172502Y-95412200D01*
X106205205Y-95812868D01*
X105464868Y-96553205D01*
X105064200Y-97520502D01*
X104584500Y-97520502D01*
X104584500Y-75537459D01*
X111555146Y-75537459D01*
X111690504Y-75835455D01*
X112408880Y-76112066D01*
X113178427Y-76092710D01*
X113799496Y-75835455D01*
X113934854Y-75537459D01*
X112745000Y-74347605D01*
X111555146Y-75537459D01*
X104584500Y-75537459D01*
X104584500Y-73831880D01*
X110800934Y-73831880D01*
X110820290Y-74601427D01*
X111077545Y-75222496D01*
X111375541Y-75357854D01*
X112565395Y-74168000D01*
X112924605Y-74168000D01*
X114114459Y-75357854D01*
X114412455Y-75222496D01*
X114689066Y-74504120D01*
X114669710Y-73734573D01*
X114412455Y-73113504D01*
X114114459Y-72978146D01*
X112924605Y-74168000D01*
X112565395Y-74168000D01*
X111375541Y-72978146D01*
X111077545Y-73113504D01*
X110800934Y-73831880D01*
X104584500Y-73831880D01*
X104584500Y-72798541D01*
X111555146Y-72798541D01*
X112745000Y-73988395D01*
X113934854Y-72798541D01*
X113799496Y-72500545D01*
X113081120Y-72223934D01*
X112311573Y-72243290D01*
X111690504Y-72500545D01*
X111555146Y-72798541D01*
X104584500Y-72798541D01*
X104584500Y-67754500D01*
X115697000Y-67754500D01*
X115697000Y-75946000D01*
X115697000Y-75946000D01*
G37*
X115697000Y-75946000D02*
X115706667Y-75994601D01*
X115734197Y-76035803D01*
X115775399Y-76063333D01*
X115824000Y-76073000D01*
X117678200Y-76073000D01*
X117678201Y-78996616D01*
X117476800Y-79198017D01*
X117476800Y-78523524D01*
X117213149Y-77887014D01*
X116725986Y-77399851D01*
X116089476Y-77136200D01*
X115400524Y-77136200D01*
X114764014Y-77399851D01*
X114276851Y-77887014D01*
X114013200Y-78523524D01*
X114013200Y-79212476D01*
X114276851Y-79848986D01*
X114764014Y-80336149D01*
X115400524Y-80599800D01*
X116075017Y-80599800D01*
X114882577Y-81792241D01*
X113893600Y-81792241D01*
X113725120Y-81825754D01*
X113582290Y-81921190D01*
X113486854Y-82064020D01*
X113453341Y-82232500D01*
X113453341Y-84391500D01*
X113486854Y-84559980D01*
X113582290Y-84702810D01*
X113725120Y-84798246D01*
X113804700Y-84814076D01*
X113804701Y-86698434D01*
X113783802Y-86803500D01*
X113866598Y-87219744D01*
X114042866Y-87483548D01*
X114042868Y-87483550D01*
X114102382Y-87572619D01*
X114191451Y-87632133D01*
X114615365Y-88056047D01*
X114674881Y-88145119D01*
X115027756Y-88380903D01*
X115338934Y-88442800D01*
X115338938Y-88442800D01*
X115443999Y-88463698D01*
X115549061Y-88442800D01*
X116247200Y-88442800D01*
X116247201Y-89278498D01*
X116239741Y-89316000D01*
X116239741Y-89677504D01*
X116213200Y-89810935D01*
X116213200Y-89810939D01*
X116192302Y-89916000D01*
X116213200Y-90021062D01*
X116213201Y-92350930D01*
X116213200Y-92350935D01*
X116213201Y-94856934D01*
X116192302Y-94962000D01*
X116273741Y-95371422D01*
X116273741Y-95596000D01*
X116307254Y-95764480D01*
X116402690Y-95907310D01*
X116545520Y-96002746D01*
X116714000Y-96036259D01*
X117075507Y-96036259D01*
X117313999Y-96083698D01*
X117552492Y-96036259D01*
X117914000Y-96036259D01*
X118082480Y-96002746D01*
X118225310Y-95907310D01*
X118320746Y-95764480D01*
X118354259Y-95596000D01*
X118354259Y-95234492D01*
X118373741Y-95136549D01*
X118373741Y-95596000D01*
X118407254Y-95764480D01*
X118502690Y-95907310D01*
X118645520Y-96002746D01*
X118814000Y-96036259D01*
X120014000Y-96036259D01*
X120182480Y-96002746D01*
X120325310Y-95907310D01*
X120420746Y-95764480D01*
X120437192Y-95681800D01*
X121126053Y-95681800D01*
X121235260Y-95845240D01*
X121449058Y-95988095D01*
X121701250Y-96038259D01*
X122138750Y-96038259D01*
X122390942Y-95988095D01*
X122604740Y-95845240D01*
X122707500Y-95691449D01*
X122810260Y-95845240D01*
X123024058Y-95988095D01*
X123276250Y-96038259D01*
X123713750Y-96038259D01*
X123965942Y-95988095D01*
X124179740Y-95845240D01*
X124288947Y-95681800D01*
X124531965Y-95681800D01*
X124587000Y-95692747D01*
X124642035Y-95681800D01*
X124805033Y-95649378D01*
X124989872Y-95525872D01*
X125021050Y-95479211D01*
X125097861Y-95402400D01*
X125099362Y-95402400D01*
X125342087Y-95301860D01*
X125527860Y-95116087D01*
X125628400Y-94873362D01*
X125628400Y-94610638D01*
X125527860Y-94367913D01*
X125342087Y-94182140D01*
X125099362Y-94081600D01*
X124836638Y-94081600D01*
X124593913Y-94182140D01*
X124408140Y-94367913D01*
X124326835Y-94564200D01*
X124288947Y-94564200D01*
X124179740Y-94400760D01*
X123965942Y-94257905D01*
X123713750Y-94207741D01*
X123276250Y-94207741D01*
X123024058Y-94257905D01*
X122810260Y-94400760D01*
X122707500Y-94554551D01*
X122604740Y-94400760D01*
X122390942Y-94257905D01*
X122138750Y-94207741D01*
X121701250Y-94207741D01*
X121449058Y-94257905D01*
X121370793Y-94310200D01*
X120437192Y-94310200D01*
X120420746Y-94227520D01*
X120325310Y-94084690D01*
X120182480Y-93989254D01*
X120014000Y-93955741D01*
X118814000Y-93955741D01*
X118645520Y-93989254D01*
X118502690Y-94084690D01*
X118407254Y-94227520D01*
X118373741Y-94396000D01*
X118373741Y-94855450D01*
X118354259Y-94757507D01*
X118354259Y-94396000D01*
X118346800Y-94358501D01*
X118346800Y-93091488D01*
X118373254Y-93224480D01*
X118468690Y-93367310D01*
X118611520Y-93462746D01*
X118780000Y-93496259D01*
X119980000Y-93496259D01*
X120148480Y-93462746D01*
X120291310Y-93367310D01*
X120386746Y-93224480D01*
X120403192Y-93141800D01*
X121126053Y-93141800D01*
X121235260Y-93305240D01*
X121449058Y-93448095D01*
X121701250Y-93498259D01*
X122138750Y-93498259D01*
X122390942Y-93448095D01*
X122604740Y-93305240D01*
X122707500Y-93151449D01*
X122810260Y-93305240D01*
X123024058Y-93448095D01*
X123276250Y-93498259D01*
X123713750Y-93498259D01*
X123965942Y-93448095D01*
X124179740Y-93305240D01*
X124288947Y-93141800D01*
X125091447Y-93141800D01*
X125146482Y-93152747D01*
X125201517Y-93141800D01*
X125364515Y-93109378D01*
X125549354Y-92985872D01*
X125580532Y-92939211D01*
X127356214Y-91163530D01*
X127402872Y-91132354D01*
X127526378Y-90947515D01*
X127558800Y-90784517D01*
X127558800Y-90784513D01*
X127569746Y-90729483D01*
X127558800Y-90674453D01*
X127558800Y-86845461D01*
X128105636Y-86298626D01*
X128237518Y-86386747D01*
X128247198Y-86388673D01*
X128247199Y-90907741D01*
X128110000Y-90907741D01*
X127941520Y-90941254D01*
X127798690Y-91036690D01*
X127703254Y-91179520D01*
X127669741Y-91348000D01*
X127669741Y-92548000D01*
X127703254Y-92716480D01*
X127798690Y-92859310D01*
X127941520Y-92954746D01*
X127988043Y-92964000D01*
X127941520Y-92973254D01*
X127798690Y-93068690D01*
X127703254Y-93211520D01*
X127669741Y-93380000D01*
X127669741Y-94580000D01*
X127703254Y-94748480D01*
X127798690Y-94891310D01*
X127941520Y-94986746D01*
X127988043Y-94996000D01*
X127941520Y-95005254D01*
X127798690Y-95100690D01*
X127703254Y-95243520D01*
X127669741Y-95412000D01*
X127669741Y-96612000D01*
X127703254Y-96780480D01*
X127798690Y-96923310D01*
X127941520Y-97018746D01*
X128110000Y-97052259D01*
X129310000Y-97052259D01*
X129478480Y-97018746D01*
X129621310Y-96923310D01*
X129640027Y-96895298D01*
X129671673Y-96971699D01*
X129850302Y-97150327D01*
X130083691Y-97247000D01*
X130524250Y-97247000D01*
X130683000Y-97088250D01*
X130683000Y-96139000D01*
X130937000Y-96139000D01*
X130937000Y-97088250D01*
X131095750Y-97247000D01*
X131536309Y-97247000D01*
X131769698Y-97150327D01*
X131948327Y-96971699D01*
X132045000Y-96738310D01*
X132045000Y-96297750D01*
X131886250Y-96139000D01*
X130937000Y-96139000D01*
X130683000Y-96139000D01*
X130663000Y-96139000D01*
X130663000Y-95885000D01*
X130683000Y-95885000D01*
X130683000Y-94107000D01*
X130937000Y-94107000D01*
X130937000Y-95885000D01*
X131886250Y-95885000D01*
X132045000Y-95726250D01*
X132045000Y-95285690D01*
X131948327Y-95052301D01*
X131892026Y-94996000D01*
X131948327Y-94939699D01*
X132045000Y-94706310D01*
X132045000Y-94265750D01*
X131886250Y-94107000D01*
X130937000Y-94107000D01*
X130683000Y-94107000D01*
X130663000Y-94107000D01*
X130663000Y-93853000D01*
X130683000Y-93853000D01*
X130683000Y-93833000D01*
X130937000Y-93833000D01*
X130937000Y-93853000D01*
X131886250Y-93853000D01*
X132045000Y-93694250D01*
X132045000Y-93253690D01*
X131948327Y-93020301D01*
X131769698Y-92841673D01*
X131741029Y-92829798D01*
X131816746Y-92716480D01*
X131850259Y-92548000D01*
X131850259Y-91348000D01*
X131816746Y-91179520D01*
X131721310Y-91036690D01*
X131578480Y-90941254D01*
X131410000Y-90907741D01*
X131364863Y-90907741D01*
X131364863Y-90897000D01*
X131608250Y-90897000D01*
X131767000Y-90738250D01*
X131767000Y-89789000D01*
X131747000Y-89789000D01*
X131747000Y-89535000D01*
X131767000Y-89535000D01*
X131767000Y-89515000D01*
X132021000Y-89515000D01*
X132021000Y-89535000D01*
X132041000Y-89535000D01*
X132041000Y-89789000D01*
X132021000Y-89789000D01*
X132021000Y-90738250D01*
X132179750Y-90897000D01*
X132283201Y-90897000D01*
X132283201Y-92941960D01*
X132272253Y-92997000D01*
X132315622Y-93215032D01*
X132338820Y-93249750D01*
X132439129Y-93399872D01*
X132485786Y-93431047D01*
X132823953Y-93769216D01*
X132855128Y-93815872D01*
X132901783Y-93847046D01*
X132901784Y-93847047D01*
X133039967Y-93939378D01*
X133071741Y-93945698D01*
X133071741Y-94013000D01*
X133105254Y-94181480D01*
X133200690Y-94324310D01*
X133343520Y-94419746D01*
X133512000Y-94453259D01*
X134712000Y-94453259D01*
X134880480Y-94419746D01*
X135023310Y-94324310D01*
X135118746Y-94181480D01*
X135135192Y-94098800D01*
X135501808Y-94098800D01*
X135518254Y-94181480D01*
X135613690Y-94324310D01*
X135756520Y-94419746D01*
X135925000Y-94453259D01*
X137125000Y-94453259D01*
X137293480Y-94419746D01*
X137436310Y-94324310D01*
X137531746Y-94181480D01*
X137565259Y-94013000D01*
X137565259Y-93655607D01*
X137703000Y-93517866D01*
X137703000Y-93540002D01*
X137861748Y-93540002D01*
X137703000Y-93698750D01*
X137703000Y-94139309D01*
X137799673Y-94372698D01*
X137978301Y-94551327D01*
X138211690Y-94648000D01*
X138652250Y-94648000D01*
X138811000Y-94489250D01*
X138811000Y-93540000D01*
X139065000Y-93540000D01*
X139065000Y-94489250D01*
X139223750Y-94648000D01*
X139664310Y-94648000D01*
X139897699Y-94551327D01*
X140076327Y-94372698D01*
X140102400Y-94309750D01*
X140197000Y-94309750D01*
X140197000Y-94900309D01*
X140293673Y-95133698D01*
X140472301Y-95312327D01*
X140705690Y-95409000D01*
X141446250Y-95409000D01*
X141605000Y-95250250D01*
X141605000Y-94151000D01*
X141859000Y-94151000D01*
X141859000Y-95250250D01*
X142017750Y-95409000D01*
X142758310Y-95409000D01*
X142991699Y-95312327D01*
X143170327Y-95133698D01*
X143256000Y-94926865D01*
X143341673Y-95133698D01*
X143520301Y-95312327D01*
X143753690Y-95409000D01*
X144494250Y-95409000D01*
X144653000Y-95250250D01*
X144653000Y-94151000D01*
X143403750Y-94151000D01*
X143256000Y-94298750D01*
X143108250Y-94151000D01*
X141859000Y-94151000D01*
X141605000Y-94151000D01*
X140355750Y-94151000D01*
X140197000Y-94309750D01*
X140102400Y-94309750D01*
X140173000Y-94139309D01*
X140173000Y-93698750D01*
X140014250Y-93540000D01*
X139065000Y-93540000D01*
X138811000Y-93540000D01*
X138791000Y-93540000D01*
X138791000Y-93286000D01*
X138811000Y-93286000D01*
X138811000Y-93266000D01*
X139065000Y-93266000D01*
X139065000Y-93286000D01*
X140014250Y-93286000D01*
X140152559Y-93147691D01*
X140197000Y-93147691D01*
X140197000Y-93738250D01*
X140355750Y-93897000D01*
X141605000Y-93897000D01*
X141605000Y-92797750D01*
X141859000Y-92797750D01*
X141859000Y-93897000D01*
X143108250Y-93897000D01*
X143256000Y-93749250D01*
X143403750Y-93897000D01*
X144653000Y-93897000D01*
X144653000Y-92797750D01*
X144494250Y-92639000D01*
X143753690Y-92639000D01*
X143520301Y-92735673D01*
X143341673Y-92914302D01*
X143256000Y-93121135D01*
X143170327Y-92914302D01*
X142991699Y-92735673D01*
X142758310Y-92639000D01*
X142017750Y-92639000D01*
X141859000Y-92797750D01*
X141605000Y-92797750D01*
X141446250Y-92639000D01*
X140705690Y-92639000D01*
X140472301Y-92735673D01*
X140293673Y-92914302D01*
X140197000Y-93147691D01*
X140152559Y-93147691D01*
X140173000Y-93127250D01*
X140173000Y-92686691D01*
X140076327Y-92453302D01*
X139897699Y-92274673D01*
X139821298Y-92243027D01*
X139849310Y-92224310D01*
X139944746Y-92081480D01*
X139978259Y-91913000D01*
X139978259Y-91017787D01*
X140056401Y-91070000D01*
X140056414Y-91070009D01*
X140323999Y-91123235D01*
X140391542Y-91109800D01*
X140391741Y-91109800D01*
X140391741Y-91174000D01*
X140425254Y-91342480D01*
X140520690Y-91485310D01*
X140663520Y-91580746D01*
X140832000Y-91614259D01*
X141605000Y-91614259D01*
X141605000Y-91948000D01*
X141614667Y-91996601D01*
X141642197Y-92037803D01*
X141683399Y-92065333D01*
X141732000Y-92075000D01*
X146152389Y-92075000D01*
X146085000Y-92237691D01*
X146085000Y-92678250D01*
X146243748Y-92836998D01*
X146141023Y-92836998D01*
X146039699Y-92735673D01*
X145806310Y-92639000D01*
X145065750Y-92639000D01*
X144907000Y-92797750D01*
X144907000Y-93897000D01*
X144927000Y-93897000D01*
X144927000Y-94151000D01*
X144907000Y-94151000D01*
X144907000Y-95250250D01*
X145065750Y-95409000D01*
X145806310Y-95409000D01*
X146039699Y-95312327D01*
X146218327Y-95133698D01*
X146315000Y-94900309D01*
X146315000Y-94309750D01*
X146156252Y-94151002D01*
X146315000Y-94151002D01*
X146315000Y-94057026D01*
X146360301Y-94102327D01*
X146593690Y-94199000D01*
X147034250Y-94199000D01*
X147193000Y-94040250D01*
X147193000Y-93091000D01*
X147447000Y-93091000D01*
X147447000Y-94040250D01*
X147605750Y-94199000D01*
X148046310Y-94199000D01*
X148279699Y-94102327D01*
X148458327Y-93923698D01*
X148555000Y-93690309D01*
X148555000Y-93249750D01*
X148396250Y-93091000D01*
X147447000Y-93091000D01*
X147193000Y-93091000D01*
X147173000Y-93091000D01*
X147173000Y-92837000D01*
X147193000Y-92837000D01*
X147193000Y-92817000D01*
X147447000Y-92817000D01*
X147447000Y-92837000D01*
X148396250Y-92837000D01*
X148555000Y-92678250D01*
X148555000Y-92237691D01*
X148487611Y-92075000D01*
X153860501Y-92075000D01*
X153860501Y-101155500D01*
X104584500Y-101155500D01*
X104584500Y-97520502D01*
X105064200Y-97520502D01*
X105064200Y-98567498D01*
X105464868Y-99534795D01*
X106205205Y-100275132D01*
X107172502Y-100675800D01*
X108219498Y-100675800D01*
X109186795Y-100275132D01*
X109927132Y-99534795D01*
X110327800Y-98567498D01*
X110327800Y-97774502D01*
X148244200Y-97774502D01*
X148244200Y-98821498D01*
X148644868Y-99788795D01*
X149385205Y-100529132D01*
X150352502Y-100929800D01*
X151399498Y-100929800D01*
X152366795Y-100529132D01*
X153107132Y-99788795D01*
X153507800Y-98821498D01*
X153507800Y-97774502D01*
X153107132Y-96807205D01*
X152366795Y-96066868D01*
X151399498Y-95666200D01*
X150352502Y-95666200D01*
X149385205Y-96066868D01*
X148644868Y-96807205D01*
X148244200Y-97774502D01*
X110327800Y-97774502D01*
X110327800Y-97520502D01*
X109927132Y-96553205D01*
X109186795Y-95812868D01*
X108219498Y-95412200D01*
X107172502Y-95412200D01*
X106205205Y-95812868D01*
X105464868Y-96553205D01*
X105064200Y-97520502D01*
X104584500Y-97520502D01*
X104584500Y-75537459D01*
X111555146Y-75537459D01*
X111690504Y-75835455D01*
X112408880Y-76112066D01*
X113178427Y-76092710D01*
X113799496Y-75835455D01*
X113934854Y-75537459D01*
X112745000Y-74347605D01*
X111555146Y-75537459D01*
X104584500Y-75537459D01*
X104584500Y-73831880D01*
X110800934Y-73831880D01*
X110820290Y-74601427D01*
X111077545Y-75222496D01*
X111375541Y-75357854D01*
X112565395Y-74168000D01*
X112924605Y-74168000D01*
X114114459Y-75357854D01*
X114412455Y-75222496D01*
X114689066Y-74504120D01*
X114669710Y-73734573D01*
X114412455Y-73113504D01*
X114114459Y-72978146D01*
X112924605Y-74168000D01*
X112565395Y-74168000D01*
X111375541Y-72978146D01*
X111077545Y-73113504D01*
X110800934Y-73831880D01*
X104584500Y-73831880D01*
X104584500Y-72798541D01*
X111555146Y-72798541D01*
X112745000Y-73988395D01*
X113934854Y-72798541D01*
X113799496Y-72500545D01*
X113081120Y-72223934D01*
X112311573Y-72243290D01*
X111690504Y-72500545D01*
X111555146Y-72798541D01*
X104584500Y-72798541D01*
X104584500Y-67754500D01*
X115697000Y-67754500D01*
X115697000Y-75946000D01*
G36*
X126643789Y-86179950D02*
X126597128Y-86211128D01*
X126511774Y-86338870D01*
X126473622Y-86395968D01*
X126430253Y-86614000D01*
X126441200Y-86669035D01*
X126441200Y-88662707D01*
X126374309Y-88635000D01*
X125783750Y-88635000D01*
X125625000Y-88793750D01*
X125625000Y-90043000D01*
X125645000Y-90043000D01*
X125645000Y-90297000D01*
X125625000Y-90297000D01*
X125625000Y-90317000D01*
X125371000Y-90317000D01*
X125371000Y-90297000D01*
X124271750Y-90297000D01*
X124113000Y-90455750D01*
X124113000Y-91196310D01*
X124209673Y-91429699D01*
X124388302Y-91608327D01*
X124621691Y-91705000D01*
X125212250Y-91705000D01*
X125370998Y-91546252D01*
X125370998Y-91568223D01*
X124915021Y-92024200D01*
X124288947Y-92024200D01*
X124179740Y-91860760D01*
X123965942Y-91717905D01*
X123713750Y-91667741D01*
X123276250Y-91667741D01*
X123024058Y-91717905D01*
X122810260Y-91860760D01*
X122707500Y-92014551D01*
X122604740Y-91860760D01*
X122390942Y-91717905D01*
X122138750Y-91667741D01*
X121701250Y-91667741D01*
X121449058Y-91717905D01*
X121370793Y-91770200D01*
X120403192Y-91770200D01*
X120386746Y-91687520D01*
X120291310Y-91544690D01*
X120148480Y-91449254D01*
X119980000Y-91415741D01*
X118780000Y-91415741D01*
X118611520Y-91449254D01*
X118468690Y-91544690D01*
X118373254Y-91687520D01*
X118346800Y-91820512D01*
X118346800Y-90551488D01*
X118373254Y-90684480D01*
X118468690Y-90827310D01*
X118611520Y-90922746D01*
X118780000Y-90956259D01*
X119980000Y-90956259D01*
X120148480Y-90922746D01*
X120291310Y-90827310D01*
X120386746Y-90684480D01*
X120403192Y-90601800D01*
X120707741Y-90601800D01*
X120707741Y-91070000D01*
X120741254Y-91238480D01*
X120836690Y-91381310D01*
X120979520Y-91476746D01*
X121148000Y-91510259D01*
X122648000Y-91510259D01*
X122816480Y-91476746D01*
X122959310Y-91381310D01*
X123054746Y-91238480D01*
X123088259Y-91070000D01*
X123088259Y-89270000D01*
X123063135Y-89143690D01*
X124113000Y-89143690D01*
X124113000Y-89884250D01*
X124271750Y-90043000D01*
X125371000Y-90043000D01*
X125371000Y-88793750D01*
X125212250Y-88635000D01*
X124621691Y-88635000D01*
X124388302Y-88731673D01*
X124209673Y-88910301D01*
X124113000Y-89143690D01*
X123063135Y-89143690D01*
X123054746Y-89101520D01*
X122959310Y-88958690D01*
X122816480Y-88863254D01*
X122648000Y-88829741D01*
X121148000Y-88829741D01*
X120979520Y-88863254D01*
X120836690Y-88958690D01*
X120741254Y-89101520D01*
X120715658Y-89230200D01*
X120403192Y-89230200D01*
X120386746Y-89147520D01*
X120291310Y-89004690D01*
X120148480Y-88909254D01*
X119980000Y-88875741D01*
X118780000Y-88875741D01*
X118611520Y-88909254D01*
X118468690Y-89004690D01*
X118380800Y-89136227D01*
X118380800Y-88011488D01*
X118407254Y-88144480D01*
X118502690Y-88287310D01*
X118645520Y-88382746D01*
X118814000Y-88416259D01*
X120014000Y-88416259D01*
X120182480Y-88382746D01*
X120325310Y-88287310D01*
X120420746Y-88144480D01*
X120437192Y-88061800D01*
X121082808Y-88061800D01*
X121099254Y-88144480D01*
X121194690Y-88287310D01*
X121337520Y-88382746D01*
X121506000Y-88416259D01*
X122706000Y-88416259D01*
X122874480Y-88382746D01*
X123017310Y-88287310D01*
X123036027Y-88259298D01*
X123067673Y-88335699D01*
X123246302Y-88514327D01*
X123479691Y-88611000D01*
X123920250Y-88611000D01*
X124079000Y-88452250D01*
X124079000Y-87503000D01*
X124333000Y-87503000D01*
X124333000Y-88452250D01*
X124491750Y-88611000D01*
X124932309Y-88611000D01*
X125165698Y-88514327D01*
X125344327Y-88335699D01*
X125441000Y-88102310D01*
X125441000Y-87661750D01*
X125282250Y-87503000D01*
X124333000Y-87503000D01*
X124079000Y-87503000D01*
X124059000Y-87503000D01*
X124059000Y-87249000D01*
X124079000Y-87249000D01*
X124079000Y-86299750D01*
X124333000Y-86299750D01*
X124333000Y-87249000D01*
X125282250Y-87249000D01*
X125441000Y-87090250D01*
X125441000Y-86649690D01*
X125344327Y-86416301D01*
X125165698Y-86237673D01*
X124932309Y-86141000D01*
X124491750Y-86141000D01*
X124333000Y-86299750D01*
X124079000Y-86299750D01*
X123920250Y-86141000D01*
X123479691Y-86141000D01*
X123246302Y-86237673D01*
X123067673Y-86416301D01*
X123036027Y-86492702D01*
X123017310Y-86464690D01*
X122979102Y-86439160D01*
X123390861Y-86027401D01*
X126796338Y-86027401D01*
X126643789Y-86179950D01*
X126643789Y-86179950D01*
G37*
X126643789Y-86179950D02*
X126597128Y-86211128D01*
X126511774Y-86338870D01*
X126473622Y-86395968D01*
X126430253Y-86614000D01*
X126441200Y-86669035D01*
X126441200Y-88662707D01*
X126374309Y-88635000D01*
X125783750Y-88635000D01*
X125625000Y-88793750D01*
X125625000Y-90043000D01*
X125645000Y-90043000D01*
X125645000Y-90297000D01*
X125625000Y-90297000D01*
X125625000Y-90317000D01*
X125371000Y-90317000D01*
X125371000Y-90297000D01*
X124271750Y-90297000D01*
X124113000Y-90455750D01*
X124113000Y-91196310D01*
X124209673Y-91429699D01*
X124388302Y-91608327D01*
X124621691Y-91705000D01*
X125212250Y-91705000D01*
X125370998Y-91546252D01*
X125370998Y-91568223D01*
X124915021Y-92024200D01*
X124288947Y-92024200D01*
X124179740Y-91860760D01*
X123965942Y-91717905D01*
X123713750Y-91667741D01*
X123276250Y-91667741D01*
X123024058Y-91717905D01*
X122810260Y-91860760D01*
X122707500Y-92014551D01*
X122604740Y-91860760D01*
X122390942Y-91717905D01*
X122138750Y-91667741D01*
X121701250Y-91667741D01*
X121449058Y-91717905D01*
X121370793Y-91770200D01*
X120403192Y-91770200D01*
X120386746Y-91687520D01*
X120291310Y-91544690D01*
X120148480Y-91449254D01*
X119980000Y-91415741D01*
X118780000Y-91415741D01*
X118611520Y-91449254D01*
X118468690Y-91544690D01*
X118373254Y-91687520D01*
X118346800Y-91820512D01*
X118346800Y-90551488D01*
X118373254Y-90684480D01*
X118468690Y-90827310D01*
X118611520Y-90922746D01*
X118780000Y-90956259D01*
X119980000Y-90956259D01*
X120148480Y-90922746D01*
X120291310Y-90827310D01*
X120386746Y-90684480D01*
X120403192Y-90601800D01*
X120707741Y-90601800D01*
X120707741Y-91070000D01*
X120741254Y-91238480D01*
X120836690Y-91381310D01*
X120979520Y-91476746D01*
X121148000Y-91510259D01*
X122648000Y-91510259D01*
X122816480Y-91476746D01*
X122959310Y-91381310D01*
X123054746Y-91238480D01*
X123088259Y-91070000D01*
X123088259Y-89270000D01*
X123063135Y-89143690D01*
X124113000Y-89143690D01*
X124113000Y-89884250D01*
X124271750Y-90043000D01*
X125371000Y-90043000D01*
X125371000Y-88793750D01*
X125212250Y-88635000D01*
X124621691Y-88635000D01*
X124388302Y-88731673D01*
X124209673Y-88910301D01*
X124113000Y-89143690D01*
X123063135Y-89143690D01*
X123054746Y-89101520D01*
X122959310Y-88958690D01*
X122816480Y-88863254D01*
X122648000Y-88829741D01*
X121148000Y-88829741D01*
X120979520Y-88863254D01*
X120836690Y-88958690D01*
X120741254Y-89101520D01*
X120715658Y-89230200D01*
X120403192Y-89230200D01*
X120386746Y-89147520D01*
X120291310Y-89004690D01*
X120148480Y-88909254D01*
X119980000Y-88875741D01*
X118780000Y-88875741D01*
X118611520Y-88909254D01*
X118468690Y-89004690D01*
X118380800Y-89136227D01*
X118380800Y-88011488D01*
X118407254Y-88144480D01*
X118502690Y-88287310D01*
X118645520Y-88382746D01*
X118814000Y-88416259D01*
X120014000Y-88416259D01*
X120182480Y-88382746D01*
X120325310Y-88287310D01*
X120420746Y-88144480D01*
X120437192Y-88061800D01*
X121082808Y-88061800D01*
X121099254Y-88144480D01*
X121194690Y-88287310D01*
X121337520Y-88382746D01*
X121506000Y-88416259D01*
X122706000Y-88416259D01*
X122874480Y-88382746D01*
X123017310Y-88287310D01*
X123036027Y-88259298D01*
X123067673Y-88335699D01*
X123246302Y-88514327D01*
X123479691Y-88611000D01*
X123920250Y-88611000D01*
X124079000Y-88452250D01*
X124079000Y-87503000D01*
X124333000Y-87503000D01*
X124333000Y-88452250D01*
X124491750Y-88611000D01*
X124932309Y-88611000D01*
X125165698Y-88514327D01*
X125344327Y-88335699D01*
X125441000Y-88102310D01*
X125441000Y-87661750D01*
X125282250Y-87503000D01*
X124333000Y-87503000D01*
X124079000Y-87503000D01*
X124059000Y-87503000D01*
X124059000Y-87249000D01*
X124079000Y-87249000D01*
X124079000Y-86299750D01*
X124333000Y-86299750D01*
X124333000Y-87249000D01*
X125282250Y-87249000D01*
X125441000Y-87090250D01*
X125441000Y-86649690D01*
X125344327Y-86416301D01*
X125165698Y-86237673D01*
X124932309Y-86141000D01*
X124491750Y-86141000D01*
X124333000Y-86299750D01*
X124079000Y-86299750D01*
X123920250Y-86141000D01*
X123479691Y-86141000D01*
X123246302Y-86237673D01*
X123067673Y-86416301D01*
X123036027Y-86492702D01*
X123017310Y-86464690D01*
X122979102Y-86439160D01*
X123390861Y-86027401D01*
X126796338Y-86027401D01*
X126643789Y-86179950D01*
G36*
X138811046Y-87118569D02*
X138819397Y-87167413D01*
X138845804Y-87209344D01*
X138886247Y-87237977D01*
X138938000Y-87249000D01*
X138973000Y-87249000D01*
X138973000Y-87412250D01*
X139131750Y-87571000D01*
X140081000Y-87571000D01*
X140081000Y-87551000D01*
X140335000Y-87551000D01*
X140335000Y-87571000D01*
X140355000Y-87571000D01*
X140355000Y-87825000D01*
X140335000Y-87825000D01*
X140335000Y-88774250D01*
X140493750Y-88933000D01*
X140934310Y-88933000D01*
X141167699Y-88836327D01*
X141346327Y-88657698D01*
X141427201Y-88462452D01*
X141427201Y-89220117D01*
X141413576Y-89233741D01*
X140832000Y-89233741D01*
X140663520Y-89267254D01*
X140520690Y-89362690D01*
X140425254Y-89505520D01*
X140416980Y-89547114D01*
X139802867Y-88933000D01*
X139922250Y-88933000D01*
X140081000Y-88774250D01*
X140081000Y-87825000D01*
X139131750Y-87825000D01*
X138973000Y-87983750D01*
X138973000Y-88103134D01*
X138708259Y-87838393D01*
X138708259Y-87098000D01*
X138674746Y-86929520D01*
X138579310Y-86786690D01*
X138436480Y-86691254D01*
X138268000Y-86657741D01*
X137418003Y-86657741D01*
X137398521Y-86638259D01*
X138268000Y-86638259D01*
X138436480Y-86604746D01*
X138579310Y-86509310D01*
X138674746Y-86366480D01*
X138691192Y-86283800D01*
X138833607Y-86283800D01*
X138811046Y-87118569D01*
X138811046Y-87118569D01*
G37*
X138811046Y-87118569D02*
X138819397Y-87167413D01*
X138845804Y-87209344D01*
X138886247Y-87237977D01*
X138938000Y-87249000D01*
X138973000Y-87249000D01*
X138973000Y-87412250D01*
X139131750Y-87571000D01*
X140081000Y-87571000D01*
X140081000Y-87551000D01*
X140335000Y-87551000D01*
X140335000Y-87571000D01*
X140355000Y-87571000D01*
X140355000Y-87825000D01*
X140335000Y-87825000D01*
X140335000Y-88774250D01*
X140493750Y-88933000D01*
X140934310Y-88933000D01*
X141167699Y-88836327D01*
X141346327Y-88657698D01*
X141427201Y-88462452D01*
X141427201Y-89220117D01*
X141413576Y-89233741D01*
X140832000Y-89233741D01*
X140663520Y-89267254D01*
X140520690Y-89362690D01*
X140425254Y-89505520D01*
X140416980Y-89547114D01*
X139802867Y-88933000D01*
X139922250Y-88933000D01*
X140081000Y-88774250D01*
X140081000Y-87825000D01*
X139131750Y-87825000D01*
X138973000Y-87983750D01*
X138973000Y-88103134D01*
X138708259Y-87838393D01*
X138708259Y-87098000D01*
X138674746Y-86929520D01*
X138579310Y-86786690D01*
X138436480Y-86691254D01*
X138268000Y-86657741D01*
X137418003Y-86657741D01*
X137398521Y-86638259D01*
X138268000Y-86638259D01*
X138436480Y-86604746D01*
X138579310Y-86509310D01*
X138674746Y-86366480D01*
X138691192Y-86283800D01*
X138833607Y-86283800D01*
X138811046Y-87118569D01*
G36*
X138371000Y-82677000D02*
X138391000Y-82677000D01*
X138391000Y-82931000D01*
X138371000Y-82931000D01*
X138371000Y-83880250D01*
X138529750Y-84039000D01*
X138894278Y-84039000D01*
X138870678Y-84912200D01*
X138691192Y-84912200D01*
X138674746Y-84829520D01*
X138579310Y-84686690D01*
X138436480Y-84591254D01*
X138268000Y-84557741D01*
X137068000Y-84557741D01*
X136899520Y-84591254D01*
X136756690Y-84686690D01*
X136693540Y-84781200D01*
X135807510Y-84781200D01*
X135864873Y-84742871D01*
X135896051Y-84696210D01*
X136500214Y-84092048D01*
X136546872Y-84060872D01*
X136670378Y-83876033D01*
X136676698Y-83844259D01*
X136744000Y-83844259D01*
X136912480Y-83810746D01*
X137055310Y-83715310D01*
X137074027Y-83687298D01*
X137105673Y-83763699D01*
X137284302Y-83942327D01*
X137517691Y-84039000D01*
X137958250Y-84039000D01*
X138117000Y-83880250D01*
X138117000Y-82931000D01*
X138097000Y-82931000D01*
X138097000Y-82677000D01*
X138117000Y-82677000D01*
X138117000Y-82657000D01*
X138371000Y-82657000D01*
X138371000Y-82677000D01*
X138371000Y-82677000D01*
G37*
X138371000Y-82677000D02*
X138391000Y-82677000D01*
X138391000Y-82931000D01*
X138371000Y-82931000D01*
X138371000Y-83880250D01*
X138529750Y-84039000D01*
X138894278Y-84039000D01*
X138870678Y-84912200D01*
X138691192Y-84912200D01*
X138674746Y-84829520D01*
X138579310Y-84686690D01*
X138436480Y-84591254D01*
X138268000Y-84557741D01*
X137068000Y-84557741D01*
X136899520Y-84591254D01*
X136756690Y-84686690D01*
X136693540Y-84781200D01*
X135807510Y-84781200D01*
X135864873Y-84742871D01*
X135896051Y-84696210D01*
X136500214Y-84092048D01*
X136546872Y-84060872D01*
X136670378Y-83876033D01*
X136676698Y-83844259D01*
X136744000Y-83844259D01*
X136912480Y-83810746D01*
X137055310Y-83715310D01*
X137074027Y-83687298D01*
X137105673Y-83763699D01*
X137284302Y-83942327D01*
X137517691Y-84039000D01*
X137958250Y-84039000D01*
X138117000Y-83880250D01*
X138117000Y-82931000D01*
X138097000Y-82931000D01*
X138097000Y-82677000D01*
X138117000Y-82677000D01*
X138117000Y-82657000D01*
X138371000Y-82657000D01*
X138371000Y-82677000D01*
G36*
X138961034Y-81569000D02*
X138794835Y-81569000D01*
X138821310Y-81551310D01*
X138916746Y-81408480D01*
X138950259Y-81240000D01*
X138950259Y-80862203D01*
X138964621Y-80790000D01*
X138950259Y-80717797D01*
X138950259Y-80340000D01*
X138916746Y-80171520D01*
X138821310Y-80028690D01*
X138678480Y-79933254D01*
X138510000Y-79899741D01*
X137710000Y-79899741D01*
X137541520Y-79933254D01*
X137513764Y-79951800D01*
X136806236Y-79951800D01*
X136778480Y-79933254D01*
X136610000Y-79899741D01*
X135810000Y-79899741D01*
X135641520Y-79933254D01*
X135498690Y-80028690D01*
X135403254Y-80171520D01*
X135369741Y-80340000D01*
X135369741Y-80717797D01*
X135355379Y-80790000D01*
X135369741Y-80862203D01*
X135369741Y-81240000D01*
X135403254Y-81408480D01*
X135498690Y-81551310D01*
X135524200Y-81568356D01*
X135524200Y-81767679D01*
X135375520Y-81797254D01*
X135232690Y-81892690D01*
X135137254Y-82035520D01*
X135103741Y-82204000D01*
X135103741Y-83404000D01*
X135137254Y-83572480D01*
X135232690Y-83715310D01*
X135270899Y-83740840D01*
X135230540Y-83781199D01*
X132813883Y-83781199D01*
X132706002Y-83759740D01*
X131971421Y-83759740D01*
X131937310Y-83708690D01*
X131886448Y-83674705D01*
X131886448Y-83290000D01*
X132436214Y-82740235D01*
X132482872Y-82709059D01*
X132606378Y-82524220D01*
X132638800Y-82361222D01*
X132638800Y-82361221D01*
X132649747Y-82306188D01*
X132638800Y-82251153D01*
X132638800Y-81534563D01*
X132748480Y-81512746D01*
X132891310Y-81417310D01*
X132986746Y-81274480D01*
X133020259Y-81106000D01*
X133020259Y-80306000D01*
X132986746Y-80137520D01*
X132922755Y-80041750D01*
X133045000Y-80041750D01*
X133045000Y-80282310D01*
X133141673Y-80515699D01*
X133320302Y-80694327D01*
X133553691Y-80791000D01*
X133844250Y-80791000D01*
X134003000Y-80632250D01*
X134003000Y-79883000D01*
X134257000Y-79883000D01*
X134257000Y-80632250D01*
X134415750Y-80791000D01*
X134706309Y-80791000D01*
X134939698Y-80694327D01*
X135118327Y-80515699D01*
X135215000Y-80282310D01*
X135215000Y-80041750D01*
X135056250Y-79883000D01*
X134257000Y-79883000D01*
X134003000Y-79883000D01*
X133203750Y-79883000D01*
X133045000Y-80041750D01*
X132922755Y-80041750D01*
X132891310Y-79994690D01*
X132748480Y-79899254D01*
X132580000Y-79865741D01*
X131760199Y-79865741D01*
X131760199Y-79745667D01*
X131859607Y-79646259D01*
X132007802Y-79646259D01*
X132080000Y-79660620D01*
X132152198Y-79646259D01*
X132580000Y-79646259D01*
X132590351Y-79644200D01*
X136587710Y-79644200D01*
X136591520Y-79646746D01*
X136760000Y-79680259D01*
X137560000Y-79680259D01*
X137728480Y-79646746D01*
X137871310Y-79551310D01*
X137966746Y-79408480D01*
X138000259Y-79240000D01*
X138000259Y-78812199D01*
X138014620Y-78740001D01*
X138000259Y-78667803D01*
X138000259Y-78340000D01*
X137966746Y-78171520D01*
X137871310Y-78028690D01*
X137728480Y-77933254D01*
X137560000Y-77899741D01*
X137232197Y-77899741D01*
X137159999Y-77885380D01*
X137087801Y-77899741D01*
X136760000Y-77899741D01*
X136591520Y-77933254D01*
X136539818Y-77967800D01*
X132952200Y-77967800D01*
X132952200Y-77851000D01*
X139061521Y-77851000D01*
X138961034Y-81569000D01*
X138961034Y-81569000D01*
G37*
X138961034Y-81569000D02*
X138794835Y-81569000D01*
X138821310Y-81551310D01*
X138916746Y-81408480D01*
X138950259Y-81240000D01*
X138950259Y-80862203D01*
X138964621Y-80790000D01*
X138950259Y-80717797D01*
X138950259Y-80340000D01*
X138916746Y-80171520D01*
X138821310Y-80028690D01*
X138678480Y-79933254D01*
X138510000Y-79899741D01*
X137710000Y-79899741D01*
X137541520Y-79933254D01*
X137513764Y-79951800D01*
X136806236Y-79951800D01*
X136778480Y-79933254D01*
X136610000Y-79899741D01*
X135810000Y-79899741D01*
X135641520Y-79933254D01*
X135498690Y-80028690D01*
X135403254Y-80171520D01*
X135369741Y-80340000D01*
X135369741Y-80717797D01*
X135355379Y-80790000D01*
X135369741Y-80862203D01*
X135369741Y-81240000D01*
X135403254Y-81408480D01*
X135498690Y-81551310D01*
X135524200Y-81568356D01*
X135524200Y-81767679D01*
X135375520Y-81797254D01*
X135232690Y-81892690D01*
X135137254Y-82035520D01*
X135103741Y-82204000D01*
X135103741Y-83404000D01*
X135137254Y-83572480D01*
X135232690Y-83715310D01*
X135270899Y-83740840D01*
X135230540Y-83781199D01*
X132813883Y-83781199D01*
X132706002Y-83759740D01*
X131971421Y-83759740D01*
X131937310Y-83708690D01*
X131886448Y-83674705D01*
X131886448Y-83290000D01*
X132436214Y-82740235D01*
X132482872Y-82709059D01*
X132606378Y-82524220D01*
X132638800Y-82361222D01*
X132638800Y-82361221D01*
X132649747Y-82306188D01*
X132638800Y-82251153D01*
X132638800Y-81534563D01*
X132748480Y-81512746D01*
X132891310Y-81417310D01*
X132986746Y-81274480D01*
X133020259Y-81106000D01*
X133020259Y-80306000D01*
X132986746Y-80137520D01*
X132922755Y-80041750D01*
X133045000Y-80041750D01*
X133045000Y-80282310D01*
X133141673Y-80515699D01*
X133320302Y-80694327D01*
X133553691Y-80791000D01*
X133844250Y-80791000D01*
X134003000Y-80632250D01*
X134003000Y-79883000D01*
X134257000Y-79883000D01*
X134257000Y-80632250D01*
X134415750Y-80791000D01*
X134706309Y-80791000D01*
X134939698Y-80694327D01*
X135118327Y-80515699D01*
X135215000Y-80282310D01*
X135215000Y-80041750D01*
X135056250Y-79883000D01*
X134257000Y-79883000D01*
X134003000Y-79883000D01*
X133203750Y-79883000D01*
X133045000Y-80041750D01*
X132922755Y-80041750D01*
X132891310Y-79994690D01*
X132748480Y-79899254D01*
X132580000Y-79865741D01*
X131760199Y-79865741D01*
X131760199Y-79745667D01*
X131859607Y-79646259D01*
X132007802Y-79646259D01*
X132080000Y-79660620D01*
X132152198Y-79646259D01*
X132580000Y-79646259D01*
X132590351Y-79644200D01*
X136587710Y-79644200D01*
X136591520Y-79646746D01*
X136760000Y-79680259D01*
X137560000Y-79680259D01*
X137728480Y-79646746D01*
X137871310Y-79551310D01*
X137966746Y-79408480D01*
X138000259Y-79240000D01*
X138000259Y-78812199D01*
X138014620Y-78740001D01*
X138000259Y-78667803D01*
X138000259Y-78340000D01*
X137966746Y-78171520D01*
X137871310Y-78028690D01*
X137728480Y-77933254D01*
X137560000Y-77899741D01*
X137232197Y-77899741D01*
X137159999Y-77885380D01*
X137087801Y-77899741D01*
X136760000Y-77899741D01*
X136591520Y-77933254D01*
X136539818Y-77967800D01*
X132952200Y-77967800D01*
X132952200Y-77851000D01*
X139061521Y-77851000D01*
X138961034Y-81569000D01*
G36*
X127265366Y-75107049D02*
X127324881Y-75196119D01*
X127413950Y-75255633D01*
X127413951Y-75255634D01*
X127431349Y-75267259D01*
X127677756Y-75431903D01*
X127988934Y-75493800D01*
X127988938Y-75493800D01*
X128094000Y-75514698D01*
X128199062Y-75493800D01*
X128397000Y-75493800D01*
X128397000Y-77638703D01*
X128362000Y-77631741D01*
X127162000Y-77631741D01*
X126993520Y-77665254D01*
X126905000Y-77724401D01*
X126905000Y-76993750D01*
X126746250Y-76835000D01*
X125647000Y-76835000D01*
X125647000Y-79121000D01*
X125667000Y-79121000D01*
X125667000Y-79375000D01*
X125647000Y-79375000D01*
X125647000Y-80624250D01*
X125805750Y-80783000D01*
X126396309Y-80783000D01*
X126629698Y-80686327D01*
X126721741Y-80594285D01*
X126721741Y-81251063D01*
X126641310Y-81130690D01*
X126498480Y-81035254D01*
X126330000Y-81001741D01*
X125130000Y-81001741D01*
X124961520Y-81035254D01*
X124818690Y-81130690D01*
X124799973Y-81158702D01*
X124768327Y-81082301D01*
X124589698Y-80903673D01*
X124356309Y-80807000D01*
X123915750Y-80807000D01*
X123757000Y-80965750D01*
X123757000Y-81915000D01*
X123777000Y-81915000D01*
X123777000Y-82169000D01*
X123757000Y-82169000D01*
X123757000Y-82189000D01*
X123503000Y-82189000D01*
X123503000Y-82169000D01*
X122553750Y-82169000D01*
X122395000Y-82327750D01*
X122395000Y-82768310D01*
X122491673Y-83001699D01*
X122670302Y-83180327D01*
X122865546Y-83261200D01*
X120266383Y-83261200D01*
X120226659Y-83221476D01*
X120226659Y-82450023D01*
X121360992Y-81315690D01*
X122395000Y-81315690D01*
X122395000Y-81756250D01*
X122553750Y-81915000D01*
X123503000Y-81915000D01*
X123503000Y-80965750D01*
X123344250Y-80807000D01*
X122903691Y-80807000D01*
X122670302Y-80903673D01*
X122491673Y-81082301D01*
X122395000Y-81315690D01*
X121360992Y-81315690D01*
X122088424Y-80588259D01*
X122670000Y-80588259D01*
X122838480Y-80554746D01*
X122981310Y-80459310D01*
X123076746Y-80316480D01*
X123110259Y-80148000D01*
X123110259Y-79533750D01*
X124135000Y-79533750D01*
X124135000Y-80274310D01*
X124231673Y-80507699D01*
X124410302Y-80686327D01*
X124643691Y-80783000D01*
X125234250Y-80783000D01*
X125393000Y-80624250D01*
X125393000Y-79375000D01*
X124293750Y-79375000D01*
X124135000Y-79533750D01*
X123110259Y-79533750D01*
X123110259Y-78348000D01*
X123076746Y-78179520D01*
X122986800Y-78044906D01*
X122986800Y-77911094D01*
X123076746Y-77776480D01*
X123110259Y-77608000D01*
X123110259Y-76993750D01*
X124135000Y-76993750D01*
X124135000Y-77734310D01*
X124231673Y-77967699D01*
X124241974Y-77978000D01*
X124231673Y-77988301D01*
X124135000Y-78221690D01*
X124135000Y-78962250D01*
X124293750Y-79121000D01*
X125393000Y-79121000D01*
X125393000Y-76835000D01*
X124293750Y-76835000D01*
X124135000Y-76993750D01*
X123110259Y-76993750D01*
X123110259Y-76073000D01*
X123190000Y-76073000D01*
X123238601Y-76063333D01*
X123279803Y-76035803D01*
X123307333Y-75994601D01*
X123317000Y-75946000D01*
X123317000Y-75116417D01*
X123321673Y-75127699D01*
X123500302Y-75306327D01*
X123733691Y-75403000D01*
X124174250Y-75403000D01*
X124332998Y-75244252D01*
X124332998Y-75346977D01*
X124231673Y-75448301D01*
X124135000Y-75681690D01*
X124135000Y-76422250D01*
X124293750Y-76581000D01*
X125393000Y-76581000D01*
X125393000Y-76561000D01*
X125647000Y-76561000D01*
X125647000Y-76581000D01*
X126746250Y-76581000D01*
X126905000Y-76422250D01*
X126905000Y-75681690D01*
X126808327Y-75448301D01*
X126629698Y-75269673D01*
X126396309Y-75173000D01*
X125805750Y-75173000D01*
X125647002Y-75331748D01*
X125647002Y-75173000D01*
X125553026Y-75173000D01*
X125598327Y-75127699D01*
X125695000Y-74894310D01*
X125695000Y-74453750D01*
X125536250Y-74295000D01*
X124587000Y-74295000D01*
X124587000Y-74315000D01*
X124333000Y-74315000D01*
X124333000Y-74295000D01*
X124313000Y-74295000D01*
X124313000Y-74041000D01*
X124333000Y-74041000D01*
X124333000Y-74021000D01*
X124587000Y-74021000D01*
X124587000Y-74041000D01*
X125536250Y-74041000D01*
X125679051Y-73898199D01*
X126056517Y-73898199D01*
X127265366Y-75107049D01*
X127265366Y-75107049D01*
G37*
X127265366Y-75107049D02*
X127324881Y-75196119D01*
X127413950Y-75255633D01*
X127413951Y-75255634D01*
X127431349Y-75267259D01*
X127677756Y-75431903D01*
X127988934Y-75493800D01*
X127988938Y-75493800D01*
X128094000Y-75514698D01*
X128199062Y-75493800D01*
X128397000Y-75493800D01*
X128397000Y-77638703D01*
X128362000Y-77631741D01*
X127162000Y-77631741D01*
X126993520Y-77665254D01*
X126905000Y-77724401D01*
X126905000Y-76993750D01*
X126746250Y-76835000D01*
X125647000Y-76835000D01*
X125647000Y-79121000D01*
X125667000Y-79121000D01*
X125667000Y-79375000D01*
X125647000Y-79375000D01*
X125647000Y-80624250D01*
X125805750Y-80783000D01*
X126396309Y-80783000D01*
X126629698Y-80686327D01*
X126721741Y-80594285D01*
X126721741Y-81251063D01*
X126641310Y-81130690D01*
X126498480Y-81035254D01*
X126330000Y-81001741D01*
X125130000Y-81001741D01*
X124961520Y-81035254D01*
X124818690Y-81130690D01*
X124799973Y-81158702D01*
X124768327Y-81082301D01*
X124589698Y-80903673D01*
X124356309Y-80807000D01*
X123915750Y-80807000D01*
X123757000Y-80965750D01*
X123757000Y-81915000D01*
X123777000Y-81915000D01*
X123777000Y-82169000D01*
X123757000Y-82169000D01*
X123757000Y-82189000D01*
X123503000Y-82189000D01*
X123503000Y-82169000D01*
X122553750Y-82169000D01*
X122395000Y-82327750D01*
X122395000Y-82768310D01*
X122491673Y-83001699D01*
X122670302Y-83180327D01*
X122865546Y-83261200D01*
X120266383Y-83261200D01*
X120226659Y-83221476D01*
X120226659Y-82450023D01*
X121360992Y-81315690D01*
X122395000Y-81315690D01*
X122395000Y-81756250D01*
X122553750Y-81915000D01*
X123503000Y-81915000D01*
X123503000Y-80965750D01*
X123344250Y-80807000D01*
X122903691Y-80807000D01*
X122670302Y-80903673D01*
X122491673Y-81082301D01*
X122395000Y-81315690D01*
X121360992Y-81315690D01*
X122088424Y-80588259D01*
X122670000Y-80588259D01*
X122838480Y-80554746D01*
X122981310Y-80459310D01*
X123076746Y-80316480D01*
X123110259Y-80148000D01*
X123110259Y-79533750D01*
X124135000Y-79533750D01*
X124135000Y-80274310D01*
X124231673Y-80507699D01*
X124410302Y-80686327D01*
X124643691Y-80783000D01*
X125234250Y-80783000D01*
X125393000Y-80624250D01*
X125393000Y-79375000D01*
X124293750Y-79375000D01*
X124135000Y-79533750D01*
X123110259Y-79533750D01*
X123110259Y-78348000D01*
X123076746Y-78179520D01*
X122986800Y-78044906D01*
X122986800Y-77911094D01*
X123076746Y-77776480D01*
X123110259Y-77608000D01*
X123110259Y-76993750D01*
X124135000Y-76993750D01*
X124135000Y-77734310D01*
X124231673Y-77967699D01*
X124241974Y-77978000D01*
X124231673Y-77988301D01*
X124135000Y-78221690D01*
X124135000Y-78962250D01*
X124293750Y-79121000D01*
X125393000Y-79121000D01*
X125393000Y-76835000D01*
X124293750Y-76835000D01*
X124135000Y-76993750D01*
X123110259Y-76993750D01*
X123110259Y-76073000D01*
X123190000Y-76073000D01*
X123238601Y-76063333D01*
X123279803Y-76035803D01*
X123307333Y-75994601D01*
X123317000Y-75946000D01*
X123317000Y-75116417D01*
X123321673Y-75127699D01*
X123500302Y-75306327D01*
X123733691Y-75403000D01*
X124174250Y-75403000D01*
X124332998Y-75244252D01*
X124332998Y-75346977D01*
X124231673Y-75448301D01*
X124135000Y-75681690D01*
X124135000Y-76422250D01*
X124293750Y-76581000D01*
X125393000Y-76581000D01*
X125393000Y-76561000D01*
X125647000Y-76561000D01*
X125647000Y-76581000D01*
X126746250Y-76581000D01*
X126905000Y-76422250D01*
X126905000Y-75681690D01*
X126808327Y-75448301D01*
X126629698Y-75269673D01*
X126396309Y-75173000D01*
X125805750Y-75173000D01*
X125647002Y-75331748D01*
X125647002Y-75173000D01*
X125553026Y-75173000D01*
X125598327Y-75127699D01*
X125695000Y-74894310D01*
X125695000Y-74453750D01*
X125536250Y-74295000D01*
X124587000Y-74295000D01*
X124587000Y-74315000D01*
X124333000Y-74315000D01*
X124333000Y-74295000D01*
X124313000Y-74295000D01*
X124313000Y-74041000D01*
X124333000Y-74041000D01*
X124333000Y-74021000D01*
X124587000Y-74021000D01*
X124587000Y-74041000D01*
X125536250Y-74041000D01*
X125679051Y-73898199D01*
X126056517Y-73898199D01*
X127265366Y-75107049D01*
G04 #@! TO.N,SRN*
G36*
X149639205Y-68126868D02*
X148898868Y-68867205D01*
X148498200Y-69834502D01*
X148498200Y-70881498D01*
X148898868Y-71848795D01*
X149639205Y-72589132D01*
X150606502Y-72989800D01*
X151653498Y-72989800D01*
X152620795Y-72589132D01*
X153361132Y-71848795D01*
X153761800Y-70881498D01*
X153761800Y-69834502D01*
X153361132Y-68867205D01*
X152620795Y-68126868D01*
X151721820Y-67754500D01*
X153860500Y-67754500D01*
X153860500Y-82677000D01*
X151568000Y-82677000D01*
X151568000Y-81819750D01*
X151409250Y-81661000D01*
X149860000Y-81661000D01*
X149860000Y-81681000D01*
X149606000Y-81681000D01*
X149606000Y-81661000D01*
X148056750Y-81661000D01*
X147898000Y-81819750D01*
X147898000Y-82860309D01*
X147994673Y-83093698D01*
X148173301Y-83272327D01*
X148209000Y-83287114D01*
X148209000Y-84449163D01*
X148101200Y-84709415D01*
X148101200Y-85358585D01*
X148209000Y-85618837D01*
X148209000Y-89696388D01*
X148046310Y-89629000D01*
X147605750Y-89629000D01*
X147447000Y-89787750D01*
X147447000Y-90737000D01*
X147467000Y-90737000D01*
X147467000Y-90805000D01*
X147173000Y-90805000D01*
X147173000Y-90737000D01*
X147193000Y-90737000D01*
X147193000Y-89787750D01*
X147034250Y-89629000D01*
X146593690Y-89629000D01*
X146360301Y-89725673D01*
X146315000Y-89770974D01*
X146315000Y-89547691D01*
X146218327Y-89314302D01*
X146039699Y-89135673D01*
X145806310Y-89039000D01*
X145065750Y-89039000D01*
X144907000Y-89197750D01*
X144907000Y-90297000D01*
X144927000Y-90297000D01*
X144927000Y-90551000D01*
X144907000Y-90551000D01*
X144907000Y-90571000D01*
X144653000Y-90571000D01*
X144653000Y-90551000D01*
X143403750Y-90551000D01*
X143256000Y-90698750D01*
X143108250Y-90551000D01*
X142609849Y-90551000D01*
X142602379Y-90297000D01*
X143108250Y-90297000D01*
X143256000Y-90149250D01*
X143403750Y-90297000D01*
X144653000Y-90297000D01*
X144653000Y-89197750D01*
X144494250Y-89039000D01*
X143753690Y-89039000D01*
X143520301Y-89135673D01*
X143341673Y-89314302D01*
X143256000Y-89521135D01*
X143170327Y-89314302D01*
X142991699Y-89135673D01*
X142758310Y-89039000D01*
X142565379Y-89039000D01*
X142409437Y-83737000D01*
X142621000Y-83737000D01*
X142621000Y-84836250D01*
X142779750Y-84995000D01*
X143520310Y-84995000D01*
X143753699Y-84898327D01*
X143932327Y-84719698D01*
X144029000Y-84486309D01*
X144029000Y-83895750D01*
X143870250Y-83737000D01*
X142621000Y-83737000D01*
X142409437Y-83737000D01*
X142401378Y-83463000D01*
X142621000Y-83463000D01*
X142621000Y-83483000D01*
X143870250Y-83483000D01*
X144029000Y-83324250D01*
X144029000Y-82733691D01*
X143932327Y-82500302D01*
X143855025Y-82423000D01*
X145288000Y-82423000D01*
X145336601Y-82413333D01*
X145377803Y-82385803D01*
X145405333Y-82344601D01*
X145415000Y-82296000D01*
X145415000Y-80207691D01*
X147898000Y-80207691D01*
X147898000Y-81248250D01*
X148056750Y-81407000D01*
X149606000Y-81407000D01*
X149606000Y-79857750D01*
X149860000Y-79857750D01*
X149860000Y-81407000D01*
X151409250Y-81407000D01*
X151568000Y-81248250D01*
X151568000Y-80207691D01*
X151471327Y-79974302D01*
X151292699Y-79795673D01*
X151059310Y-79699000D01*
X150018750Y-79699000D01*
X149860000Y-79857750D01*
X149606000Y-79857750D01*
X149447250Y-79699000D01*
X148406690Y-79699000D01*
X148173301Y-79795673D01*
X147994673Y-79974302D01*
X147898000Y-80207691D01*
X145415000Y-80207691D01*
X145415000Y-67754500D01*
X150538180Y-67754500D01*
X149639205Y-68126868D01*
X149639205Y-68126868D01*
G37*
X149639205Y-68126868D02*
X148898868Y-68867205D01*
X148498200Y-69834502D01*
X148498200Y-70881498D01*
X148898868Y-71848795D01*
X149639205Y-72589132D01*
X150606502Y-72989800D01*
X151653498Y-72989800D01*
X152620795Y-72589132D01*
X153361132Y-71848795D01*
X153761800Y-70881498D01*
X153761800Y-69834502D01*
X153361132Y-68867205D01*
X152620795Y-68126868D01*
X151721820Y-67754500D01*
X153860500Y-67754500D01*
X153860500Y-82677000D01*
X151568000Y-82677000D01*
X151568000Y-81819750D01*
X151409250Y-81661000D01*
X149860000Y-81661000D01*
X149860000Y-81681000D01*
X149606000Y-81681000D01*
X149606000Y-81661000D01*
X148056750Y-81661000D01*
X147898000Y-81819750D01*
X147898000Y-82860309D01*
X147994673Y-83093698D01*
X148173301Y-83272327D01*
X148209000Y-83287114D01*
X148209000Y-84449163D01*
X148101200Y-84709415D01*
X148101200Y-85358585D01*
X148209000Y-85618837D01*
X148209000Y-89696388D01*
X148046310Y-89629000D01*
X147605750Y-89629000D01*
X147447000Y-89787750D01*
X147447000Y-90737000D01*
X147467000Y-90737000D01*
X147467000Y-90805000D01*
X147173000Y-90805000D01*
X147173000Y-90737000D01*
X147193000Y-90737000D01*
X147193000Y-89787750D01*
X147034250Y-89629000D01*
X146593690Y-89629000D01*
X146360301Y-89725673D01*
X146315000Y-89770974D01*
X146315000Y-89547691D01*
X146218327Y-89314302D01*
X146039699Y-89135673D01*
X145806310Y-89039000D01*
X145065750Y-89039000D01*
X144907000Y-89197750D01*
X144907000Y-90297000D01*
X144927000Y-90297000D01*
X144927000Y-90551000D01*
X144907000Y-90551000D01*
X144907000Y-90571000D01*
X144653000Y-90571000D01*
X144653000Y-90551000D01*
X143403750Y-90551000D01*
X143256000Y-90698750D01*
X143108250Y-90551000D01*
X142609849Y-90551000D01*
X142602379Y-90297000D01*
X143108250Y-90297000D01*
X143256000Y-90149250D01*
X143403750Y-90297000D01*
X144653000Y-90297000D01*
X144653000Y-89197750D01*
X144494250Y-89039000D01*
X143753690Y-89039000D01*
X143520301Y-89135673D01*
X143341673Y-89314302D01*
X143256000Y-89521135D01*
X143170327Y-89314302D01*
X142991699Y-89135673D01*
X142758310Y-89039000D01*
X142565379Y-89039000D01*
X142409437Y-83737000D01*
X142621000Y-83737000D01*
X142621000Y-84836250D01*
X142779750Y-84995000D01*
X143520310Y-84995000D01*
X143753699Y-84898327D01*
X143932327Y-84719698D01*
X144029000Y-84486309D01*
X144029000Y-83895750D01*
X143870250Y-83737000D01*
X142621000Y-83737000D01*
X142409437Y-83737000D01*
X142401378Y-83463000D01*
X142621000Y-83463000D01*
X142621000Y-83483000D01*
X143870250Y-83483000D01*
X144029000Y-83324250D01*
X144029000Y-82733691D01*
X143932327Y-82500302D01*
X143855025Y-82423000D01*
X145288000Y-82423000D01*
X145336601Y-82413333D01*
X145377803Y-82385803D01*
X145405333Y-82344601D01*
X145415000Y-82296000D01*
X145415000Y-80207691D01*
X147898000Y-80207691D01*
X147898000Y-81248250D01*
X148056750Y-81407000D01*
X149606000Y-81407000D01*
X149606000Y-79857750D01*
X149860000Y-79857750D01*
X149860000Y-81407000D01*
X151409250Y-81407000D01*
X151568000Y-81248250D01*
X151568000Y-80207691D01*
X151471327Y-79974302D01*
X151292699Y-79795673D01*
X151059310Y-79699000D01*
X150018750Y-79699000D01*
X149860000Y-79857750D01*
X149606000Y-79857750D01*
X149447250Y-79699000D01*
X148406690Y-79699000D01*
X148173301Y-79795673D01*
X147994673Y-79974302D01*
X147898000Y-80207691D01*
X145415000Y-80207691D01*
X145415000Y-67754500D01*
X150538180Y-67754500D01*
X149639205Y-68126868D01*
G04 #@! TO.N,SRP*
G36*
X144399000Y-81407000D02*
X140081000Y-81407000D01*
X140081000Y-80295750D01*
X140959000Y-80295750D01*
X140959000Y-80886309D01*
X141055673Y-81119698D01*
X141234301Y-81298327D01*
X141467690Y-81395000D01*
X142208250Y-81395000D01*
X142367000Y-81236250D01*
X142367000Y-80137000D01*
X142621000Y-80137000D01*
X142621000Y-81236250D01*
X142779750Y-81395000D01*
X143520310Y-81395000D01*
X143753699Y-81298327D01*
X143932327Y-81119698D01*
X144029000Y-80886309D01*
X144029000Y-80295750D01*
X143870250Y-80137000D01*
X142621000Y-80137000D01*
X142367000Y-80137000D01*
X141117750Y-80137000D01*
X140959000Y-80295750D01*
X140081000Y-80295750D01*
X140081000Y-79133691D01*
X140959000Y-79133691D01*
X140959000Y-79724250D01*
X141117750Y-79883000D01*
X142367000Y-79883000D01*
X142367000Y-78783750D01*
X142621000Y-78783750D01*
X142621000Y-79883000D01*
X143870250Y-79883000D01*
X144029000Y-79724250D01*
X144029000Y-79133691D01*
X143932327Y-78900302D01*
X143753699Y-78721673D01*
X143520310Y-78625000D01*
X142779750Y-78625000D01*
X142621000Y-78783750D01*
X142367000Y-78783750D01*
X142208250Y-78625000D01*
X141467690Y-78625000D01*
X141234301Y-78721673D01*
X141055673Y-78900302D01*
X140959000Y-79133691D01*
X140081000Y-79133691D01*
X140081000Y-77533500D01*
X140176250Y-77533500D01*
X140335000Y-77374750D01*
X140335000Y-73279000D01*
X140589000Y-73279000D01*
X140589000Y-77374750D01*
X140747750Y-77533500D01*
X141483659Y-77533500D01*
X141717048Y-77436827D01*
X141895677Y-77258199D01*
X141992350Y-77024810D01*
X141992350Y-73437750D01*
X141833600Y-73279000D01*
X140589000Y-73279000D01*
X140335000Y-73279000D01*
X139090400Y-73279000D01*
X138931650Y-73437750D01*
X138931650Y-77024810D01*
X138958238Y-77089000D01*
X138303000Y-77089000D01*
X138303000Y-69279190D01*
X138931650Y-69279190D01*
X138931650Y-72866250D01*
X139090400Y-73025000D01*
X140335000Y-73025000D01*
X140335000Y-68929250D01*
X140589000Y-68929250D01*
X140589000Y-73025000D01*
X141833600Y-73025000D01*
X141992350Y-72866250D01*
X141992350Y-69279190D01*
X141895677Y-69045801D01*
X141717048Y-68867173D01*
X141483659Y-68770500D01*
X140747750Y-68770500D01*
X140589000Y-68929250D01*
X140335000Y-68929250D01*
X140176250Y-68770500D01*
X139440341Y-68770500D01*
X139206952Y-68867173D01*
X139028323Y-69045801D01*
X138931650Y-69279190D01*
X138303000Y-69279190D01*
X138303000Y-67754500D01*
X144399000Y-67754500D01*
X144399000Y-81407000D01*
X144399000Y-81407000D01*
G37*
X144399000Y-81407000D02*
X140081000Y-81407000D01*
X140081000Y-80295750D01*
X140959000Y-80295750D01*
X140959000Y-80886309D01*
X141055673Y-81119698D01*
X141234301Y-81298327D01*
X141467690Y-81395000D01*
X142208250Y-81395000D01*
X142367000Y-81236250D01*
X142367000Y-80137000D01*
X142621000Y-80137000D01*
X142621000Y-81236250D01*
X142779750Y-81395000D01*
X143520310Y-81395000D01*
X143753699Y-81298327D01*
X143932327Y-81119698D01*
X144029000Y-80886309D01*
X144029000Y-80295750D01*
X143870250Y-80137000D01*
X142621000Y-80137000D01*
X142367000Y-80137000D01*
X141117750Y-80137000D01*
X140959000Y-80295750D01*
X140081000Y-80295750D01*
X140081000Y-79133691D01*
X140959000Y-79133691D01*
X140959000Y-79724250D01*
X141117750Y-79883000D01*
X142367000Y-79883000D01*
X142367000Y-78783750D01*
X142621000Y-78783750D01*
X142621000Y-79883000D01*
X143870250Y-79883000D01*
X144029000Y-79724250D01*
X144029000Y-79133691D01*
X143932327Y-78900302D01*
X143753699Y-78721673D01*
X143520310Y-78625000D01*
X142779750Y-78625000D01*
X142621000Y-78783750D01*
X142367000Y-78783750D01*
X142208250Y-78625000D01*
X141467690Y-78625000D01*
X141234301Y-78721673D01*
X141055673Y-78900302D01*
X140959000Y-79133691D01*
X140081000Y-79133691D01*
X140081000Y-77533500D01*
X140176250Y-77533500D01*
X140335000Y-77374750D01*
X140335000Y-73279000D01*
X140589000Y-73279000D01*
X140589000Y-77374750D01*
X140747750Y-77533500D01*
X141483659Y-77533500D01*
X141717048Y-77436827D01*
X141895677Y-77258199D01*
X141992350Y-77024810D01*
X141992350Y-73437750D01*
X141833600Y-73279000D01*
X140589000Y-73279000D01*
X140335000Y-73279000D01*
X139090400Y-73279000D01*
X138931650Y-73437750D01*
X138931650Y-77024810D01*
X138958238Y-77089000D01*
X138303000Y-77089000D01*
X138303000Y-69279190D01*
X138931650Y-69279190D01*
X138931650Y-72866250D01*
X139090400Y-73025000D01*
X140335000Y-73025000D01*
X140335000Y-68929250D01*
X140589000Y-68929250D01*
X140589000Y-73025000D01*
X141833600Y-73025000D01*
X141992350Y-72866250D01*
X141992350Y-69279190D01*
X141895677Y-69045801D01*
X141717048Y-68867173D01*
X141483659Y-68770500D01*
X140747750Y-68770500D01*
X140589000Y-68929250D01*
X140335000Y-68929250D01*
X140176250Y-68770500D01*
X139440341Y-68770500D01*
X139206952Y-68867173D01*
X139028323Y-69045801D01*
X138931650Y-69279190D01*
X138303000Y-69279190D01*
X138303000Y-67754500D01*
X144399000Y-67754500D01*
X144399000Y-81407000D01*
G04 #@! TD*
M02*
