G04 #@! TF.GenerationSoftware,KiCad,Pcbnew,(5.0.1-3-g963ef8bb5)*
G04 #@! TF.CreationDate,2018-11-04T15:03:24-05:00*
G04 #@! TF.ProjectId,Solar LiPo Charger,536F6C6172204C69506F204368617267,1A*
G04 #@! TF.SameCoordinates,Original*
G04 #@! TF.FileFunction,Soldermask,Bot*
G04 #@! TF.FilePolarity,Negative*
%FSLAX46Y46*%
G04 Gerber Fmt 4.6, Leading zero omitted, Abs format (unit mm)*
G04 Created by KiCad (PCBNEW (5.0.1-3-g963ef8bb5)) date Sunday, November 04, 2018 at 03:03:24 PM*
%MOMM*%
%LPD*%
G01*
G04 APERTURE LIST*
%ADD10C,0.100000*%
G04 APERTURE END LIST*
D10*
G36*
X151250909Y-96025883D02*
X151547354Y-96084850D01*
X151966214Y-96258347D01*
X152343185Y-96510232D01*
X152663768Y-96830815D01*
X152915653Y-97207786D01*
X153089150Y-97626646D01*
X153177600Y-98071313D01*
X153177600Y-98524687D01*
X153089150Y-98969354D01*
X152915653Y-99388214D01*
X152663768Y-99765185D01*
X152343185Y-100085768D01*
X151966214Y-100337653D01*
X151547354Y-100511150D01*
X151250909Y-100570117D01*
X151102688Y-100599600D01*
X150649312Y-100599600D01*
X150501091Y-100570117D01*
X150204646Y-100511150D01*
X149785786Y-100337653D01*
X149408815Y-100085768D01*
X149088232Y-99765185D01*
X148836347Y-99388214D01*
X148662850Y-98969354D01*
X148574400Y-98524687D01*
X148574400Y-98071313D01*
X148662850Y-97626646D01*
X148836347Y-97207786D01*
X149088232Y-96830815D01*
X149408815Y-96510232D01*
X149785786Y-96258347D01*
X150204646Y-96084850D01*
X150501091Y-96025883D01*
X150649312Y-95996400D01*
X151102688Y-95996400D01*
X151250909Y-96025883D01*
X151250909Y-96025883D01*
G37*
G36*
X108070909Y-95771883D02*
X108367354Y-95830850D01*
X108786214Y-96004347D01*
X109163185Y-96256232D01*
X109483768Y-96576815D01*
X109735653Y-96953786D01*
X109909150Y-97372646D01*
X109997600Y-97817313D01*
X109997600Y-98270687D01*
X109909150Y-98715354D01*
X109735653Y-99134214D01*
X109483768Y-99511185D01*
X109163185Y-99831768D01*
X108786214Y-100083653D01*
X108367354Y-100257150D01*
X108070909Y-100316117D01*
X107922688Y-100345600D01*
X107469312Y-100345600D01*
X107321091Y-100316117D01*
X107024646Y-100257150D01*
X106605786Y-100083653D01*
X106228815Y-99831768D01*
X105908232Y-99511185D01*
X105656347Y-99134214D01*
X105482850Y-98715354D01*
X105394400Y-98270687D01*
X105394400Y-97817313D01*
X105482850Y-97372646D01*
X105656347Y-96953786D01*
X105908232Y-96576815D01*
X106228815Y-96256232D01*
X106605786Y-96004347D01*
X107024646Y-95830850D01*
X107321091Y-95771883D01*
X107469312Y-95742400D01*
X107922688Y-95742400D01*
X108070909Y-95771883D01*
X108070909Y-95771883D01*
G37*
G36*
X150112665Y-83782420D02*
X150349537Y-83880535D01*
X150562723Y-84022982D01*
X150744018Y-84204277D01*
X150886465Y-84417463D01*
X150984580Y-84654335D01*
X151034600Y-84905804D01*
X151034600Y-85162196D01*
X150984580Y-85413665D01*
X150886465Y-85650537D01*
X150744018Y-85863723D01*
X150562723Y-86045018D01*
X150349537Y-86187465D01*
X150112665Y-86285580D01*
X149861196Y-86335600D01*
X149604804Y-86335600D01*
X149353335Y-86285580D01*
X149116463Y-86187465D01*
X148903277Y-86045018D01*
X148721982Y-85863723D01*
X148579535Y-85650537D01*
X148481420Y-85413665D01*
X148431400Y-85162196D01*
X148431400Y-84905804D01*
X148481420Y-84654335D01*
X148579535Y-84417463D01*
X148721982Y-84204277D01*
X148903277Y-84022982D01*
X149116463Y-83880535D01*
X149353335Y-83782420D01*
X149604804Y-83732400D01*
X149861196Y-83732400D01*
X150112665Y-83782420D01*
X150112665Y-83782420D01*
G37*
G36*
X151034600Y-82835600D02*
X148431400Y-82835600D01*
X148431400Y-80232400D01*
X151034600Y-80232400D01*
X151034600Y-82835600D01*
X151034600Y-82835600D01*
G37*
G36*
X116153833Y-77520262D02*
X116408905Y-77625916D01*
X116638469Y-77779307D01*
X116833693Y-77974531D01*
X116987084Y-78204095D01*
X117092738Y-78459167D01*
X117146600Y-78729954D01*
X117146600Y-79006046D01*
X117092738Y-79276833D01*
X116987084Y-79531905D01*
X116833693Y-79761469D01*
X116638469Y-79956693D01*
X116408905Y-80110084D01*
X116153833Y-80215738D01*
X115883046Y-80269600D01*
X115606954Y-80269600D01*
X115336167Y-80215738D01*
X115081095Y-80110084D01*
X114851531Y-79956693D01*
X114656307Y-79761469D01*
X114502916Y-79531905D01*
X114397262Y-79276833D01*
X114343400Y-79006046D01*
X114343400Y-78729954D01*
X114397262Y-78459167D01*
X114502916Y-78204095D01*
X114656307Y-77974531D01*
X114851531Y-77779307D01*
X115081095Y-77625916D01*
X115336167Y-77520262D01*
X115606954Y-77466400D01*
X115883046Y-77466400D01*
X116153833Y-77520262D01*
X116153833Y-77520262D01*
G37*
G36*
X120146600Y-75569600D02*
X117343400Y-75569600D01*
X117343400Y-72766400D01*
X120146600Y-72766400D01*
X120146600Y-75569600D01*
X120146600Y-75569600D01*
G37*
G36*
X113153833Y-72820262D02*
X113408905Y-72925916D01*
X113638469Y-73079307D01*
X113833693Y-73274531D01*
X113987084Y-73504095D01*
X114092738Y-73759167D01*
X114146600Y-74029954D01*
X114146600Y-74306046D01*
X114092738Y-74576833D01*
X113987084Y-74831905D01*
X113833693Y-75061469D01*
X113638469Y-75256693D01*
X113408905Y-75410084D01*
X113153833Y-75515738D01*
X112883046Y-75569600D01*
X112606954Y-75569600D01*
X112336167Y-75515738D01*
X112081095Y-75410084D01*
X111851531Y-75256693D01*
X111656307Y-75061469D01*
X111502916Y-74831905D01*
X111397262Y-74576833D01*
X111343400Y-74306046D01*
X111343400Y-74029954D01*
X111397262Y-73759167D01*
X111502916Y-73504095D01*
X111656307Y-73274531D01*
X111851531Y-73079307D01*
X112081095Y-72925916D01*
X112336167Y-72820262D01*
X112606954Y-72766400D01*
X112883046Y-72766400D01*
X113153833Y-72820262D01*
X113153833Y-72820262D01*
G37*
G36*
X151504909Y-68085883D02*
X151801354Y-68144850D01*
X152220214Y-68318347D01*
X152597185Y-68570232D01*
X152917768Y-68890815D01*
X153169653Y-69267786D01*
X153343150Y-69686646D01*
X153431600Y-70131313D01*
X153431600Y-70584687D01*
X153343150Y-71029354D01*
X153169653Y-71448214D01*
X152917768Y-71825185D01*
X152597185Y-72145768D01*
X152220214Y-72397653D01*
X151801354Y-72571150D01*
X151504909Y-72630117D01*
X151356688Y-72659600D01*
X150903312Y-72659600D01*
X150755091Y-72630117D01*
X150458646Y-72571150D01*
X150039786Y-72397653D01*
X149662815Y-72145768D01*
X149342232Y-71825185D01*
X149090347Y-71448214D01*
X148916850Y-71029354D01*
X148828400Y-70584687D01*
X148828400Y-70131313D01*
X148916850Y-69686646D01*
X149090347Y-69267786D01*
X149342232Y-68890815D01*
X149662815Y-68570232D01*
X150039786Y-68318347D01*
X150458646Y-68144850D01*
X150755091Y-68085883D01*
X150903312Y-68056400D01*
X151356688Y-68056400D01*
X151504909Y-68085883D01*
X151504909Y-68085883D01*
G37*
M02*
