G04 #@! TF.GenerationSoftware,KiCad,Pcbnew,(5.0.1-3-g963ef8bb5)*
G04 #@! TF.CreationDate,2018-11-04T00:53:12-04:00*
G04 #@! TF.ProjectId,Solar LiPo Charger,536F6C6172204C69506F204368617267,1A*
G04 #@! TF.SameCoordinates,Original*
G04 #@! TF.FileFunction,Soldermask,Bot*
G04 #@! TF.FilePolarity,Negative*
%FSLAX46Y46*%
G04 Gerber Fmt 4.6, Leading zero omitted, Abs format (unit mm)*
G04 Created by KiCad (PCBNEW (5.0.1-3-g963ef8bb5)) date Sunday, November 04, 2018 at 12:53:12 AM*
%MOMM*%
%LPD*%
G01*
G04 APERTURE LIST*
%ADD10C,0.100000*%
G04 APERTURE END LIST*
D10*
G36*
X151045416Y-96394184D02*
X151309591Y-96503608D01*
X151547341Y-96662468D01*
X151749532Y-96864659D01*
X151908392Y-97102409D01*
X152017816Y-97366584D01*
X152073600Y-97647030D01*
X152073600Y-97932970D01*
X152017816Y-98213416D01*
X151908392Y-98477591D01*
X151749532Y-98715341D01*
X151547341Y-98917532D01*
X151309591Y-99076392D01*
X151045416Y-99185816D01*
X150764970Y-99241600D01*
X150479030Y-99241600D01*
X150198584Y-99185816D01*
X149934409Y-99076392D01*
X149696659Y-98917532D01*
X149494468Y-98715341D01*
X149335608Y-98477591D01*
X149226184Y-98213416D01*
X149170400Y-97932970D01*
X149170400Y-97647030D01*
X149226184Y-97366584D01*
X149335608Y-97102409D01*
X149494468Y-96864659D01*
X149696659Y-96662468D01*
X149934409Y-96503608D01*
X150198584Y-96394184D01*
X150479030Y-96338400D01*
X150764970Y-96338400D01*
X151045416Y-96394184D01*
X151045416Y-96394184D01*
G37*
G36*
X108373416Y-96394184D02*
X108637591Y-96503608D01*
X108875341Y-96662468D01*
X109077532Y-96864659D01*
X109236392Y-97102409D01*
X109345816Y-97366584D01*
X109401600Y-97647030D01*
X109401600Y-97932970D01*
X109345816Y-98213416D01*
X109236392Y-98477591D01*
X109077532Y-98715341D01*
X108875341Y-98917532D01*
X108637591Y-99076392D01*
X108373416Y-99185816D01*
X108092970Y-99241600D01*
X107807030Y-99241600D01*
X107526584Y-99185816D01*
X107262409Y-99076392D01*
X107024659Y-98917532D01*
X106822468Y-98715341D01*
X106663608Y-98477591D01*
X106554184Y-98213416D01*
X106498400Y-97932970D01*
X106498400Y-97647030D01*
X106554184Y-97366584D01*
X106663608Y-97102409D01*
X106822468Y-96864659D01*
X107024659Y-96662468D01*
X107262409Y-96503608D01*
X107526584Y-96394184D01*
X107807030Y-96338400D01*
X108092970Y-96338400D01*
X108373416Y-96394184D01*
X108373416Y-96394184D01*
G37*
G36*
X150493665Y-86068420D02*
X150730537Y-86166535D01*
X150943723Y-86308982D01*
X151125018Y-86490277D01*
X151267465Y-86703463D01*
X151365580Y-86940335D01*
X151415600Y-87191804D01*
X151415600Y-87448196D01*
X151365580Y-87699665D01*
X151267465Y-87936537D01*
X151125018Y-88149723D01*
X150943723Y-88331018D01*
X150730537Y-88473465D01*
X150493665Y-88571580D01*
X150242196Y-88621600D01*
X149985804Y-88621600D01*
X149734335Y-88571580D01*
X149497463Y-88473465D01*
X149284277Y-88331018D01*
X149102982Y-88149723D01*
X148960535Y-87936537D01*
X148862420Y-87699665D01*
X148812400Y-87448196D01*
X148812400Y-87191804D01*
X148862420Y-86940335D01*
X148960535Y-86703463D01*
X149102982Y-86490277D01*
X149284277Y-86308982D01*
X149497463Y-86166535D01*
X149734335Y-86068420D01*
X149985804Y-86018400D01*
X150242196Y-86018400D01*
X150493665Y-86068420D01*
X150493665Y-86068420D01*
G37*
G36*
X151415600Y-85121600D02*
X148812400Y-85121600D01*
X148812400Y-82518400D01*
X151415600Y-82518400D01*
X151415600Y-85121600D01*
X151415600Y-85121600D01*
G37*
G36*
X116153833Y-77012262D02*
X116408905Y-77117916D01*
X116638469Y-77271307D01*
X116833693Y-77466531D01*
X116987084Y-77696095D01*
X117092738Y-77951167D01*
X117146600Y-78221954D01*
X117146600Y-78498046D01*
X117092738Y-78768833D01*
X116987084Y-79023905D01*
X116833693Y-79253469D01*
X116638469Y-79448693D01*
X116408905Y-79602084D01*
X116153833Y-79707738D01*
X115883046Y-79761600D01*
X115606954Y-79761600D01*
X115336167Y-79707738D01*
X115081095Y-79602084D01*
X114851531Y-79448693D01*
X114656307Y-79253469D01*
X114502916Y-79023905D01*
X114397262Y-78768833D01*
X114343400Y-78498046D01*
X114343400Y-78221954D01*
X114397262Y-77951167D01*
X114502916Y-77696095D01*
X114656307Y-77466531D01*
X114851531Y-77271307D01*
X115081095Y-77117916D01*
X115336167Y-77012262D01*
X115606954Y-76958400D01*
X115883046Y-76958400D01*
X116153833Y-77012262D01*
X116153833Y-77012262D01*
G37*
G36*
X120146600Y-75061600D02*
X117343400Y-75061600D01*
X117343400Y-72258400D01*
X120146600Y-72258400D01*
X120146600Y-75061600D01*
X120146600Y-75061600D01*
G37*
G36*
X113153833Y-72312262D02*
X113408905Y-72417916D01*
X113638469Y-72571307D01*
X113833693Y-72766531D01*
X113987084Y-72996095D01*
X114092738Y-73251167D01*
X114146600Y-73521954D01*
X114146600Y-73798046D01*
X114092738Y-74068833D01*
X113987084Y-74323905D01*
X113833693Y-74553469D01*
X113638469Y-74748693D01*
X113408905Y-74902084D01*
X113153833Y-75007738D01*
X112883046Y-75061600D01*
X112606954Y-75061600D01*
X112336167Y-75007738D01*
X112081095Y-74902084D01*
X111851531Y-74748693D01*
X111656307Y-74553469D01*
X111502916Y-74323905D01*
X111397262Y-74068833D01*
X111343400Y-73798046D01*
X111343400Y-73521954D01*
X111397262Y-73251167D01*
X111502916Y-72996095D01*
X111656307Y-72766531D01*
X111851531Y-72571307D01*
X112081095Y-72417916D01*
X112336167Y-72312262D01*
X112606954Y-72258400D01*
X112883046Y-72258400D01*
X113153833Y-72312262D01*
X113153833Y-72312262D01*
G37*
G36*
X151045416Y-69724184D02*
X151309591Y-69833608D01*
X151547341Y-69992468D01*
X151749532Y-70194659D01*
X151908392Y-70432409D01*
X152017816Y-70696584D01*
X152073600Y-70977030D01*
X152073600Y-71262970D01*
X152017816Y-71543416D01*
X151908392Y-71807591D01*
X151749532Y-72045341D01*
X151547341Y-72247532D01*
X151309591Y-72406392D01*
X151045416Y-72515816D01*
X150764970Y-72571600D01*
X150479030Y-72571600D01*
X150198584Y-72515816D01*
X149934409Y-72406392D01*
X149696659Y-72247532D01*
X149494468Y-72045341D01*
X149335608Y-71807591D01*
X149226184Y-71543416D01*
X149170400Y-71262970D01*
X149170400Y-70977030D01*
X149226184Y-70696584D01*
X149335608Y-70432409D01*
X149494468Y-70194659D01*
X149696659Y-69992468D01*
X149934409Y-69833608D01*
X150198584Y-69724184D01*
X150479030Y-69668400D01*
X150764970Y-69668400D01*
X151045416Y-69724184D01*
X151045416Y-69724184D01*
G37*
M02*
