G04 #@! TF.GenerationSoftware,KiCad,Pcbnew,(5.0.1-3-g963ef8bb5)*
G04 #@! TF.CreationDate,2018-11-04T00:53:12-04:00*
G04 #@! TF.ProjectId,Solar LiPo Charger,536F6C6172204C69506F204368617267,1A*
G04 #@! TF.SameCoordinates,Original*
G04 #@! TF.FileFunction,Legend,Top*
G04 #@! TF.FilePolarity,Positive*
%FSLAX46Y46*%
G04 Gerber Fmt 4.6, Leading zero omitted, Abs format (unit mm)*
G04 Created by KiCad (PCBNEW (5.0.1-3-g963ef8bb5)) date Sunday, November 04, 2018 at 12:53:12 AM*
%MOMM*%
%LPD*%
G01*
G04 APERTURE LIST*
%ADD10C,0.190500*%
%ADD11C,0.300000*%
%ADD12C,0.100000*%
%ADD13C,0.120000*%
%ADD14C,0.152400*%
%ADD15C,0.150000*%
G04 APERTURE END LIST*
D10*
X109088464Y-92257165D02*
X108326464Y-92161915D01*
X108870750Y-91975951D01*
X108326464Y-91653915D01*
X109088464Y-91749165D01*
X108580464Y-91395379D02*
X109088464Y-91277451D01*
X108580464Y-91032522D02*
X109088464Y-91277451D01*
X109269892Y-91372701D01*
X109306178Y-91413522D01*
X109342464Y-91490629D01*
X109088464Y-90696879D02*
X109052178Y-90764915D01*
X108979607Y-90792129D01*
X108326464Y-90710487D01*
X109052178Y-90111772D02*
X109088464Y-90188879D01*
X109088464Y-90334022D01*
X109052178Y-90402058D01*
X108979607Y-90429272D01*
X108689321Y-90392987D01*
X108616750Y-90347629D01*
X108580464Y-90270522D01*
X108580464Y-90125379D01*
X108616750Y-90057344D01*
X108689321Y-90030129D01*
X108761892Y-90039201D01*
X108834464Y-90411129D01*
X109052178Y-89785201D02*
X109088464Y-89717165D01*
X109088464Y-89572022D01*
X109052178Y-89494915D01*
X108979607Y-89449558D01*
X108943321Y-89445022D01*
X108870750Y-89472237D01*
X108834464Y-89540272D01*
X108834464Y-89649129D01*
X108798178Y-89717165D01*
X108725607Y-89744379D01*
X108689321Y-89739844D01*
X108616750Y-89694487D01*
X108580464Y-89617379D01*
X108580464Y-89508522D01*
X108616750Y-89440487D01*
X109015892Y-88111522D02*
X109052178Y-88152344D01*
X109088464Y-88265737D01*
X109088464Y-88338308D01*
X109052178Y-88442629D01*
X108979607Y-88506129D01*
X108907035Y-88533344D01*
X108761892Y-88551487D01*
X108653035Y-88537879D01*
X108507892Y-88483451D01*
X108435321Y-88438094D01*
X108362750Y-88356451D01*
X108326464Y-88243058D01*
X108326464Y-88170487D01*
X108362750Y-88066165D01*
X108399035Y-88034415D01*
X109088464Y-87467451D02*
X108689321Y-87417558D01*
X108616750Y-87444772D01*
X108580464Y-87512808D01*
X108580464Y-87657951D01*
X108616750Y-87735058D01*
X109052178Y-87462915D02*
X109088464Y-87540022D01*
X109088464Y-87721451D01*
X109052178Y-87789487D01*
X108979607Y-87816701D01*
X108907035Y-87807629D01*
X108834464Y-87762272D01*
X108798178Y-87685165D01*
X108798178Y-87503737D01*
X108761892Y-87426629D01*
X109088464Y-87104594D02*
X108580464Y-87041094D01*
X108326464Y-87009344D02*
X108362750Y-87050165D01*
X108399035Y-87018415D01*
X108362750Y-86977594D01*
X108326464Y-87009344D01*
X108399035Y-87018415D01*
X109732535Y-92570129D02*
X109696250Y-92529308D01*
X109659964Y-92452201D01*
X109659964Y-92270772D01*
X109696250Y-92202737D01*
X109732535Y-92170987D01*
X109805107Y-92143772D01*
X109877678Y-92152844D01*
X109986535Y-92202737D01*
X110421964Y-92692594D01*
X110421964Y-92220879D01*
X109659964Y-91653915D02*
X109659964Y-91581344D01*
X109696250Y-91513308D01*
X109732535Y-91481558D01*
X109805107Y-91454344D01*
X109950250Y-91436201D01*
X110131678Y-91458879D01*
X110276821Y-91513308D01*
X110349392Y-91558665D01*
X110385678Y-91599487D01*
X110421964Y-91676594D01*
X110421964Y-91749165D01*
X110385678Y-91817201D01*
X110349392Y-91848951D01*
X110276821Y-91876165D01*
X110131678Y-91894308D01*
X109950250Y-91871629D01*
X109805107Y-91817201D01*
X109732535Y-91771844D01*
X109696250Y-91731022D01*
X109659964Y-91653915D01*
X110421964Y-90769451D02*
X110421964Y-91204879D01*
X110421964Y-90987165D02*
X109659964Y-90891915D01*
X109768821Y-90978094D01*
X109841392Y-91059737D01*
X109877678Y-91136844D01*
X109986535Y-90279594D02*
X109950250Y-90347629D01*
X109913964Y-90379379D01*
X109841392Y-90406594D01*
X109805107Y-90402058D01*
X109732535Y-90356701D01*
X109696250Y-90315879D01*
X109659964Y-90238772D01*
X109659964Y-90093629D01*
X109696250Y-90025594D01*
X109732535Y-89993844D01*
X109805107Y-89966629D01*
X109841392Y-89971165D01*
X109913964Y-90016522D01*
X109950250Y-90057344D01*
X109986535Y-90134451D01*
X109986535Y-90279594D01*
X110022821Y-90356701D01*
X110059107Y-90397522D01*
X110131678Y-90442879D01*
X110276821Y-90461022D01*
X110349392Y-90433808D01*
X110385678Y-90402058D01*
X110421964Y-90334022D01*
X110421964Y-90188879D01*
X110385678Y-90111772D01*
X110349392Y-90070951D01*
X110276821Y-90025594D01*
X110131678Y-90007451D01*
X110059107Y-90034665D01*
X110022821Y-90066415D01*
X109986535Y-90134451D01*
X110421964Y-88737451D02*
X110421964Y-89172879D01*
X110421964Y-88955165D02*
X109659964Y-88859915D01*
X109768821Y-88946094D01*
X109841392Y-89027737D01*
X109877678Y-89104844D01*
X110421964Y-88011737D02*
X110421964Y-88447165D01*
X110421964Y-88229451D02*
X109659964Y-88134201D01*
X109768821Y-88220379D01*
X109841392Y-88302022D01*
X109877678Y-88379129D01*
X109659964Y-87081915D02*
X109659964Y-86610201D01*
X109950250Y-86900487D01*
X109950250Y-86791629D01*
X109986535Y-86723594D01*
X110022821Y-86691844D01*
X110095392Y-86664629D01*
X110276821Y-86687308D01*
X110349392Y-86732665D01*
X110385678Y-86773487D01*
X110421964Y-86850594D01*
X110421964Y-87068308D01*
X110385678Y-87136344D01*
X110349392Y-87168094D01*
D11*
X121798285Y-69441142D02*
X122012571Y-69512571D01*
X122369714Y-69512571D01*
X122512571Y-69441142D01*
X122584000Y-69369714D01*
X122655428Y-69226857D01*
X122655428Y-69084000D01*
X122584000Y-68941142D01*
X122512571Y-68869714D01*
X122369714Y-68798285D01*
X122084000Y-68726857D01*
X121941142Y-68655428D01*
X121869714Y-68584000D01*
X121798285Y-68441142D01*
X121798285Y-68298285D01*
X121869714Y-68155428D01*
X121941142Y-68084000D01*
X122084000Y-68012571D01*
X122441142Y-68012571D01*
X122655428Y-68084000D01*
X123512571Y-69512571D02*
X123369714Y-69441142D01*
X123298285Y-69369714D01*
X123226857Y-69226857D01*
X123226857Y-68798285D01*
X123298285Y-68655428D01*
X123369714Y-68584000D01*
X123512571Y-68512571D01*
X123726857Y-68512571D01*
X123869714Y-68584000D01*
X123941142Y-68655428D01*
X124012571Y-68798285D01*
X124012571Y-69226857D01*
X123941142Y-69369714D01*
X123869714Y-69441142D01*
X123726857Y-69512571D01*
X123512571Y-69512571D01*
X124869714Y-69512571D02*
X124726857Y-69441142D01*
X124655428Y-69298285D01*
X124655428Y-68012571D01*
X126084000Y-69512571D02*
X126084000Y-68726857D01*
X126012571Y-68584000D01*
X125869714Y-68512571D01*
X125584000Y-68512571D01*
X125441142Y-68584000D01*
X126084000Y-69441142D02*
X125941142Y-69512571D01*
X125584000Y-69512571D01*
X125441142Y-69441142D01*
X125369714Y-69298285D01*
X125369714Y-69155428D01*
X125441142Y-69012571D01*
X125584000Y-68941142D01*
X125941142Y-68941142D01*
X126084000Y-68869714D01*
X126798285Y-69512571D02*
X126798285Y-68512571D01*
X126798285Y-68798285D02*
X126869714Y-68655428D01*
X126941142Y-68584000D01*
X127084000Y-68512571D01*
X127226857Y-68512571D01*
X129584000Y-69512571D02*
X128869714Y-69512571D01*
X128869714Y-68012571D01*
X130084000Y-69512571D02*
X130084000Y-68512571D01*
X130084000Y-68012571D02*
X130012571Y-68084000D01*
X130084000Y-68155428D01*
X130155428Y-68084000D01*
X130084000Y-68012571D01*
X130084000Y-68155428D01*
X130798285Y-69512571D02*
X130798285Y-68012571D01*
X131369714Y-68012571D01*
X131512571Y-68084000D01*
X131584000Y-68155428D01*
X131655428Y-68298285D01*
X131655428Y-68512571D01*
X131584000Y-68655428D01*
X131512571Y-68726857D01*
X131369714Y-68798285D01*
X130798285Y-68798285D01*
X132512571Y-69512571D02*
X132369714Y-69441142D01*
X132298285Y-69369714D01*
X132226857Y-69226857D01*
X132226857Y-68798285D01*
X132298285Y-68655428D01*
X132369714Y-68584000D01*
X132512571Y-68512571D01*
X132726857Y-68512571D01*
X132869714Y-68584000D01*
X132941142Y-68655428D01*
X133012571Y-68798285D01*
X133012571Y-69226857D01*
X132941142Y-69369714D01*
X132869714Y-69441142D01*
X132726857Y-69512571D01*
X132512571Y-69512571D01*
X135655428Y-69369714D02*
X135584000Y-69441142D01*
X135369714Y-69512571D01*
X135226857Y-69512571D01*
X135012571Y-69441142D01*
X134869714Y-69298285D01*
X134798285Y-69155428D01*
X134726857Y-68869714D01*
X134726857Y-68655428D01*
X134798285Y-68369714D01*
X134869714Y-68226857D01*
X135012571Y-68084000D01*
X135226857Y-68012571D01*
X135369714Y-68012571D01*
X135584000Y-68084000D01*
X135655428Y-68155428D01*
X136298285Y-69512571D02*
X136298285Y-68012571D01*
X136941142Y-69512571D02*
X136941142Y-68726857D01*
X136869714Y-68584000D01*
X136726857Y-68512571D01*
X136512571Y-68512571D01*
X136369714Y-68584000D01*
X136298285Y-68655428D01*
X138298285Y-69512571D02*
X138298285Y-68726857D01*
X138226857Y-68584000D01*
X138084000Y-68512571D01*
X137798285Y-68512571D01*
X137655428Y-68584000D01*
X138298285Y-69441142D02*
X138155428Y-69512571D01*
X137798285Y-69512571D01*
X137655428Y-69441142D01*
X137584000Y-69298285D01*
X137584000Y-69155428D01*
X137655428Y-69012571D01*
X137798285Y-68941142D01*
X138155428Y-68941142D01*
X138298285Y-68869714D01*
X139012571Y-69512571D02*
X139012571Y-68512571D01*
X139012571Y-68798285D02*
X139084000Y-68655428D01*
X139155428Y-68584000D01*
X139298285Y-68512571D01*
X139441142Y-68512571D01*
X140584000Y-68512571D02*
X140584000Y-69726857D01*
X140512571Y-69869714D01*
X140441142Y-69941142D01*
X140298285Y-70012571D01*
X140084000Y-70012571D01*
X139941142Y-69941142D01*
X140584000Y-69441142D02*
X140441142Y-69512571D01*
X140155428Y-69512571D01*
X140012571Y-69441142D01*
X139941142Y-69369714D01*
X139869714Y-69226857D01*
X139869714Y-68798285D01*
X139941142Y-68655428D01*
X140012571Y-68584000D01*
X140155428Y-68512571D01*
X140441142Y-68512571D01*
X140584000Y-68584000D01*
X141869714Y-69441142D02*
X141726857Y-69512571D01*
X141441142Y-69512571D01*
X141298285Y-69441142D01*
X141226857Y-69298285D01*
X141226857Y-68726857D01*
X141298285Y-68584000D01*
X141441142Y-68512571D01*
X141726857Y-68512571D01*
X141869714Y-68584000D01*
X141941142Y-68726857D01*
X141941142Y-68869714D01*
X141226857Y-69012571D01*
X142584000Y-69512571D02*
X142584000Y-68512571D01*
X142584000Y-68798285D02*
X142655428Y-68655428D01*
X142726857Y-68584000D01*
X142869714Y-68512571D01*
X143012571Y-68512571D01*
D12*
G04 #@! TO.C,C1*
X126784000Y-80980000D02*
X126784000Y-81580000D01*
X121584000Y-80980000D02*
X121584000Y-81580000D01*
X124184000Y-82180000D02*
X123684000Y-82180000D01*
X124184000Y-82180000D02*
X124684000Y-82180000D01*
X124184000Y-80380000D02*
X123684000Y-80380000D01*
X124184000Y-80380000D02*
X124684000Y-80380000D01*
D13*
G04 #@! TO.C,C2*
X124980000Y-84620000D02*
X124380000Y-84620000D01*
X125000000Y-83020000D02*
X124400000Y-83020000D01*
G04 #@! TO.C,C3*
X123090000Y-74460000D02*
X123690000Y-74460000D01*
X123110000Y-72860000D02*
X123710000Y-72860000D01*
D12*
G04 #@! TO.C,C4*
X126320000Y-75900000D02*
X126320000Y-76500000D01*
X121120000Y-75900000D02*
X121120000Y-76500000D01*
X123720000Y-77100000D02*
X123220000Y-77100000D01*
X123720000Y-77100000D02*
X124220000Y-77100000D01*
X123720000Y-75300000D02*
X123220000Y-75300000D01*
X123720000Y-75300000D02*
X124220000Y-75300000D01*
G04 #@! TO.C,C5*
X123720000Y-77840000D02*
X124220000Y-77840000D01*
X123720000Y-77840000D02*
X123220000Y-77840000D01*
X123720000Y-79640000D02*
X124220000Y-79640000D01*
X123720000Y-79640000D02*
X123220000Y-79640000D01*
X121120000Y-78440000D02*
X121120000Y-79040000D01*
X126320000Y-78440000D02*
X126320000Y-79040000D01*
D13*
G04 #@! TO.C,C6*
X124930000Y-90885000D02*
X124930000Y-90285000D01*
X126530000Y-90905000D02*
X126530000Y-90305000D01*
G04 #@! TO.C,C7*
X129000000Y-92875000D02*
X129600000Y-92875000D01*
X129020000Y-91275000D02*
X129620000Y-91275000D01*
G04 #@! TO.C,C8*
X135420000Y-94715000D02*
X135420000Y-94115000D01*
X133820000Y-94695000D02*
X133820000Y-94095000D01*
G04 #@! TO.C,C9*
X136360000Y-94695000D02*
X136360000Y-94095000D01*
X137960000Y-94715000D02*
X137960000Y-94115000D01*
G04 #@! TO.C,C10*
X138900000Y-93440000D02*
X138900000Y-94040000D01*
X140500000Y-93460000D02*
X140500000Y-94060000D01*
G04 #@! TO.C,C11*
X141440000Y-92375000D02*
X141440000Y-91775000D01*
X143040000Y-92395000D02*
X143040000Y-91795000D01*
D12*
G04 #@! TO.C,C12*
X134455000Y-82850000D02*
X134455000Y-82250000D01*
X139655000Y-82850000D02*
X139655000Y-82250000D01*
X137055000Y-81650000D02*
X137555000Y-81650000D01*
X137055000Y-81650000D02*
X136555000Y-81650000D01*
X137055000Y-83450000D02*
X137555000Y-83450000D01*
X137055000Y-83450000D02*
X136555000Y-83450000D01*
G04 #@! TO.C,C13*
X137055000Y-86625000D02*
X136555000Y-86625000D01*
X137055000Y-86625000D02*
X137555000Y-86625000D01*
X137055000Y-84825000D02*
X136555000Y-84825000D01*
X137055000Y-84825000D02*
X137555000Y-84825000D01*
X139655000Y-86025000D02*
X139655000Y-85425000D01*
X134455000Y-86025000D02*
X134455000Y-85425000D01*
D13*
G04 #@! TO.C,C14*
X142405000Y-82870000D02*
X142405000Y-82270000D01*
X140805000Y-82850000D02*
X140805000Y-82250000D01*
D14*
G04 #@! TO.C,D1*
X120142000Y-82804000D02*
X121412000Y-82804000D01*
X121158000Y-83439000D02*
X121158000Y-82169000D01*
X121158000Y-82804000D02*
X120396000Y-83439000D01*
X121158000Y-82804000D02*
X120396000Y-83312000D01*
X121158000Y-82804000D02*
X120396000Y-83185000D01*
X121158000Y-82804000D02*
X120396000Y-83058000D01*
X121158000Y-82804000D02*
X120396000Y-82931000D01*
X121158000Y-82804000D02*
X120396000Y-82169000D01*
X121158000Y-82804000D02*
X120396000Y-82296000D01*
X121158000Y-82804000D02*
X120396000Y-82423000D01*
X121158000Y-82804000D02*
X120396000Y-82550000D01*
X121158000Y-82804000D02*
X120396000Y-82677000D01*
X120396000Y-83439000D02*
X120396000Y-82169000D01*
X119761000Y-80772000D02*
X113919000Y-80772000D01*
X113919000Y-80772000D02*
X113919000Y-81391760D01*
X113919000Y-84836000D02*
X119761000Y-84836000D01*
X119761000Y-84836000D02*
X119761000Y-84216240D01*
X119761000Y-81391760D02*
X119761000Y-80772000D01*
X113919000Y-84216240D02*
X113919000Y-84836000D01*
D13*
G04 #@! TO.C,D2*
X124192500Y-91340000D02*
X121907500Y-91340000D01*
X124192500Y-92810000D02*
X124192500Y-91340000D01*
X121907500Y-92810000D02*
X124192500Y-92810000D01*
G04 #@! TO.C,D3*
X121907500Y-95350000D02*
X124192500Y-95350000D01*
X124192500Y-95350000D02*
X124192500Y-93880000D01*
X124192500Y-93880000D02*
X121907500Y-93880000D01*
D12*
G04 #@! TO.C,D4*
X133290000Y-89930000D02*
X133290000Y-90205000D01*
X133290000Y-90205000D02*
X133565000Y-90580000D01*
X133565000Y-90580000D02*
X133615000Y-90580000D01*
X133615000Y-90580000D02*
X133615000Y-91355000D01*
X136590000Y-90105000D02*
X136590000Y-90580000D01*
X136590000Y-90580000D02*
X136240000Y-90580000D01*
X136365000Y-88930000D02*
X136240000Y-88930000D01*
X136290000Y-88930000D02*
X136590000Y-88930000D01*
X136590000Y-88930000D02*
X136590000Y-89380000D01*
X133290000Y-89305000D02*
X133290000Y-88930000D01*
X133290000Y-88930000D02*
X133590000Y-88930000D01*
D13*
G04 #@! TO.C,J1*
X113945000Y-78260000D02*
X104945000Y-78260000D01*
X104945000Y-78260000D02*
X104945000Y-69060000D01*
X104945000Y-69060000D02*
X119545000Y-69060000D01*
X119545000Y-69060000D02*
X119545000Y-71860000D01*
X119545000Y-75460000D02*
X119545000Y-78260000D01*
X119545000Y-78260000D02*
X117545000Y-78260000D01*
X118045000Y-68820000D02*
X119785000Y-68820000D01*
X119785000Y-68820000D02*
X119785000Y-70560000D01*
G04 #@! TO.C,J2*
X148682615Y-84427587D02*
G75*
G02X148559000Y-83820000I1431385J607587D01*
G01*
X150721742Y-85252109D02*
G75*
G02X149506000Y-85252000I-607742J1432109D01*
G01*
X151546109Y-83212258D02*
G75*
G02X151546000Y-84428000I-1432109J-607742D01*
G01*
X149506258Y-82387891D02*
G75*
G02X150722000Y-82388000I607742J-1432109D01*
G01*
X148558508Y-83847011D02*
G75*
G02X148682000Y-83212000I1555492J27011D01*
G01*
X151669000Y-87320000D02*
G75*
G03X151669000Y-87320000I-1555000J0D01*
G01*
X148014000Y-81660000D02*
X148014000Y-89480000D01*
X153574000Y-81660000D02*
X153574000Y-89480000D01*
X146454000Y-81660000D02*
X146454000Y-89480000D01*
X153574000Y-81660000D02*
X146454000Y-81660000D01*
X153574000Y-89480000D02*
X146454000Y-89480000D01*
X147954000Y-81420000D02*
X146214000Y-81420000D01*
X146214000Y-81420000D02*
X146214000Y-82920000D01*
D14*
G04 #@! TO.C,L1*
X135845550Y-79159100D02*
X144303750Y-79159100D01*
X144303750Y-79159100D02*
X144303750Y-70700900D01*
X144303750Y-70700900D02*
X135845550Y-70700900D01*
X135845550Y-70700900D02*
X135845550Y-79159100D01*
X135693150Y-74930000D02*
G75*
G03X135693150Y-74930000I-76200J0D01*
G01*
D13*
G04 #@! TO.C,R1*
X117756000Y-87414000D02*
X118356000Y-87414000D01*
X117776000Y-85814000D02*
X118376000Y-85814000D01*
G04 #@! TO.C,R2*
X118010000Y-90335000D02*
X118610000Y-90335000D01*
X118030000Y-88735000D02*
X118630000Y-88735000D01*
G04 #@! TO.C,R3*
X122255000Y-88735000D02*
X122855000Y-88735000D01*
X122235000Y-90335000D02*
X122835000Y-90335000D01*
G04 #@! TO.C,R4*
X124360000Y-87160000D02*
X124960000Y-87160000D01*
X124380000Y-85560000D02*
X124980000Y-85560000D01*
G04 #@! TO.C,R5*
X118630000Y-92875000D02*
X118030000Y-92875000D01*
X118650000Y-91275000D02*
X118050000Y-91275000D01*
G04 #@! TO.C,R6*
X118650000Y-93815000D02*
X118050000Y-93815000D01*
X118630000Y-95415000D02*
X118030000Y-95415000D01*
G04 #@! TO.C,R7*
X127470000Y-78640000D02*
X127470000Y-79240000D01*
X129070000Y-78660000D02*
X129070000Y-79260000D01*
G04 #@! TO.C,R8*
X130382000Y-95034000D02*
X129782000Y-95034000D01*
X130402000Y-93434000D02*
X129802000Y-93434000D01*
G04 #@! TO.C,R9*
X129762000Y-97066000D02*
X130362000Y-97066000D01*
X129782000Y-95466000D02*
X130382000Y-95466000D01*
G04 #@! TO.C,R10*
X129782000Y-97498000D02*
X130382000Y-97498000D01*
X129762000Y-99098000D02*
X130362000Y-99098000D01*
D12*
G04 #@! TO.C,R11*
X143245000Y-82655000D02*
X143245000Y-82155000D01*
X143245000Y-82655000D02*
X143245000Y-83155000D01*
X145045000Y-82655000D02*
X145045000Y-82155000D01*
X145045000Y-82655000D02*
X145045000Y-83155000D01*
X143845000Y-85255000D02*
X144445000Y-85255000D01*
X143845000Y-80055000D02*
X144445000Y-80055000D01*
D13*
G04 #@! TO.C,R12*
X140805000Y-87515000D02*
X140805000Y-86915000D01*
X142405000Y-87535000D02*
X142405000Y-86935000D01*
G04 #@! TO.C,R13*
X144945000Y-87745000D02*
X144945000Y-88345000D01*
X143345000Y-87725000D02*
X143345000Y-88325000D01*
D14*
G04 #@! TO.C,U1*
X128371600Y-86766400D02*
X129334854Y-86766400D01*
X132740400Y-86766400D02*
X132740400Y-85802958D01*
X132740400Y-82397600D02*
X131777146Y-82397600D01*
X128371600Y-82397600D02*
X128371600Y-83361042D01*
X128371600Y-85802958D02*
X128371600Y-86766400D01*
X131777146Y-86766400D02*
X132740400Y-86766400D01*
X132740400Y-83361042D02*
X132740400Y-82397600D01*
X129334854Y-82397600D02*
X128371600Y-82397600D01*
X133214001Y-84641499D02*
X133214001Y-85022500D01*
X133214001Y-85022500D02*
X132960001Y-85022500D01*
X132960001Y-85022500D02*
X132960001Y-84641499D01*
X132960001Y-84641499D02*
X133214001Y-84641499D01*
D12*
G04 #@! TO.C,Q1*
X131685000Y-72330000D02*
X131410000Y-72330000D01*
X131410000Y-72330000D02*
X131035000Y-72605000D01*
X131035000Y-72605000D02*
X131035000Y-72655000D01*
X131035000Y-72655000D02*
X130260000Y-72655000D01*
X131510000Y-75630000D02*
X131035000Y-75630000D01*
X131035000Y-75630000D02*
X131035000Y-75280000D01*
X132685000Y-75405000D02*
X132685000Y-75280000D01*
X132685000Y-75330000D02*
X132685000Y-75630000D01*
X132685000Y-75630000D02*
X132235000Y-75630000D01*
X132310000Y-72330000D02*
X132685000Y-72330000D01*
X132685000Y-72330000D02*
X132685000Y-72630000D01*
G04 #@! TO.C,Q2*
X130750000Y-78135000D02*
X131050000Y-78135000D01*
X130750000Y-78510000D02*
X130750000Y-78135000D01*
X134050000Y-78135000D02*
X134050000Y-78585000D01*
X133750000Y-78135000D02*
X134050000Y-78135000D01*
X133825000Y-78135000D02*
X133700000Y-78135000D01*
X134050000Y-79785000D02*
X133700000Y-79785000D01*
X134050000Y-79310000D02*
X134050000Y-79785000D01*
X131075000Y-79785000D02*
X131075000Y-80560000D01*
X131025000Y-79785000D02*
X131075000Y-79785000D01*
X130750000Y-79410000D02*
X131025000Y-79785000D01*
X130750000Y-79135000D02*
X130750000Y-79410000D01*
G04 #@! TO.C,C1*
D15*
X126071333Y-80621142D02*
X126023714Y-80668761D01*
X125880857Y-80716380D01*
X125785619Y-80716380D01*
X125642761Y-80668761D01*
X125547523Y-80573523D01*
X125499904Y-80478285D01*
X125452285Y-80287809D01*
X125452285Y-80144952D01*
X125499904Y-79954476D01*
X125547523Y-79859238D01*
X125642761Y-79764000D01*
X125785619Y-79716380D01*
X125880857Y-79716380D01*
X126023714Y-79764000D01*
X126071333Y-79811619D01*
X127023714Y-80716380D02*
X126452285Y-80716380D01*
X126738000Y-80716380D02*
X126738000Y-79716380D01*
X126642761Y-79859238D01*
X126547523Y-79954476D01*
X126452285Y-80002095D01*
G04 #@! TO.C,C2*
X121499333Y-86463142D02*
X121451714Y-86510761D01*
X121308857Y-86558380D01*
X121213619Y-86558380D01*
X121070761Y-86510761D01*
X120975523Y-86415523D01*
X120927904Y-86320285D01*
X120880285Y-86129809D01*
X120880285Y-85986952D01*
X120927904Y-85796476D01*
X120975523Y-85701238D01*
X121070761Y-85606000D01*
X121213619Y-85558380D01*
X121308857Y-85558380D01*
X121451714Y-85606000D01*
X121499333Y-85653619D01*
X121880285Y-85653619D02*
X121927904Y-85606000D01*
X122023142Y-85558380D01*
X122261238Y-85558380D01*
X122356476Y-85606000D01*
X122404095Y-85653619D01*
X122451714Y-85748857D01*
X122451714Y-85844095D01*
X122404095Y-85986952D01*
X121832666Y-86558380D01*
X122451714Y-86558380D01*
G04 #@! TO.C,C3*
X123243333Y-72177142D02*
X123195714Y-72224761D01*
X123052857Y-72272380D01*
X122957619Y-72272380D01*
X122814761Y-72224761D01*
X122719523Y-72129523D01*
X122671904Y-72034285D01*
X122624285Y-71843809D01*
X122624285Y-71700952D01*
X122671904Y-71510476D01*
X122719523Y-71415238D01*
X122814761Y-71320000D01*
X122957619Y-71272380D01*
X123052857Y-71272380D01*
X123195714Y-71320000D01*
X123243333Y-71367619D01*
X123576666Y-71272380D02*
X124195714Y-71272380D01*
X123862380Y-71653333D01*
X124005238Y-71653333D01*
X124100476Y-71700952D01*
X124148095Y-71748571D01*
X124195714Y-71843809D01*
X124195714Y-72081904D01*
X124148095Y-72177142D01*
X124100476Y-72224761D01*
X124005238Y-72272380D01*
X123719523Y-72272380D01*
X123624285Y-72224761D01*
X123576666Y-72177142D01*
G04 #@! TO.C,C4*
X126071333Y-75287142D02*
X126023714Y-75334761D01*
X125880857Y-75382380D01*
X125785619Y-75382380D01*
X125642761Y-75334761D01*
X125547523Y-75239523D01*
X125499904Y-75144285D01*
X125452285Y-74953809D01*
X125452285Y-74810952D01*
X125499904Y-74620476D01*
X125547523Y-74525238D01*
X125642761Y-74430000D01*
X125785619Y-74382380D01*
X125880857Y-74382380D01*
X126023714Y-74430000D01*
X126071333Y-74477619D01*
X126928476Y-74715714D02*
X126928476Y-75382380D01*
X126690380Y-74334761D02*
X126452285Y-75049047D01*
X127071333Y-75049047D01*
G04 #@! TO.C,C5*
X126071333Y-78081142D02*
X126023714Y-78128761D01*
X125880857Y-78176380D01*
X125785619Y-78176380D01*
X125642761Y-78128761D01*
X125547523Y-78033523D01*
X125499904Y-77938285D01*
X125452285Y-77747809D01*
X125452285Y-77604952D01*
X125499904Y-77414476D01*
X125547523Y-77319238D01*
X125642761Y-77224000D01*
X125785619Y-77176380D01*
X125880857Y-77176380D01*
X126023714Y-77224000D01*
X126071333Y-77271619D01*
X126976095Y-77176380D02*
X126499904Y-77176380D01*
X126452285Y-77652571D01*
X126499904Y-77604952D01*
X126595142Y-77557333D01*
X126833238Y-77557333D01*
X126928476Y-77604952D01*
X126976095Y-77652571D01*
X127023714Y-77747809D01*
X127023714Y-77985904D01*
X126976095Y-78081142D01*
X126928476Y-78128761D01*
X126833238Y-78176380D01*
X126595142Y-78176380D01*
X126499904Y-78128761D01*
X126452285Y-78081142D01*
G04 #@! TO.C,C6*
X125563333Y-88495142D02*
X125515714Y-88542761D01*
X125372857Y-88590380D01*
X125277619Y-88590380D01*
X125134761Y-88542761D01*
X125039523Y-88447523D01*
X124991904Y-88352285D01*
X124944285Y-88161809D01*
X124944285Y-88018952D01*
X124991904Y-87828476D01*
X125039523Y-87733238D01*
X125134761Y-87638000D01*
X125277619Y-87590380D01*
X125372857Y-87590380D01*
X125515714Y-87638000D01*
X125563333Y-87685619D01*
X126420476Y-87590380D02*
X126230000Y-87590380D01*
X126134761Y-87638000D01*
X126087142Y-87685619D01*
X125991904Y-87828476D01*
X125944285Y-88018952D01*
X125944285Y-88399904D01*
X125991904Y-88495142D01*
X126039523Y-88542761D01*
X126134761Y-88590380D01*
X126325238Y-88590380D01*
X126420476Y-88542761D01*
X126468095Y-88495142D01*
X126515714Y-88399904D01*
X126515714Y-88161809D01*
X126468095Y-88066571D01*
X126420476Y-88018952D01*
X126325238Y-87971333D01*
X126134761Y-87971333D01*
X126039523Y-88018952D01*
X125991904Y-88066571D01*
X125944285Y-88161809D01*
G04 #@! TO.C,C7*
X129153333Y-90592142D02*
X129105714Y-90639761D01*
X128962857Y-90687380D01*
X128867619Y-90687380D01*
X128724761Y-90639761D01*
X128629523Y-90544523D01*
X128581904Y-90449285D01*
X128534285Y-90258809D01*
X128534285Y-90115952D01*
X128581904Y-89925476D01*
X128629523Y-89830238D01*
X128724761Y-89735000D01*
X128867619Y-89687380D01*
X128962857Y-89687380D01*
X129105714Y-89735000D01*
X129153333Y-89782619D01*
X129486666Y-89687380D02*
X130153333Y-89687380D01*
X129724761Y-90687380D01*
G04 #@! TO.C,C8*
X134453333Y-97639142D02*
X134405714Y-97686761D01*
X134262857Y-97734380D01*
X134167619Y-97734380D01*
X134024761Y-97686761D01*
X133929523Y-97591523D01*
X133881904Y-97496285D01*
X133834285Y-97305809D01*
X133834285Y-97162952D01*
X133881904Y-96972476D01*
X133929523Y-96877238D01*
X134024761Y-96782000D01*
X134167619Y-96734380D01*
X134262857Y-96734380D01*
X134405714Y-96782000D01*
X134453333Y-96829619D01*
X135024761Y-97162952D02*
X134929523Y-97115333D01*
X134881904Y-97067714D01*
X134834285Y-96972476D01*
X134834285Y-96924857D01*
X134881904Y-96829619D01*
X134929523Y-96782000D01*
X135024761Y-96734380D01*
X135215238Y-96734380D01*
X135310476Y-96782000D01*
X135358095Y-96829619D01*
X135405714Y-96924857D01*
X135405714Y-96972476D01*
X135358095Y-97067714D01*
X135310476Y-97115333D01*
X135215238Y-97162952D01*
X135024761Y-97162952D01*
X134929523Y-97210571D01*
X134881904Y-97258190D01*
X134834285Y-97353428D01*
X134834285Y-97543904D01*
X134881904Y-97639142D01*
X134929523Y-97686761D01*
X135024761Y-97734380D01*
X135215238Y-97734380D01*
X135310476Y-97686761D01*
X135358095Y-97639142D01*
X135405714Y-97543904D01*
X135405714Y-97353428D01*
X135358095Y-97258190D01*
X135310476Y-97210571D01*
X135215238Y-97162952D01*
G04 #@! TO.C,C9*
X136993333Y-97639142D02*
X136945714Y-97686761D01*
X136802857Y-97734380D01*
X136707619Y-97734380D01*
X136564761Y-97686761D01*
X136469523Y-97591523D01*
X136421904Y-97496285D01*
X136374285Y-97305809D01*
X136374285Y-97162952D01*
X136421904Y-96972476D01*
X136469523Y-96877238D01*
X136564761Y-96782000D01*
X136707619Y-96734380D01*
X136802857Y-96734380D01*
X136945714Y-96782000D01*
X136993333Y-96829619D01*
X137469523Y-97734380D02*
X137660000Y-97734380D01*
X137755238Y-97686761D01*
X137802857Y-97639142D01*
X137898095Y-97496285D01*
X137945714Y-97305809D01*
X137945714Y-96924857D01*
X137898095Y-96829619D01*
X137850476Y-96782000D01*
X137755238Y-96734380D01*
X137564761Y-96734380D01*
X137469523Y-96782000D01*
X137421904Y-96829619D01*
X137374285Y-96924857D01*
X137374285Y-97162952D01*
X137421904Y-97258190D01*
X137469523Y-97305809D01*
X137564761Y-97353428D01*
X137755238Y-97353428D01*
X137850476Y-97305809D01*
X137898095Y-97258190D01*
X137945714Y-97162952D01*
G04 #@! TO.C,C10*
X139057142Y-96877142D02*
X139009523Y-96924761D01*
X138866666Y-96972380D01*
X138771428Y-96972380D01*
X138628571Y-96924761D01*
X138533333Y-96829523D01*
X138485714Y-96734285D01*
X138438095Y-96543809D01*
X138438095Y-96400952D01*
X138485714Y-96210476D01*
X138533333Y-96115238D01*
X138628571Y-96020000D01*
X138771428Y-95972380D01*
X138866666Y-95972380D01*
X139009523Y-96020000D01*
X139057142Y-96067619D01*
X140009523Y-96972380D02*
X139438095Y-96972380D01*
X139723809Y-96972380D02*
X139723809Y-95972380D01*
X139628571Y-96115238D01*
X139533333Y-96210476D01*
X139438095Y-96258095D01*
X140628571Y-95972380D02*
X140723809Y-95972380D01*
X140819047Y-96020000D01*
X140866666Y-96067619D01*
X140914285Y-96162857D01*
X140961904Y-96353333D01*
X140961904Y-96591428D01*
X140914285Y-96781904D01*
X140866666Y-96877142D01*
X140819047Y-96924761D01*
X140723809Y-96972380D01*
X140628571Y-96972380D01*
X140533333Y-96924761D01*
X140485714Y-96877142D01*
X140438095Y-96781904D01*
X140390476Y-96591428D01*
X140390476Y-96353333D01*
X140438095Y-96162857D01*
X140485714Y-96067619D01*
X140533333Y-96020000D01*
X140628571Y-95972380D01*
G04 #@! TO.C,C11*
X142359142Y-95099142D02*
X142311523Y-95146761D01*
X142168666Y-95194380D01*
X142073428Y-95194380D01*
X141930571Y-95146761D01*
X141835333Y-95051523D01*
X141787714Y-94956285D01*
X141740095Y-94765809D01*
X141740095Y-94622952D01*
X141787714Y-94432476D01*
X141835333Y-94337238D01*
X141930571Y-94242000D01*
X142073428Y-94194380D01*
X142168666Y-94194380D01*
X142311523Y-94242000D01*
X142359142Y-94289619D01*
X143311523Y-95194380D02*
X142740095Y-95194380D01*
X143025809Y-95194380D02*
X143025809Y-94194380D01*
X142930571Y-94337238D01*
X142835333Y-94432476D01*
X142740095Y-94480095D01*
X144263904Y-95194380D02*
X143692476Y-95194380D01*
X143978190Y-95194380D02*
X143978190Y-94194380D01*
X143882952Y-94337238D01*
X143787714Y-94432476D01*
X143692476Y-94480095D01*
G04 #@! TO.C,C12*
X136517142Y-80875142D02*
X136469523Y-80922761D01*
X136326666Y-80970380D01*
X136231428Y-80970380D01*
X136088571Y-80922761D01*
X135993333Y-80827523D01*
X135945714Y-80732285D01*
X135898095Y-80541809D01*
X135898095Y-80398952D01*
X135945714Y-80208476D01*
X135993333Y-80113238D01*
X136088571Y-80018000D01*
X136231428Y-79970380D01*
X136326666Y-79970380D01*
X136469523Y-80018000D01*
X136517142Y-80065619D01*
X137469523Y-80970380D02*
X136898095Y-80970380D01*
X137183809Y-80970380D02*
X137183809Y-79970380D01*
X137088571Y-80113238D01*
X136993333Y-80208476D01*
X136898095Y-80256095D01*
X137850476Y-80065619D02*
X137898095Y-80018000D01*
X137993333Y-79970380D01*
X138231428Y-79970380D01*
X138326666Y-80018000D01*
X138374285Y-80065619D01*
X138421904Y-80160857D01*
X138421904Y-80256095D01*
X138374285Y-80398952D01*
X137802857Y-80970380D01*
X138421904Y-80970380D01*
G04 #@! TO.C,C13*
X136312142Y-87987142D02*
X136264523Y-88034761D01*
X136121666Y-88082380D01*
X136026428Y-88082380D01*
X135883571Y-88034761D01*
X135788333Y-87939523D01*
X135740714Y-87844285D01*
X135693095Y-87653809D01*
X135693095Y-87510952D01*
X135740714Y-87320476D01*
X135788333Y-87225238D01*
X135883571Y-87130000D01*
X136026428Y-87082380D01*
X136121666Y-87082380D01*
X136264523Y-87130000D01*
X136312142Y-87177619D01*
X137264523Y-88082380D02*
X136693095Y-88082380D01*
X136978809Y-88082380D02*
X136978809Y-87082380D01*
X136883571Y-87225238D01*
X136788333Y-87320476D01*
X136693095Y-87368095D01*
X137597857Y-87082380D02*
X138216904Y-87082380D01*
X137883571Y-87463333D01*
X138026428Y-87463333D01*
X138121666Y-87510952D01*
X138169285Y-87558571D01*
X138216904Y-87653809D01*
X138216904Y-87891904D01*
X138169285Y-87987142D01*
X138121666Y-88034761D01*
X138026428Y-88082380D01*
X137740714Y-88082380D01*
X137645476Y-88034761D01*
X137597857Y-87987142D01*
G04 #@! TO.C,C14*
X139565142Y-80367142D02*
X139517523Y-80414761D01*
X139374666Y-80462380D01*
X139279428Y-80462380D01*
X139136571Y-80414761D01*
X139041333Y-80319523D01*
X138993714Y-80224285D01*
X138946095Y-80033809D01*
X138946095Y-79890952D01*
X138993714Y-79700476D01*
X139041333Y-79605238D01*
X139136571Y-79510000D01*
X139279428Y-79462380D01*
X139374666Y-79462380D01*
X139517523Y-79510000D01*
X139565142Y-79557619D01*
X140517523Y-80462380D02*
X139946095Y-80462380D01*
X140231809Y-80462380D02*
X140231809Y-79462380D01*
X140136571Y-79605238D01*
X140041333Y-79700476D01*
X139946095Y-79748095D01*
X141374666Y-79795714D02*
X141374666Y-80462380D01*
X141136571Y-79414761D02*
X140898476Y-80129047D01*
X141517523Y-80129047D01*
G04 #@! TO.C,D1*
X111783904Y-83256380D02*
X111783904Y-82256380D01*
X112022000Y-82256380D01*
X112164857Y-82304000D01*
X112260095Y-82399238D01*
X112307714Y-82494476D01*
X112355333Y-82684952D01*
X112355333Y-82827809D01*
X112307714Y-83018285D01*
X112260095Y-83113523D01*
X112164857Y-83208761D01*
X112022000Y-83256380D01*
X111783904Y-83256380D01*
X113307714Y-83256380D02*
X112736285Y-83256380D01*
X113022000Y-83256380D02*
X113022000Y-82256380D01*
X112926761Y-82399238D01*
X112831523Y-82494476D01*
X112736285Y-82542095D01*
X116840000Y-82256380D02*
X116840000Y-82494476D01*
X116601904Y-82399238D02*
X116840000Y-82494476D01*
X117078095Y-82399238D01*
X116697142Y-82684952D02*
X116840000Y-82494476D01*
X116982857Y-82684952D01*
G04 #@! TO.C,D2*
X124483904Y-93924380D02*
X124483904Y-92924380D01*
X124722000Y-92924380D01*
X124864857Y-92972000D01*
X124960095Y-93067238D01*
X125007714Y-93162476D01*
X125055333Y-93352952D01*
X125055333Y-93495809D01*
X125007714Y-93686285D01*
X124960095Y-93781523D01*
X124864857Y-93876761D01*
X124722000Y-93924380D01*
X124483904Y-93924380D01*
X125436285Y-93019619D02*
X125483904Y-92972000D01*
X125579142Y-92924380D01*
X125817238Y-92924380D01*
X125912476Y-92972000D01*
X125960095Y-93019619D01*
X126007714Y-93114857D01*
X126007714Y-93210095D01*
X125960095Y-93352952D01*
X125388666Y-93924380D01*
X126007714Y-93924380D01*
G04 #@! TO.C,D3*
X124483904Y-96210380D02*
X124483904Y-95210380D01*
X124722000Y-95210380D01*
X124864857Y-95258000D01*
X124960095Y-95353238D01*
X125007714Y-95448476D01*
X125055333Y-95638952D01*
X125055333Y-95781809D01*
X125007714Y-95972285D01*
X124960095Y-96067523D01*
X124864857Y-96162761D01*
X124722000Y-96210380D01*
X124483904Y-96210380D01*
X125388666Y-95210380D02*
X126007714Y-95210380D01*
X125674380Y-95591333D01*
X125817238Y-95591333D01*
X125912476Y-95638952D01*
X125960095Y-95686571D01*
X126007714Y-95781809D01*
X126007714Y-96019904D01*
X125960095Y-96115142D01*
X125912476Y-96162761D01*
X125817238Y-96210380D01*
X125531523Y-96210380D01*
X125436285Y-96162761D01*
X125388666Y-96115142D01*
G04 #@! TO.C,D4*
X131595904Y-91384380D02*
X131595904Y-90384380D01*
X131834000Y-90384380D01*
X131976857Y-90432000D01*
X132072095Y-90527238D01*
X132119714Y-90622476D01*
X132167333Y-90812952D01*
X132167333Y-90955809D01*
X132119714Y-91146285D01*
X132072095Y-91241523D01*
X131976857Y-91336761D01*
X131834000Y-91384380D01*
X131595904Y-91384380D01*
X133024476Y-90717714D02*
X133024476Y-91384380D01*
X132786380Y-90336761D02*
X132548285Y-91051047D01*
X133167333Y-91051047D01*
G04 #@! TO.C,J1*
X110664666Y-79208380D02*
X110664666Y-79922666D01*
X110617047Y-80065523D01*
X110521809Y-80160761D01*
X110378952Y-80208380D01*
X110283714Y-80208380D01*
X111664666Y-80208380D02*
X111093238Y-80208380D01*
X111378952Y-80208380D02*
X111378952Y-79208380D01*
X111283714Y-79351238D01*
X111188476Y-79446476D01*
X111093238Y-79494095D01*
G04 #@! TO.C,J2*
X149780666Y-79970380D02*
X149780666Y-80684666D01*
X149733047Y-80827523D01*
X149637809Y-80922761D01*
X149494952Y-80970380D01*
X149399714Y-80970380D01*
X150209238Y-80065619D02*
X150256857Y-80018000D01*
X150352095Y-79970380D01*
X150590190Y-79970380D01*
X150685428Y-80018000D01*
X150733047Y-80065619D01*
X150780666Y-80160857D01*
X150780666Y-80256095D01*
X150733047Y-80398952D01*
X150161619Y-80970380D01*
X150780666Y-80970380D01*
G04 #@! TO.C,L1*
X145629333Y-75128380D02*
X145153142Y-75128380D01*
X145153142Y-74128380D01*
X146486476Y-75128380D02*
X145915047Y-75128380D01*
X146200761Y-75128380D02*
X146200761Y-74128380D01*
X146105523Y-74271238D01*
X146010285Y-74366476D01*
X145915047Y-74414095D01*
X138977833Y-75699880D02*
X138406404Y-75699880D01*
X138692119Y-75699880D02*
X138692119Y-74699880D01*
X138596880Y-74842738D01*
X138501642Y-74937976D01*
X138406404Y-74985595D01*
X139596880Y-74699880D02*
X139692119Y-74699880D01*
X139787357Y-74747500D01*
X139834976Y-74795119D01*
X139882595Y-74890357D01*
X139930214Y-75080833D01*
X139930214Y-75318928D01*
X139882595Y-75509404D01*
X139834976Y-75604642D01*
X139787357Y-75652261D01*
X139692119Y-75699880D01*
X139596880Y-75699880D01*
X139501642Y-75652261D01*
X139454023Y-75604642D01*
X139406404Y-75509404D01*
X139358785Y-75318928D01*
X139358785Y-75080833D01*
X139406404Y-74890357D01*
X139454023Y-74795119D01*
X139501642Y-74747500D01*
X139596880Y-74699880D01*
X140787357Y-75033214D02*
X140787357Y-75699880D01*
X140358785Y-75033214D02*
X140358785Y-75557023D01*
X140406404Y-75652261D01*
X140501642Y-75699880D01*
X140644500Y-75699880D01*
X140739738Y-75652261D01*
X140787357Y-75604642D01*
X141263547Y-75699880D02*
X141263547Y-74699880D01*
X141263547Y-75176071D02*
X141834976Y-75176071D01*
X141834976Y-75699880D02*
X141834976Y-74699880D01*
X140074650Y-74382380D02*
X140074650Y-74620476D01*
X139836554Y-74525238D02*
X140074650Y-74620476D01*
X140312745Y-74525238D01*
X139931792Y-74810952D02*
X140074650Y-74620476D01*
X140217507Y-74810952D01*
G04 #@! TO.C,R1*
X114895333Y-87066380D02*
X114562000Y-86590190D01*
X114323904Y-87066380D02*
X114323904Y-86066380D01*
X114704857Y-86066380D01*
X114800095Y-86114000D01*
X114847714Y-86161619D01*
X114895333Y-86256857D01*
X114895333Y-86399714D01*
X114847714Y-86494952D01*
X114800095Y-86542571D01*
X114704857Y-86590190D01*
X114323904Y-86590190D01*
X115847714Y-87066380D02*
X115276285Y-87066380D01*
X115562000Y-87066380D02*
X115562000Y-86066380D01*
X115466761Y-86209238D01*
X115371523Y-86304476D01*
X115276285Y-86352095D01*
G04 #@! TO.C,R2*
X114895333Y-89860380D02*
X114562000Y-89384190D01*
X114323904Y-89860380D02*
X114323904Y-88860380D01*
X114704857Y-88860380D01*
X114800095Y-88908000D01*
X114847714Y-88955619D01*
X114895333Y-89050857D01*
X114895333Y-89193714D01*
X114847714Y-89288952D01*
X114800095Y-89336571D01*
X114704857Y-89384190D01*
X114323904Y-89384190D01*
X115276285Y-88955619D02*
X115323904Y-88908000D01*
X115419142Y-88860380D01*
X115657238Y-88860380D01*
X115752476Y-88908000D01*
X115800095Y-88955619D01*
X115847714Y-89050857D01*
X115847714Y-89146095D01*
X115800095Y-89288952D01*
X115228666Y-89860380D01*
X115847714Y-89860380D01*
G04 #@! TO.C,R3*
X121245333Y-88336380D02*
X120912000Y-87860190D01*
X120673904Y-88336380D02*
X120673904Y-87336380D01*
X121054857Y-87336380D01*
X121150095Y-87384000D01*
X121197714Y-87431619D01*
X121245333Y-87526857D01*
X121245333Y-87669714D01*
X121197714Y-87764952D01*
X121150095Y-87812571D01*
X121054857Y-87860190D01*
X120673904Y-87860190D01*
X121578666Y-87336380D02*
X122197714Y-87336380D01*
X121864380Y-87717333D01*
X122007238Y-87717333D01*
X122102476Y-87764952D01*
X122150095Y-87812571D01*
X122197714Y-87907809D01*
X122197714Y-88145904D01*
X122150095Y-88241142D01*
X122102476Y-88288761D01*
X122007238Y-88336380D01*
X121721523Y-88336380D01*
X121626285Y-88288761D01*
X121578666Y-88241142D01*
G04 #@! TO.C,R4*
X121499333Y-84780380D02*
X121166000Y-84304190D01*
X120927904Y-84780380D02*
X120927904Y-83780380D01*
X121308857Y-83780380D01*
X121404095Y-83828000D01*
X121451714Y-83875619D01*
X121499333Y-83970857D01*
X121499333Y-84113714D01*
X121451714Y-84208952D01*
X121404095Y-84256571D01*
X121308857Y-84304190D01*
X120927904Y-84304190D01*
X122356476Y-84113714D02*
X122356476Y-84780380D01*
X122118380Y-83732761D02*
X121880285Y-84447047D01*
X122499333Y-84447047D01*
G04 #@! TO.C,R5*
X114895333Y-92400380D02*
X114562000Y-91924190D01*
X114323904Y-92400380D02*
X114323904Y-91400380D01*
X114704857Y-91400380D01*
X114800095Y-91448000D01*
X114847714Y-91495619D01*
X114895333Y-91590857D01*
X114895333Y-91733714D01*
X114847714Y-91828952D01*
X114800095Y-91876571D01*
X114704857Y-91924190D01*
X114323904Y-91924190D01*
X115800095Y-91400380D02*
X115323904Y-91400380D01*
X115276285Y-91876571D01*
X115323904Y-91828952D01*
X115419142Y-91781333D01*
X115657238Y-91781333D01*
X115752476Y-91828952D01*
X115800095Y-91876571D01*
X115847714Y-91971809D01*
X115847714Y-92209904D01*
X115800095Y-92305142D01*
X115752476Y-92352761D01*
X115657238Y-92400380D01*
X115419142Y-92400380D01*
X115323904Y-92352761D01*
X115276285Y-92305142D01*
G04 #@! TO.C,R6*
X114895333Y-94940380D02*
X114562000Y-94464190D01*
X114323904Y-94940380D02*
X114323904Y-93940380D01*
X114704857Y-93940380D01*
X114800095Y-93988000D01*
X114847714Y-94035619D01*
X114895333Y-94130857D01*
X114895333Y-94273714D01*
X114847714Y-94368952D01*
X114800095Y-94416571D01*
X114704857Y-94464190D01*
X114323904Y-94464190D01*
X115752476Y-93940380D02*
X115562000Y-93940380D01*
X115466761Y-93988000D01*
X115419142Y-94035619D01*
X115323904Y-94178476D01*
X115276285Y-94368952D01*
X115276285Y-94749904D01*
X115323904Y-94845142D01*
X115371523Y-94892761D01*
X115466761Y-94940380D01*
X115657238Y-94940380D01*
X115752476Y-94892761D01*
X115800095Y-94845142D01*
X115847714Y-94749904D01*
X115847714Y-94511809D01*
X115800095Y-94416571D01*
X115752476Y-94368952D01*
X115657238Y-94321333D01*
X115466761Y-94321333D01*
X115371523Y-94368952D01*
X115323904Y-94416571D01*
X115276285Y-94511809D01*
G04 #@! TO.C,R7*
X128103333Y-76652380D02*
X127770000Y-76176190D01*
X127531904Y-76652380D02*
X127531904Y-75652380D01*
X127912857Y-75652380D01*
X128008095Y-75700000D01*
X128055714Y-75747619D01*
X128103333Y-75842857D01*
X128103333Y-75985714D01*
X128055714Y-76080952D01*
X128008095Y-76128571D01*
X127912857Y-76176190D01*
X127531904Y-76176190D01*
X128436666Y-75652380D02*
X129103333Y-75652380D01*
X128674761Y-76652380D01*
G04 #@! TO.C,R8*
X127087333Y-94940380D02*
X126754000Y-94464190D01*
X126515904Y-94940380D02*
X126515904Y-93940380D01*
X126896857Y-93940380D01*
X126992095Y-93988000D01*
X127039714Y-94035619D01*
X127087333Y-94130857D01*
X127087333Y-94273714D01*
X127039714Y-94368952D01*
X126992095Y-94416571D01*
X126896857Y-94464190D01*
X126515904Y-94464190D01*
X127658761Y-94368952D02*
X127563523Y-94321333D01*
X127515904Y-94273714D01*
X127468285Y-94178476D01*
X127468285Y-94130857D01*
X127515904Y-94035619D01*
X127563523Y-93988000D01*
X127658761Y-93940380D01*
X127849238Y-93940380D01*
X127944476Y-93988000D01*
X127992095Y-94035619D01*
X128039714Y-94130857D01*
X128039714Y-94178476D01*
X127992095Y-94273714D01*
X127944476Y-94321333D01*
X127849238Y-94368952D01*
X127658761Y-94368952D01*
X127563523Y-94416571D01*
X127515904Y-94464190D01*
X127468285Y-94559428D01*
X127468285Y-94749904D01*
X127515904Y-94845142D01*
X127563523Y-94892761D01*
X127658761Y-94940380D01*
X127849238Y-94940380D01*
X127944476Y-94892761D01*
X127992095Y-94845142D01*
X128039714Y-94749904D01*
X128039714Y-94559428D01*
X127992095Y-94464190D01*
X127944476Y-94416571D01*
X127849238Y-94368952D01*
G04 #@! TO.C,R9*
X127087333Y-96718380D02*
X126754000Y-96242190D01*
X126515904Y-96718380D02*
X126515904Y-95718380D01*
X126896857Y-95718380D01*
X126992095Y-95766000D01*
X127039714Y-95813619D01*
X127087333Y-95908857D01*
X127087333Y-96051714D01*
X127039714Y-96146952D01*
X126992095Y-96194571D01*
X126896857Y-96242190D01*
X126515904Y-96242190D01*
X127563523Y-96718380D02*
X127754000Y-96718380D01*
X127849238Y-96670761D01*
X127896857Y-96623142D01*
X127992095Y-96480285D01*
X128039714Y-96289809D01*
X128039714Y-95908857D01*
X127992095Y-95813619D01*
X127944476Y-95766000D01*
X127849238Y-95718380D01*
X127658761Y-95718380D01*
X127563523Y-95766000D01*
X127515904Y-95813619D01*
X127468285Y-95908857D01*
X127468285Y-96146952D01*
X127515904Y-96242190D01*
X127563523Y-96289809D01*
X127658761Y-96337428D01*
X127849238Y-96337428D01*
X127944476Y-96289809D01*
X127992095Y-96242190D01*
X128039714Y-96146952D01*
G04 #@! TO.C,R10*
X126103142Y-98750380D02*
X125769809Y-98274190D01*
X125531714Y-98750380D02*
X125531714Y-97750380D01*
X125912666Y-97750380D01*
X126007904Y-97798000D01*
X126055523Y-97845619D01*
X126103142Y-97940857D01*
X126103142Y-98083714D01*
X126055523Y-98178952D01*
X126007904Y-98226571D01*
X125912666Y-98274190D01*
X125531714Y-98274190D01*
X127055523Y-98750380D02*
X126484095Y-98750380D01*
X126769809Y-98750380D02*
X126769809Y-97750380D01*
X126674571Y-97893238D01*
X126579333Y-97988476D01*
X126484095Y-98036095D01*
X127674571Y-97750380D02*
X127769809Y-97750380D01*
X127865047Y-97798000D01*
X127912666Y-97845619D01*
X127960285Y-97940857D01*
X128007904Y-98131333D01*
X128007904Y-98369428D01*
X127960285Y-98559904D01*
X127912666Y-98655142D01*
X127865047Y-98702761D01*
X127769809Y-98750380D01*
X127674571Y-98750380D01*
X127579333Y-98702761D01*
X127531714Y-98655142D01*
X127484095Y-98559904D01*
X127436476Y-98369428D01*
X127436476Y-98131333D01*
X127484095Y-97940857D01*
X127531714Y-97845619D01*
X127579333Y-97798000D01*
X127674571Y-97750380D01*
G04 #@! TO.C,R11*
X146169142Y-80144880D02*
X145835809Y-79668690D01*
X145597714Y-80144880D02*
X145597714Y-79144880D01*
X145978666Y-79144880D01*
X146073904Y-79192500D01*
X146121523Y-79240119D01*
X146169142Y-79335357D01*
X146169142Y-79478214D01*
X146121523Y-79573452D01*
X146073904Y-79621071D01*
X145978666Y-79668690D01*
X145597714Y-79668690D01*
X147121523Y-80144880D02*
X146550095Y-80144880D01*
X146835809Y-80144880D02*
X146835809Y-79144880D01*
X146740571Y-79287738D01*
X146645333Y-79382976D01*
X146550095Y-79430595D01*
X148073904Y-80144880D02*
X147502476Y-80144880D01*
X147788190Y-80144880D02*
X147788190Y-79144880D01*
X147692952Y-79287738D01*
X147597714Y-79382976D01*
X147502476Y-79430595D01*
G04 #@! TO.C,R12*
X138612642Y-89479380D02*
X138279309Y-89003190D01*
X138041214Y-89479380D02*
X138041214Y-88479380D01*
X138422166Y-88479380D01*
X138517404Y-88527000D01*
X138565023Y-88574619D01*
X138612642Y-88669857D01*
X138612642Y-88812714D01*
X138565023Y-88907952D01*
X138517404Y-88955571D01*
X138422166Y-89003190D01*
X138041214Y-89003190D01*
X139565023Y-89479380D02*
X138993595Y-89479380D01*
X139279309Y-89479380D02*
X139279309Y-88479380D01*
X139184071Y-88622238D01*
X139088833Y-88717476D01*
X138993595Y-88765095D01*
X139945976Y-88574619D02*
X139993595Y-88527000D01*
X140088833Y-88479380D01*
X140326928Y-88479380D01*
X140422166Y-88527000D01*
X140469785Y-88574619D01*
X140517404Y-88669857D01*
X140517404Y-88765095D01*
X140469785Y-88907952D01*
X139898357Y-89479380D01*
X140517404Y-89479380D01*
G04 #@! TO.C,R13*
X144518142Y-91447880D02*
X144184809Y-90971690D01*
X143946714Y-91447880D02*
X143946714Y-90447880D01*
X144327666Y-90447880D01*
X144422904Y-90495500D01*
X144470523Y-90543119D01*
X144518142Y-90638357D01*
X144518142Y-90781214D01*
X144470523Y-90876452D01*
X144422904Y-90924071D01*
X144327666Y-90971690D01*
X143946714Y-90971690D01*
X145470523Y-91447880D02*
X144899095Y-91447880D01*
X145184809Y-91447880D02*
X145184809Y-90447880D01*
X145089571Y-90590738D01*
X144994333Y-90685976D01*
X144899095Y-90733595D01*
X145803857Y-90447880D02*
X146422904Y-90447880D01*
X146089571Y-90828833D01*
X146232428Y-90828833D01*
X146327666Y-90876452D01*
X146375285Y-90924071D01*
X146422904Y-91019309D01*
X146422904Y-91257404D01*
X146375285Y-91352642D01*
X146327666Y-91400261D01*
X146232428Y-91447880D01*
X145946714Y-91447880D01*
X145851476Y-91400261D01*
X145803857Y-91352642D01*
G04 #@! TO.C,U1*
X129794095Y-84034380D02*
X129794095Y-84843904D01*
X129841714Y-84939142D01*
X129889333Y-84986761D01*
X129984571Y-85034380D01*
X130175047Y-85034380D01*
X130270285Y-84986761D01*
X130317904Y-84939142D01*
X130365523Y-84843904D01*
X130365523Y-84034380D01*
X131365523Y-85034380D02*
X130794095Y-85034380D01*
X131079809Y-85034380D02*
X131079809Y-84034380D01*
X130984571Y-84177238D01*
X130889333Y-84272476D01*
X130794095Y-84320095D01*
X127635380Y-88463380D02*
X127635380Y-87463380D01*
X127635380Y-87844333D02*
X127730619Y-87796714D01*
X127921095Y-87796714D01*
X128016333Y-87844333D01*
X128063952Y-87891952D01*
X128111571Y-87987190D01*
X128111571Y-88272904D01*
X128063952Y-88368142D01*
X128016333Y-88415761D01*
X127921095Y-88463380D01*
X127730619Y-88463380D01*
X127635380Y-88415761D01*
X128968714Y-87796714D02*
X128968714Y-88796714D01*
X128968714Y-88415761D02*
X128873476Y-88463380D01*
X128683000Y-88463380D01*
X128587761Y-88415761D01*
X128540142Y-88368142D01*
X128492523Y-88272904D01*
X128492523Y-87987190D01*
X128540142Y-87891952D01*
X128587761Y-87844333D01*
X128683000Y-87796714D01*
X128873476Y-87796714D01*
X128968714Y-87844333D01*
X129397285Y-87558619D02*
X129444904Y-87511000D01*
X129540142Y-87463380D01*
X129778238Y-87463380D01*
X129873476Y-87511000D01*
X129921095Y-87558619D01*
X129968714Y-87653857D01*
X129968714Y-87749095D01*
X129921095Y-87891952D01*
X129349666Y-88463380D01*
X129968714Y-88463380D01*
X130825857Y-87796714D02*
X130825857Y-88463380D01*
X130587761Y-87415761D02*
X130349666Y-88130047D01*
X130968714Y-88130047D01*
X131778238Y-87463380D02*
X131587761Y-87463380D01*
X131492523Y-87511000D01*
X131444904Y-87558619D01*
X131349666Y-87701476D01*
X131302047Y-87891952D01*
X131302047Y-88272904D01*
X131349666Y-88368142D01*
X131397285Y-88415761D01*
X131492523Y-88463380D01*
X131683000Y-88463380D01*
X131778238Y-88415761D01*
X131825857Y-88368142D01*
X131873476Y-88272904D01*
X131873476Y-88034809D01*
X131825857Y-87939571D01*
X131778238Y-87891952D01*
X131683000Y-87844333D01*
X131492523Y-87844333D01*
X131397285Y-87891952D01*
X131349666Y-87939571D01*
X131302047Y-88034809D01*
X132778238Y-87463380D02*
X132302047Y-87463380D01*
X132254428Y-87939571D01*
X132302047Y-87891952D01*
X132397285Y-87844333D01*
X132635380Y-87844333D01*
X132730619Y-87891952D01*
X132778238Y-87939571D01*
X132825857Y-88034809D01*
X132825857Y-88272904D01*
X132778238Y-88368142D01*
X132730619Y-88415761D01*
X132635380Y-88463380D01*
X132397285Y-88463380D01*
X132302047Y-88415761D01*
X132254428Y-88368142D01*
X133444904Y-87463380D02*
X133540142Y-87463380D01*
X133635380Y-87511000D01*
X133683000Y-87558619D01*
X133730619Y-87653857D01*
X133778238Y-87844333D01*
X133778238Y-88082428D01*
X133730619Y-88272904D01*
X133683000Y-88368142D01*
X133635380Y-88415761D01*
X133540142Y-88463380D01*
X133444904Y-88463380D01*
X133349666Y-88415761D01*
X133302047Y-88368142D01*
X133254428Y-88272904D01*
X133206809Y-88082428D01*
X133206809Y-87844333D01*
X133254428Y-87653857D01*
X133302047Y-87558619D01*
X133349666Y-87511000D01*
X133444904Y-87463380D01*
X130556000Y-84034380D02*
X130556000Y-84272476D01*
X130317904Y-84177238D02*
X130556000Y-84272476D01*
X130794095Y-84177238D01*
X130413142Y-84462952D02*
X130556000Y-84272476D01*
X130698857Y-84462952D01*
G04 #@! TO.C,Q1*
X129190761Y-74461619D02*
X129095523Y-74414000D01*
X129000285Y-74318761D01*
X128857428Y-74175904D01*
X128762190Y-74128285D01*
X128666952Y-74128285D01*
X128714571Y-74366380D02*
X128619333Y-74318761D01*
X128524095Y-74223523D01*
X128476476Y-74033047D01*
X128476476Y-73699714D01*
X128524095Y-73509238D01*
X128619333Y-73414000D01*
X128714571Y-73366380D01*
X128905047Y-73366380D01*
X129000285Y-73414000D01*
X129095523Y-73509238D01*
X129143142Y-73699714D01*
X129143142Y-74033047D01*
X129095523Y-74223523D01*
X129000285Y-74318761D01*
X128905047Y-74366380D01*
X128714571Y-74366380D01*
X130095523Y-74366380D02*
X129524095Y-74366380D01*
X129809809Y-74366380D02*
X129809809Y-73366380D01*
X129714571Y-73509238D01*
X129619333Y-73604476D01*
X129524095Y-73652095D01*
G04 #@! TO.C,Q2*
X130206761Y-77255619D02*
X130111523Y-77208000D01*
X130016285Y-77112761D01*
X129873428Y-76969904D01*
X129778190Y-76922285D01*
X129682952Y-76922285D01*
X129730571Y-77160380D02*
X129635333Y-77112761D01*
X129540095Y-77017523D01*
X129492476Y-76827047D01*
X129492476Y-76493714D01*
X129540095Y-76303238D01*
X129635333Y-76208000D01*
X129730571Y-76160380D01*
X129921047Y-76160380D01*
X130016285Y-76208000D01*
X130111523Y-76303238D01*
X130159142Y-76493714D01*
X130159142Y-76827047D01*
X130111523Y-77017523D01*
X130016285Y-77112761D01*
X129921047Y-77160380D01*
X129730571Y-77160380D01*
X130540095Y-76255619D02*
X130587714Y-76208000D01*
X130682952Y-76160380D01*
X130921047Y-76160380D01*
X131016285Y-76208000D01*
X131063904Y-76255619D01*
X131111523Y-76350857D01*
X131111523Y-76446095D01*
X131063904Y-76588952D01*
X130492476Y-77160380D01*
X131111523Y-77160380D01*
G04 #@! TO.C,MT1*
X111585523Y-100274380D02*
X111585523Y-99274380D01*
X111918857Y-99988666D01*
X112252190Y-99274380D01*
X112252190Y-100274380D01*
X112585523Y-99274380D02*
X113156952Y-99274380D01*
X112871238Y-100274380D02*
X112871238Y-99274380D01*
X114014095Y-100274380D02*
X113442666Y-100274380D01*
X113728380Y-100274380D02*
X113728380Y-99274380D01*
X113633142Y-99417238D01*
X113537904Y-99512476D01*
X113442666Y-99560095D01*
G04 #@! TO.C,MT2*
X144859523Y-100528380D02*
X144859523Y-99528380D01*
X145192857Y-100242666D01*
X145526190Y-99528380D01*
X145526190Y-100528380D01*
X145859523Y-99528380D02*
X146430952Y-99528380D01*
X146145238Y-100528380D02*
X146145238Y-99528380D01*
X146716666Y-99623619D02*
X146764285Y-99576000D01*
X146859523Y-99528380D01*
X147097619Y-99528380D01*
X147192857Y-99576000D01*
X147240476Y-99623619D01*
X147288095Y-99718857D01*
X147288095Y-99814095D01*
X147240476Y-99956952D01*
X146669047Y-100528380D01*
X147288095Y-100528380D01*
G04 #@! TO.C,MT3*
X149431523Y-75382380D02*
X149431523Y-74382380D01*
X149764857Y-75096666D01*
X150098190Y-74382380D01*
X150098190Y-75382380D01*
X150431523Y-74382380D02*
X151002952Y-74382380D01*
X150717238Y-75382380D02*
X150717238Y-74382380D01*
X151241047Y-74382380D02*
X151860095Y-74382380D01*
X151526761Y-74763333D01*
X151669619Y-74763333D01*
X151764857Y-74810952D01*
X151812476Y-74858571D01*
X151860095Y-74953809D01*
X151860095Y-75191904D01*
X151812476Y-75287142D01*
X151764857Y-75334761D01*
X151669619Y-75382380D01*
X151383904Y-75382380D01*
X151288666Y-75334761D01*
X151241047Y-75287142D01*
G04 #@! TD*
M02*
