G04 #@! TF.GenerationSoftware,KiCad,Pcbnew,(5.0.1-3-g963ef8bb5)*
G04 #@! TF.CreationDate,2018-11-04T17:21:23-05:00*
G04 #@! TF.ProjectId,Solar LiPo Charger,536F6C6172204C69506F204368617267,1A*
G04 #@! TF.SameCoordinates,Original*
G04 #@! TF.FileFunction,Paste,Top*
G04 #@! TF.FilePolarity,Positive*
%FSLAX46Y46*%
G04 Gerber Fmt 4.6, Leading zero omitted, Abs format (unit mm)*
G04 Created by KiCad (PCBNEW (5.0.1-3-g963ef8bb5)) date Sunday, November 04, 2018 at 05:21:23 PM*
%MOMM*%
%LPD*%
G01*
G04 APERTURE LIST*
%ADD10R,0.900000X0.800000*%
%ADD11R,0.800000X0.900000*%
%ADD12R,1.200000X1.200000*%
%ADD13R,1.800000X1.500000*%
%ADD14R,1.500000X1.800000*%
%ADD15R,1.955800X2.159000*%
%ADD16C,0.100000*%
%ADD17C,0.875000*%
%ADD18R,1.790700X7.493000*%
%ADD19R,0.800000X0.280000*%
%ADD20R,0.280000X0.800000*%
%ADD21R,2.140000X2.140000*%
G04 APERTURE END LIST*
D10*
G04 #@! TO.C,Q2*
X134130000Y-79756000D03*
X132130000Y-80706000D03*
X132130000Y-78806000D03*
G04 #@! TD*
G04 #@! TO.C,Q1*
X132064000Y-75377000D03*
X130064000Y-76327000D03*
X130064000Y-74427000D03*
G04 #@! TD*
D11*
G04 #@! TO.C,D4*
X136210000Y-80790000D03*
X138110000Y-80790000D03*
X137160000Y-78790000D03*
G04 #@! TD*
D12*
G04 #@! TO.C,C6*
X127762000Y-78672000D03*
X127762000Y-80772000D03*
G04 #@! TD*
D13*
G04 #@! TO.C,C13*
X141732000Y-94024000D03*
X141732000Y-90424000D03*
G04 #@! TD*
D14*
G04 #@! TO.C,C1*
X125940000Y-70104000D03*
X129540000Y-70104000D03*
G04 #@! TD*
D12*
G04 #@! TO.C,C2*
X125730000Y-82042000D03*
X123630000Y-82042000D03*
G04 #@! TD*
G04 #@! TO.C,C3*
X124460000Y-74168000D03*
X122360000Y-74168000D03*
G04 #@! TD*
D14*
G04 #@! TO.C,C4*
X121920000Y-76708000D03*
X125520000Y-76708000D03*
G04 #@! TD*
G04 #@! TO.C,C5*
X125520000Y-79248000D03*
X121920000Y-79248000D03*
G04 #@! TD*
D12*
G04 #@! TO.C,C7*
X131894000Y-89662000D03*
X129794000Y-89662000D03*
G04 #@! TD*
G04 #@! TO.C,C8*
X147320000Y-90864000D03*
X147320000Y-92964000D03*
G04 #@! TD*
G04 #@! TO.C,C9*
X137668000Y-85598000D03*
X137668000Y-87698000D03*
G04 #@! TD*
G04 #@! TO.C,C10*
X140208000Y-85598000D03*
X140208000Y-87698000D03*
G04 #@! TD*
G04 #@! TO.C,C11*
X138244000Y-82804000D03*
X136144000Y-82804000D03*
G04 #@! TD*
D13*
G04 #@! TO.C,C12*
X144780000Y-90424000D03*
X144780000Y-94024000D03*
G04 #@! TD*
D12*
G04 #@! TO.C,C14*
X134112000Y-92143000D03*
X134112000Y-90043000D03*
G04 #@! TD*
D15*
G04 #@! TO.C,D1*
X118808500Y-83312000D03*
X114871500Y-83312000D03*
G04 #@! TD*
D16*
G04 #@! TO.C,D2*
G36*
X122160191Y-91093053D02*
X122181426Y-91096203D01*
X122202250Y-91101419D01*
X122222462Y-91108651D01*
X122241868Y-91117830D01*
X122260281Y-91128866D01*
X122277524Y-91141654D01*
X122293430Y-91156070D01*
X122307846Y-91171976D01*
X122320634Y-91189219D01*
X122331670Y-91207632D01*
X122340849Y-91227038D01*
X122348081Y-91247250D01*
X122353297Y-91268074D01*
X122356447Y-91289309D01*
X122357500Y-91310750D01*
X122357500Y-91823250D01*
X122356447Y-91844691D01*
X122353297Y-91865926D01*
X122348081Y-91886750D01*
X122340849Y-91906962D01*
X122331670Y-91926368D01*
X122320634Y-91944781D01*
X122307846Y-91962024D01*
X122293430Y-91977930D01*
X122277524Y-91992346D01*
X122260281Y-92005134D01*
X122241868Y-92016170D01*
X122222462Y-92025349D01*
X122202250Y-92032581D01*
X122181426Y-92037797D01*
X122160191Y-92040947D01*
X122138750Y-92042000D01*
X121701250Y-92042000D01*
X121679809Y-92040947D01*
X121658574Y-92037797D01*
X121637750Y-92032581D01*
X121617538Y-92025349D01*
X121598132Y-92016170D01*
X121579719Y-92005134D01*
X121562476Y-91992346D01*
X121546570Y-91977930D01*
X121532154Y-91962024D01*
X121519366Y-91944781D01*
X121508330Y-91926368D01*
X121499151Y-91906962D01*
X121491919Y-91886750D01*
X121486703Y-91865926D01*
X121483553Y-91844691D01*
X121482500Y-91823250D01*
X121482500Y-91310750D01*
X121483553Y-91289309D01*
X121486703Y-91268074D01*
X121491919Y-91247250D01*
X121499151Y-91227038D01*
X121508330Y-91207632D01*
X121519366Y-91189219D01*
X121532154Y-91171976D01*
X121546570Y-91156070D01*
X121562476Y-91141654D01*
X121579719Y-91128866D01*
X121598132Y-91117830D01*
X121617538Y-91108651D01*
X121637750Y-91101419D01*
X121658574Y-91096203D01*
X121679809Y-91093053D01*
X121701250Y-91092000D01*
X122138750Y-91092000D01*
X122160191Y-91093053D01*
X122160191Y-91093053D01*
G37*
D17*
X121920000Y-91567000D03*
D16*
G36*
X123735191Y-91093053D02*
X123756426Y-91096203D01*
X123777250Y-91101419D01*
X123797462Y-91108651D01*
X123816868Y-91117830D01*
X123835281Y-91128866D01*
X123852524Y-91141654D01*
X123868430Y-91156070D01*
X123882846Y-91171976D01*
X123895634Y-91189219D01*
X123906670Y-91207632D01*
X123915849Y-91227038D01*
X123923081Y-91247250D01*
X123928297Y-91268074D01*
X123931447Y-91289309D01*
X123932500Y-91310750D01*
X123932500Y-91823250D01*
X123931447Y-91844691D01*
X123928297Y-91865926D01*
X123923081Y-91886750D01*
X123915849Y-91906962D01*
X123906670Y-91926368D01*
X123895634Y-91944781D01*
X123882846Y-91962024D01*
X123868430Y-91977930D01*
X123852524Y-91992346D01*
X123835281Y-92005134D01*
X123816868Y-92016170D01*
X123797462Y-92025349D01*
X123777250Y-92032581D01*
X123756426Y-92037797D01*
X123735191Y-92040947D01*
X123713750Y-92042000D01*
X123276250Y-92042000D01*
X123254809Y-92040947D01*
X123233574Y-92037797D01*
X123212750Y-92032581D01*
X123192538Y-92025349D01*
X123173132Y-92016170D01*
X123154719Y-92005134D01*
X123137476Y-91992346D01*
X123121570Y-91977930D01*
X123107154Y-91962024D01*
X123094366Y-91944781D01*
X123083330Y-91926368D01*
X123074151Y-91906962D01*
X123066919Y-91886750D01*
X123061703Y-91865926D01*
X123058553Y-91844691D01*
X123057500Y-91823250D01*
X123057500Y-91310750D01*
X123058553Y-91289309D01*
X123061703Y-91268074D01*
X123066919Y-91247250D01*
X123074151Y-91227038D01*
X123083330Y-91207632D01*
X123094366Y-91189219D01*
X123107154Y-91171976D01*
X123121570Y-91156070D01*
X123137476Y-91141654D01*
X123154719Y-91128866D01*
X123173132Y-91117830D01*
X123192538Y-91108651D01*
X123212750Y-91101419D01*
X123233574Y-91096203D01*
X123254809Y-91093053D01*
X123276250Y-91092000D01*
X123713750Y-91092000D01*
X123735191Y-91093053D01*
X123735191Y-91093053D01*
G37*
D17*
X123495000Y-91567000D03*
G04 #@! TD*
D16*
G04 #@! TO.C,D3*
G36*
X123735191Y-93633053D02*
X123756426Y-93636203D01*
X123777250Y-93641419D01*
X123797462Y-93648651D01*
X123816868Y-93657830D01*
X123835281Y-93668866D01*
X123852524Y-93681654D01*
X123868430Y-93696070D01*
X123882846Y-93711976D01*
X123895634Y-93729219D01*
X123906670Y-93747632D01*
X123915849Y-93767038D01*
X123923081Y-93787250D01*
X123928297Y-93808074D01*
X123931447Y-93829309D01*
X123932500Y-93850750D01*
X123932500Y-94363250D01*
X123931447Y-94384691D01*
X123928297Y-94405926D01*
X123923081Y-94426750D01*
X123915849Y-94446962D01*
X123906670Y-94466368D01*
X123895634Y-94484781D01*
X123882846Y-94502024D01*
X123868430Y-94517930D01*
X123852524Y-94532346D01*
X123835281Y-94545134D01*
X123816868Y-94556170D01*
X123797462Y-94565349D01*
X123777250Y-94572581D01*
X123756426Y-94577797D01*
X123735191Y-94580947D01*
X123713750Y-94582000D01*
X123276250Y-94582000D01*
X123254809Y-94580947D01*
X123233574Y-94577797D01*
X123212750Y-94572581D01*
X123192538Y-94565349D01*
X123173132Y-94556170D01*
X123154719Y-94545134D01*
X123137476Y-94532346D01*
X123121570Y-94517930D01*
X123107154Y-94502024D01*
X123094366Y-94484781D01*
X123083330Y-94466368D01*
X123074151Y-94446962D01*
X123066919Y-94426750D01*
X123061703Y-94405926D01*
X123058553Y-94384691D01*
X123057500Y-94363250D01*
X123057500Y-93850750D01*
X123058553Y-93829309D01*
X123061703Y-93808074D01*
X123066919Y-93787250D01*
X123074151Y-93767038D01*
X123083330Y-93747632D01*
X123094366Y-93729219D01*
X123107154Y-93711976D01*
X123121570Y-93696070D01*
X123137476Y-93681654D01*
X123154719Y-93668866D01*
X123173132Y-93657830D01*
X123192538Y-93648651D01*
X123212750Y-93641419D01*
X123233574Y-93636203D01*
X123254809Y-93633053D01*
X123276250Y-93632000D01*
X123713750Y-93632000D01*
X123735191Y-93633053D01*
X123735191Y-93633053D01*
G37*
D17*
X123495000Y-94107000D03*
D16*
G36*
X122160191Y-93633053D02*
X122181426Y-93636203D01*
X122202250Y-93641419D01*
X122222462Y-93648651D01*
X122241868Y-93657830D01*
X122260281Y-93668866D01*
X122277524Y-93681654D01*
X122293430Y-93696070D01*
X122307846Y-93711976D01*
X122320634Y-93729219D01*
X122331670Y-93747632D01*
X122340849Y-93767038D01*
X122348081Y-93787250D01*
X122353297Y-93808074D01*
X122356447Y-93829309D01*
X122357500Y-93850750D01*
X122357500Y-94363250D01*
X122356447Y-94384691D01*
X122353297Y-94405926D01*
X122348081Y-94426750D01*
X122340849Y-94446962D01*
X122331670Y-94466368D01*
X122320634Y-94484781D01*
X122307846Y-94502024D01*
X122293430Y-94517930D01*
X122277524Y-94532346D01*
X122260281Y-94545134D01*
X122241868Y-94556170D01*
X122222462Y-94565349D01*
X122202250Y-94572581D01*
X122181426Y-94577797D01*
X122160191Y-94580947D01*
X122138750Y-94582000D01*
X121701250Y-94582000D01*
X121679809Y-94580947D01*
X121658574Y-94577797D01*
X121637750Y-94572581D01*
X121617538Y-94565349D01*
X121598132Y-94556170D01*
X121579719Y-94545134D01*
X121562476Y-94532346D01*
X121546570Y-94517930D01*
X121532154Y-94502024D01*
X121519366Y-94484781D01*
X121508330Y-94466368D01*
X121499151Y-94446962D01*
X121491919Y-94426750D01*
X121486703Y-94405926D01*
X121483553Y-94384691D01*
X121482500Y-94363250D01*
X121482500Y-93850750D01*
X121483553Y-93829309D01*
X121486703Y-93808074D01*
X121491919Y-93787250D01*
X121499151Y-93767038D01*
X121508330Y-93747632D01*
X121519366Y-93729219D01*
X121532154Y-93711976D01*
X121546570Y-93696070D01*
X121562476Y-93681654D01*
X121579719Y-93668866D01*
X121598132Y-93657830D01*
X121617538Y-93648651D01*
X121637750Y-93641419D01*
X121658574Y-93636203D01*
X121679809Y-93633053D01*
X121701250Y-93632000D01*
X122138750Y-93632000D01*
X122160191Y-93633053D01*
X122160191Y-93633053D01*
G37*
D17*
X121920000Y-94107000D03*
G04 #@! TD*
D18*
G04 #@! TO.C,L1*
X134861300Y-73152000D03*
X140462000Y-73152000D03*
G04 #@! TD*
D12*
G04 #@! TO.C,R1*
X123732000Y-70104000D03*
X121632000Y-70104000D03*
G04 #@! TD*
G04 #@! TO.C,R2*
X119414000Y-87376000D03*
X117314000Y-87376000D03*
G04 #@! TD*
G04 #@! TO.C,R3*
X122106000Y-87376000D03*
X124206000Y-87376000D03*
G04 #@! TD*
G04 #@! TO.C,R4*
X125730000Y-84328000D03*
X123630000Y-84328000D03*
G04 #@! TD*
G04 #@! TO.C,R5*
X119380000Y-91440000D03*
X117280000Y-91440000D03*
G04 #@! TD*
G04 #@! TO.C,R6*
X117314000Y-93980000D03*
X119414000Y-93980000D03*
G04 #@! TD*
G04 #@! TO.C,R7*
X130048000Y-80772000D03*
X130048000Y-78672000D03*
G04 #@! TD*
G04 #@! TO.C,R8*
X130810000Y-91948000D03*
X128710000Y-91948000D03*
G04 #@! TD*
G04 #@! TO.C,R9*
X130810000Y-93980000D03*
X128710000Y-93980000D03*
G04 #@! TD*
G04 #@! TO.C,R10*
X128710000Y-96012000D03*
X130810000Y-96012000D03*
G04 #@! TD*
D13*
G04 #@! TO.C,R11*
X142494000Y-80010000D03*
X142494000Y-83610000D03*
G04 #@! TD*
D12*
G04 #@! TO.C,R12*
X136525000Y-90043000D03*
X136525000Y-92143000D03*
G04 #@! TD*
G04 #@! TO.C,R13*
X138938000Y-91313000D03*
X138938000Y-93413000D03*
G04 #@! TD*
D19*
G04 #@! TO.C,U1*
X128805998Y-84339999D03*
X128805998Y-84840000D03*
X128805998Y-85340000D03*
X128805998Y-85840001D03*
D20*
X129805811Y-86840002D03*
X130305937Y-86840002D03*
X130806063Y-86840002D03*
X131306189Y-86840002D03*
D19*
X132306002Y-85840001D03*
X132306002Y-85340000D03*
X132306002Y-84840000D03*
X132306002Y-84339999D03*
D20*
X131306189Y-83339998D03*
X130806063Y-83339998D03*
X130305937Y-83339998D03*
X129805811Y-83339998D03*
D21*
X130556000Y-85090000D03*
G04 #@! TD*
M02*
