G04 #@! TF.GenerationSoftware,KiCad,Pcbnew,(5.0.1-3-g963ef8bb5)*
G04 #@! TF.CreationDate,2018-11-04T15:03:24-05:00*
G04 #@! TF.ProjectId,Solar LiPo Charger,536F6C6172204C69506F204368617267,1A*
G04 #@! TF.SameCoordinates,Original*
G04 #@! TF.FileFunction,Copper,L2,Bot,Signal*
G04 #@! TF.FilePolarity,Positive*
%FSLAX46Y46*%
G04 Gerber Fmt 4.6, Leading zero omitted, Abs format (unit mm)*
G04 Created by KiCad (PCBNEW (5.0.1-3-g963ef8bb5)) date Sunday, November 04, 2018 at 03:03:24 PM*
%MOMM*%
%LPD*%
G01*
G04 APERTURE LIST*
G04 #@! TA.AperFunction,NonConductor*
%ADD10C,0.300000*%
G04 #@! TD*
G04 #@! TA.AperFunction,ComponentPad*
%ADD11R,2.600000X2.600000*%
G04 #@! TD*
G04 #@! TA.AperFunction,ComponentPad*
%ADD12C,2.600000*%
G04 #@! TD*
G04 #@! TA.AperFunction,ComponentPad*
%ADD13R,2.400000X2.400000*%
G04 #@! TD*
G04 #@! TA.AperFunction,ComponentPad*
%ADD14C,2.400000*%
G04 #@! TD*
G04 #@! TA.AperFunction,ComponentPad*
%ADD15C,4.400000*%
G04 #@! TD*
G04 #@! TA.AperFunction,ViaPad*
%ADD16C,0.457200*%
G04 #@! TD*
G04 #@! TA.AperFunction,Conductor*
%ADD17C,0.254000*%
G04 #@! TD*
G04 APERTURE END LIST*
D10*
X132663142Y-100246571D02*
X133163142Y-99532285D01*
X133520285Y-100246571D02*
X133520285Y-98746571D01*
X132948857Y-98746571D01*
X132806000Y-98818000D01*
X132734571Y-98889428D01*
X132663142Y-99032285D01*
X132663142Y-99246571D01*
X132734571Y-99389428D01*
X132806000Y-99460857D01*
X132948857Y-99532285D01*
X133520285Y-99532285D01*
X131448857Y-100175142D02*
X131591714Y-100246571D01*
X131877428Y-100246571D01*
X132020285Y-100175142D01*
X132091714Y-100032285D01*
X132091714Y-99460857D01*
X132020285Y-99318000D01*
X131877428Y-99246571D01*
X131591714Y-99246571D01*
X131448857Y-99318000D01*
X131377428Y-99460857D01*
X131377428Y-99603714D01*
X132091714Y-99746571D01*
X130877428Y-99246571D02*
X130520285Y-100246571D01*
X130163142Y-99246571D01*
X128806000Y-100246571D02*
X129663142Y-100246571D01*
X129234571Y-100246571D02*
X129234571Y-98746571D01*
X129377428Y-98960857D01*
X129520285Y-99103714D01*
X129663142Y-99175142D01*
X128234571Y-99818000D02*
X127520285Y-99818000D01*
X128377428Y-100246571D02*
X127877428Y-98746571D01*
X127377428Y-100246571D01*
D11*
G04 #@! TO.P,J1,1*
G04 #@! TO.N,Vsolar*
X118745000Y-74168000D03*
D12*
G04 #@! TO.P,J1,2*
G04 #@! TO.N,GND*
X112745000Y-74168000D03*
G04 #@! TO.P,J1,3*
G04 #@! TO.N,N/C*
X115745000Y-78868000D03*
G04 #@! TD*
D13*
G04 #@! TO.P,J2,1*
G04 #@! TO.N,SRN*
X149733000Y-81534000D03*
D14*
G04 #@! TO.P,J2,2*
G04 #@! TO.N,GND*
X149733000Y-85034000D03*
G04 #@! TD*
D15*
G04 #@! TO.P,MT3,1*
G04 #@! TO.N,N/C*
X151130000Y-70358000D03*
G04 #@! TD*
G04 #@! TO.P,MT2,1*
G04 #@! TO.N,N/C*
X150876000Y-98298000D03*
G04 #@! TD*
G04 #@! TO.P,MT1,1*
G04 #@! TO.N,N/C*
X107696000Y-98044000D03*
G04 #@! TD*
D16*
G04 #@! TO.N,GND*
X125984000Y-86614000D03*
X121666000Y-82296000D03*
X140208000Y-88900000D03*
X133858000Y-82804000D03*
X134620000Y-84836000D03*
G04 #@! TO.N,Net-(D3-Pad1)*
X124968000Y-94742000D03*
X129794000Y-88392000D03*
G04 #@! TD*
D17*
G04 #@! TO.N,Net-(D3-Pad1)*
X129794000Y-89916000D02*
X124968000Y-94742000D01*
X129794000Y-88392000D02*
X129794000Y-89916000D01*
G04 #@! TD*
G04 #@! TO.N,GND*
G36*
X149639205Y-68126868D02*
X148898868Y-68867205D01*
X148498200Y-69834502D01*
X148498200Y-70881498D01*
X148898868Y-71848795D01*
X149639205Y-72589132D01*
X150606502Y-72989800D01*
X151653498Y-72989800D01*
X152620795Y-72589132D01*
X153361132Y-71848795D01*
X153761800Y-70881498D01*
X153761800Y-69834502D01*
X153361132Y-68867205D01*
X152620795Y-68126868D01*
X151721820Y-67754500D01*
X153860500Y-67754500D01*
X153860501Y-101155500D01*
X134459229Y-101155500D01*
X134459229Y-97981200D01*
X126652772Y-97981200D01*
X126652772Y-101155500D01*
X104584500Y-101155500D01*
X104584500Y-97520502D01*
X105064200Y-97520502D01*
X105064200Y-98567498D01*
X105464868Y-99534795D01*
X106205205Y-100275132D01*
X107172502Y-100675800D01*
X108219498Y-100675800D01*
X109186795Y-100275132D01*
X109927132Y-99534795D01*
X110327800Y-98567498D01*
X110327800Y-97774502D01*
X148244200Y-97774502D01*
X148244200Y-98821498D01*
X148644868Y-99788795D01*
X149385205Y-100529132D01*
X150352502Y-100929800D01*
X151399498Y-100929800D01*
X152366795Y-100529132D01*
X153107132Y-99788795D01*
X153507800Y-98821498D01*
X153507800Y-97774502D01*
X153107132Y-96807205D01*
X152366795Y-96066868D01*
X151399498Y-95666200D01*
X150352502Y-95666200D01*
X149385205Y-96066868D01*
X148644868Y-96807205D01*
X148244200Y-97774502D01*
X110327800Y-97774502D01*
X110327800Y-97520502D01*
X109927132Y-96553205D01*
X109186795Y-95812868D01*
X108219498Y-95412200D01*
X107172502Y-95412200D01*
X106205205Y-95812868D01*
X105464868Y-96553205D01*
X105064200Y-97520502D01*
X104584500Y-97520502D01*
X104584500Y-94610638D01*
X124307600Y-94610638D01*
X124307600Y-94873362D01*
X124408140Y-95116087D01*
X124593913Y-95301860D01*
X124836638Y-95402400D01*
X125099362Y-95402400D01*
X125342087Y-95301860D01*
X125527860Y-95116087D01*
X125628400Y-94873362D01*
X125628400Y-94871861D01*
X130150217Y-90350046D01*
X130196872Y-90318872D01*
X130320378Y-90134033D01*
X130352800Y-89971035D01*
X130363747Y-89916000D01*
X130352800Y-89860965D01*
X130352800Y-88767147D01*
X130353860Y-88766087D01*
X130454400Y-88523362D01*
X130454400Y-88260638D01*
X130353860Y-88017913D01*
X130168087Y-87832140D01*
X129925362Y-87731600D01*
X129662638Y-87731600D01*
X129419913Y-87832140D01*
X129234140Y-88017913D01*
X129133600Y-88260638D01*
X129133600Y-88523362D01*
X129234140Y-88766087D01*
X129235200Y-88767147D01*
X129235201Y-89684536D01*
X124838139Y-94081600D01*
X124836638Y-94081600D01*
X124593913Y-94182140D01*
X124408140Y-94367913D01*
X124307600Y-94610638D01*
X104584500Y-94610638D01*
X104584500Y-86331175D01*
X148615430Y-86331175D01*
X148738565Y-86618788D01*
X149420734Y-86878707D01*
X150150443Y-86857786D01*
X150727435Y-86618788D01*
X150850570Y-86331175D01*
X149733000Y-85213605D01*
X148615430Y-86331175D01*
X104584500Y-86331175D01*
X104584500Y-84721734D01*
X147888293Y-84721734D01*
X147909214Y-85451443D01*
X148148212Y-86028435D01*
X148435825Y-86151570D01*
X149553395Y-85034000D01*
X149912605Y-85034000D01*
X151030175Y-86151570D01*
X151317788Y-86028435D01*
X151577707Y-85346266D01*
X151556786Y-84616557D01*
X151317788Y-84039565D01*
X151030175Y-83916430D01*
X149912605Y-85034000D01*
X149553395Y-85034000D01*
X148435825Y-83916430D01*
X148148212Y-84039565D01*
X147888293Y-84721734D01*
X104584500Y-84721734D01*
X104584500Y-83736825D01*
X148615430Y-83736825D01*
X149733000Y-84854395D01*
X150850570Y-83736825D01*
X150727435Y-83449212D01*
X150045266Y-83189293D01*
X149315557Y-83210214D01*
X148738565Y-83449212D01*
X148615430Y-83736825D01*
X104584500Y-83736825D01*
X104584500Y-78523524D01*
X114013200Y-78523524D01*
X114013200Y-79212476D01*
X114276851Y-79848986D01*
X114764014Y-80336149D01*
X115400524Y-80599800D01*
X116089476Y-80599800D01*
X116725986Y-80336149D01*
X116728135Y-80334000D01*
X148092741Y-80334000D01*
X148092741Y-82734000D01*
X148126254Y-82902480D01*
X148221690Y-83045310D01*
X148364520Y-83140746D01*
X148533000Y-83174259D01*
X150933000Y-83174259D01*
X151101480Y-83140746D01*
X151244310Y-83045310D01*
X151339746Y-82902480D01*
X151373259Y-82734000D01*
X151373259Y-80334000D01*
X151339746Y-80165520D01*
X151244310Y-80022690D01*
X151101480Y-79927254D01*
X150933000Y-79893741D01*
X148533000Y-79893741D01*
X148364520Y-79927254D01*
X148221690Y-80022690D01*
X148126254Y-80165520D01*
X148092741Y-80334000D01*
X116728135Y-80334000D01*
X117213149Y-79848986D01*
X117476800Y-79212476D01*
X117476800Y-78523524D01*
X117213149Y-77887014D01*
X116725986Y-77399851D01*
X116089476Y-77136200D01*
X115400524Y-77136200D01*
X114764014Y-77399851D01*
X114276851Y-77887014D01*
X114013200Y-78523524D01*
X104584500Y-78523524D01*
X104584500Y-75537459D01*
X111555146Y-75537459D01*
X111690504Y-75835455D01*
X112408880Y-76112066D01*
X113178427Y-76092710D01*
X113799496Y-75835455D01*
X113934854Y-75537459D01*
X112745000Y-74347605D01*
X111555146Y-75537459D01*
X104584500Y-75537459D01*
X104584500Y-73831880D01*
X110800934Y-73831880D01*
X110820290Y-74601427D01*
X111077545Y-75222496D01*
X111375541Y-75357854D01*
X112565395Y-74168000D01*
X112924605Y-74168000D01*
X114114459Y-75357854D01*
X114412455Y-75222496D01*
X114689066Y-74504120D01*
X114669710Y-73734573D01*
X114412455Y-73113504D01*
X114114459Y-72978146D01*
X112924605Y-74168000D01*
X112565395Y-74168000D01*
X111375541Y-72978146D01*
X111077545Y-73113504D01*
X110800934Y-73831880D01*
X104584500Y-73831880D01*
X104584500Y-72798541D01*
X111555146Y-72798541D01*
X112745000Y-73988395D01*
X113865395Y-72868000D01*
X117004741Y-72868000D01*
X117004741Y-75468000D01*
X117038254Y-75636480D01*
X117133690Y-75779310D01*
X117276520Y-75874746D01*
X117445000Y-75908259D01*
X120045000Y-75908259D01*
X120213480Y-75874746D01*
X120356310Y-75779310D01*
X120451746Y-75636480D01*
X120485259Y-75468000D01*
X120485259Y-72868000D01*
X120451746Y-72699520D01*
X120356310Y-72556690D01*
X120213480Y-72461254D01*
X120045000Y-72427741D01*
X117445000Y-72427741D01*
X117276520Y-72461254D01*
X117133690Y-72556690D01*
X117038254Y-72699520D01*
X117004741Y-72868000D01*
X113865395Y-72868000D01*
X113934854Y-72798541D01*
X113799496Y-72500545D01*
X113081120Y-72223934D01*
X112311573Y-72243290D01*
X111690504Y-72500545D01*
X111555146Y-72798541D01*
X104584500Y-72798541D01*
X104584500Y-67754500D01*
X150538180Y-67754500D01*
X149639205Y-68126868D01*
X149639205Y-68126868D01*
G37*
X149639205Y-68126868D02*
X148898868Y-68867205D01*
X148498200Y-69834502D01*
X148498200Y-70881498D01*
X148898868Y-71848795D01*
X149639205Y-72589132D01*
X150606502Y-72989800D01*
X151653498Y-72989800D01*
X152620795Y-72589132D01*
X153361132Y-71848795D01*
X153761800Y-70881498D01*
X153761800Y-69834502D01*
X153361132Y-68867205D01*
X152620795Y-68126868D01*
X151721820Y-67754500D01*
X153860500Y-67754500D01*
X153860501Y-101155500D01*
X134459229Y-101155500D01*
X134459229Y-97981200D01*
X126652772Y-97981200D01*
X126652772Y-101155500D01*
X104584500Y-101155500D01*
X104584500Y-97520502D01*
X105064200Y-97520502D01*
X105064200Y-98567498D01*
X105464868Y-99534795D01*
X106205205Y-100275132D01*
X107172502Y-100675800D01*
X108219498Y-100675800D01*
X109186795Y-100275132D01*
X109927132Y-99534795D01*
X110327800Y-98567498D01*
X110327800Y-97774502D01*
X148244200Y-97774502D01*
X148244200Y-98821498D01*
X148644868Y-99788795D01*
X149385205Y-100529132D01*
X150352502Y-100929800D01*
X151399498Y-100929800D01*
X152366795Y-100529132D01*
X153107132Y-99788795D01*
X153507800Y-98821498D01*
X153507800Y-97774502D01*
X153107132Y-96807205D01*
X152366795Y-96066868D01*
X151399498Y-95666200D01*
X150352502Y-95666200D01*
X149385205Y-96066868D01*
X148644868Y-96807205D01*
X148244200Y-97774502D01*
X110327800Y-97774502D01*
X110327800Y-97520502D01*
X109927132Y-96553205D01*
X109186795Y-95812868D01*
X108219498Y-95412200D01*
X107172502Y-95412200D01*
X106205205Y-95812868D01*
X105464868Y-96553205D01*
X105064200Y-97520502D01*
X104584500Y-97520502D01*
X104584500Y-94610638D01*
X124307600Y-94610638D01*
X124307600Y-94873362D01*
X124408140Y-95116087D01*
X124593913Y-95301860D01*
X124836638Y-95402400D01*
X125099362Y-95402400D01*
X125342087Y-95301860D01*
X125527860Y-95116087D01*
X125628400Y-94873362D01*
X125628400Y-94871861D01*
X130150217Y-90350046D01*
X130196872Y-90318872D01*
X130320378Y-90134033D01*
X130352800Y-89971035D01*
X130363747Y-89916000D01*
X130352800Y-89860965D01*
X130352800Y-88767147D01*
X130353860Y-88766087D01*
X130454400Y-88523362D01*
X130454400Y-88260638D01*
X130353860Y-88017913D01*
X130168087Y-87832140D01*
X129925362Y-87731600D01*
X129662638Y-87731600D01*
X129419913Y-87832140D01*
X129234140Y-88017913D01*
X129133600Y-88260638D01*
X129133600Y-88523362D01*
X129234140Y-88766087D01*
X129235200Y-88767147D01*
X129235201Y-89684536D01*
X124838139Y-94081600D01*
X124836638Y-94081600D01*
X124593913Y-94182140D01*
X124408140Y-94367913D01*
X124307600Y-94610638D01*
X104584500Y-94610638D01*
X104584500Y-86331175D01*
X148615430Y-86331175D01*
X148738565Y-86618788D01*
X149420734Y-86878707D01*
X150150443Y-86857786D01*
X150727435Y-86618788D01*
X150850570Y-86331175D01*
X149733000Y-85213605D01*
X148615430Y-86331175D01*
X104584500Y-86331175D01*
X104584500Y-84721734D01*
X147888293Y-84721734D01*
X147909214Y-85451443D01*
X148148212Y-86028435D01*
X148435825Y-86151570D01*
X149553395Y-85034000D01*
X149912605Y-85034000D01*
X151030175Y-86151570D01*
X151317788Y-86028435D01*
X151577707Y-85346266D01*
X151556786Y-84616557D01*
X151317788Y-84039565D01*
X151030175Y-83916430D01*
X149912605Y-85034000D01*
X149553395Y-85034000D01*
X148435825Y-83916430D01*
X148148212Y-84039565D01*
X147888293Y-84721734D01*
X104584500Y-84721734D01*
X104584500Y-83736825D01*
X148615430Y-83736825D01*
X149733000Y-84854395D01*
X150850570Y-83736825D01*
X150727435Y-83449212D01*
X150045266Y-83189293D01*
X149315557Y-83210214D01*
X148738565Y-83449212D01*
X148615430Y-83736825D01*
X104584500Y-83736825D01*
X104584500Y-78523524D01*
X114013200Y-78523524D01*
X114013200Y-79212476D01*
X114276851Y-79848986D01*
X114764014Y-80336149D01*
X115400524Y-80599800D01*
X116089476Y-80599800D01*
X116725986Y-80336149D01*
X116728135Y-80334000D01*
X148092741Y-80334000D01*
X148092741Y-82734000D01*
X148126254Y-82902480D01*
X148221690Y-83045310D01*
X148364520Y-83140746D01*
X148533000Y-83174259D01*
X150933000Y-83174259D01*
X151101480Y-83140746D01*
X151244310Y-83045310D01*
X151339746Y-82902480D01*
X151373259Y-82734000D01*
X151373259Y-80334000D01*
X151339746Y-80165520D01*
X151244310Y-80022690D01*
X151101480Y-79927254D01*
X150933000Y-79893741D01*
X148533000Y-79893741D01*
X148364520Y-79927254D01*
X148221690Y-80022690D01*
X148126254Y-80165520D01*
X148092741Y-80334000D01*
X116728135Y-80334000D01*
X117213149Y-79848986D01*
X117476800Y-79212476D01*
X117476800Y-78523524D01*
X117213149Y-77887014D01*
X116725986Y-77399851D01*
X116089476Y-77136200D01*
X115400524Y-77136200D01*
X114764014Y-77399851D01*
X114276851Y-77887014D01*
X114013200Y-78523524D01*
X104584500Y-78523524D01*
X104584500Y-75537459D01*
X111555146Y-75537459D01*
X111690504Y-75835455D01*
X112408880Y-76112066D01*
X113178427Y-76092710D01*
X113799496Y-75835455D01*
X113934854Y-75537459D01*
X112745000Y-74347605D01*
X111555146Y-75537459D01*
X104584500Y-75537459D01*
X104584500Y-73831880D01*
X110800934Y-73831880D01*
X110820290Y-74601427D01*
X111077545Y-75222496D01*
X111375541Y-75357854D01*
X112565395Y-74168000D01*
X112924605Y-74168000D01*
X114114459Y-75357854D01*
X114412455Y-75222496D01*
X114689066Y-74504120D01*
X114669710Y-73734573D01*
X114412455Y-73113504D01*
X114114459Y-72978146D01*
X112924605Y-74168000D01*
X112565395Y-74168000D01*
X111375541Y-72978146D01*
X111077545Y-73113504D01*
X110800934Y-73831880D01*
X104584500Y-73831880D01*
X104584500Y-72798541D01*
X111555146Y-72798541D01*
X112745000Y-73988395D01*
X113865395Y-72868000D01*
X117004741Y-72868000D01*
X117004741Y-75468000D01*
X117038254Y-75636480D01*
X117133690Y-75779310D01*
X117276520Y-75874746D01*
X117445000Y-75908259D01*
X120045000Y-75908259D01*
X120213480Y-75874746D01*
X120356310Y-75779310D01*
X120451746Y-75636480D01*
X120485259Y-75468000D01*
X120485259Y-72868000D01*
X120451746Y-72699520D01*
X120356310Y-72556690D01*
X120213480Y-72461254D01*
X120045000Y-72427741D01*
X117445000Y-72427741D01*
X117276520Y-72461254D01*
X117133690Y-72556690D01*
X117038254Y-72699520D01*
X117004741Y-72868000D01*
X113865395Y-72868000D01*
X113934854Y-72798541D01*
X113799496Y-72500545D01*
X113081120Y-72223934D01*
X112311573Y-72243290D01*
X111690504Y-72500545D01*
X111555146Y-72798541D01*
X104584500Y-72798541D01*
X104584500Y-67754500D01*
X150538180Y-67754500D01*
X149639205Y-68126868D01*
G04 #@! TD*
M02*
