G04 #@! TF.GenerationSoftware,KiCad,Pcbnew,(5.0.1-3-g963ef8bb5)*
G04 #@! TF.CreationDate,2018-11-04T17:21:23-05:00*
G04 #@! TF.ProjectId,Solar LiPo Charger,536F6C6172204C69506F204368617267,1A*
G04 #@! TF.SameCoordinates,Original*
G04 #@! TF.FileFunction,Soldermask,Top*
G04 #@! TF.FilePolarity,Negative*
%FSLAX46Y46*%
G04 Gerber Fmt 4.6, Leading zero omitted, Abs format (unit mm)*
G04 Created by KiCad (PCBNEW (5.0.1-3-g963ef8bb5)) date Sunday, November 04, 2018 at 05:21:23 PM*
%MOMM*%
%LPD*%
G01*
G04 APERTURE LIST*
%ADD10C,0.100000*%
G04 APERTURE END LIST*
D10*
G36*
X150742909Y-95771883D02*
X151039354Y-95830850D01*
X151458214Y-96004347D01*
X151835185Y-96256232D01*
X152155768Y-96576815D01*
X152407653Y-96953786D01*
X152581150Y-97372646D01*
X152669600Y-97817313D01*
X152669600Y-98270687D01*
X152581150Y-98715354D01*
X152407653Y-99134214D01*
X152155768Y-99511185D01*
X151835185Y-99831768D01*
X151458214Y-100083653D01*
X151039354Y-100257150D01*
X150742909Y-100316117D01*
X150594688Y-100345600D01*
X150141312Y-100345600D01*
X149993091Y-100316117D01*
X149696646Y-100257150D01*
X149277786Y-100083653D01*
X148900815Y-99831768D01*
X148580232Y-99511185D01*
X148328347Y-99134214D01*
X148154850Y-98715354D01*
X148066400Y-98270687D01*
X148066400Y-97817313D01*
X148154850Y-97372646D01*
X148328347Y-96953786D01*
X148580232Y-96576815D01*
X148900815Y-96256232D01*
X149277786Y-96004347D01*
X149696646Y-95830850D01*
X149993091Y-95771883D01*
X150141312Y-95742400D01*
X150594688Y-95742400D01*
X150742909Y-95771883D01*
X150742909Y-95771883D01*
G37*
G36*
X108070909Y-95771883D02*
X108367354Y-95830850D01*
X108786214Y-96004347D01*
X109163185Y-96256232D01*
X109483768Y-96576815D01*
X109735653Y-96953786D01*
X109909150Y-97372646D01*
X109997600Y-97817313D01*
X109997600Y-98270687D01*
X109909150Y-98715354D01*
X109735653Y-99134214D01*
X109483768Y-99511185D01*
X109163185Y-99831768D01*
X108786214Y-100083653D01*
X108367354Y-100257150D01*
X108070909Y-100316117D01*
X107922688Y-100345600D01*
X107469312Y-100345600D01*
X107321091Y-100316117D01*
X107024646Y-100257150D01*
X106605786Y-100083653D01*
X106228815Y-99831768D01*
X105908232Y-99511185D01*
X105656347Y-99134214D01*
X105482850Y-98715354D01*
X105394400Y-98270687D01*
X105394400Y-97817313D01*
X105482850Y-97372646D01*
X105656347Y-96953786D01*
X105908232Y-96576815D01*
X106228815Y-96256232D01*
X106605786Y-96004347D01*
X107024646Y-95830850D01*
X107321091Y-95771883D01*
X107469312Y-95742400D01*
X107922688Y-95742400D01*
X108070909Y-95771883D01*
X108070909Y-95771883D01*
G37*
G36*
X131511600Y-96713600D02*
X130108400Y-96713600D01*
X130108400Y-95310400D01*
X131511600Y-95310400D01*
X131511600Y-96713600D01*
X131511600Y-96713600D01*
G37*
G36*
X129411600Y-96713600D02*
X128008400Y-96713600D01*
X128008400Y-95310400D01*
X129411600Y-95310400D01*
X129411600Y-96713600D01*
X129411600Y-96713600D01*
G37*
G36*
X145781600Y-94875600D02*
X143778400Y-94875600D01*
X143778400Y-93172400D01*
X145781600Y-93172400D01*
X145781600Y-94875600D01*
X145781600Y-94875600D01*
G37*
G36*
X142733600Y-94875600D02*
X140730400Y-94875600D01*
X140730400Y-93172400D01*
X142733600Y-93172400D01*
X142733600Y-94875600D01*
X142733600Y-94875600D01*
G37*
G36*
X122262533Y-93535332D02*
X122308284Y-93549211D01*
X122350457Y-93571752D01*
X122387416Y-93602084D01*
X122417748Y-93639043D01*
X122440289Y-93681216D01*
X122454168Y-93726967D01*
X122459100Y-93777041D01*
X122459100Y-94436959D01*
X122454168Y-94487033D01*
X122440289Y-94532784D01*
X122417748Y-94574957D01*
X122387416Y-94611916D01*
X122350457Y-94642248D01*
X122308284Y-94664789D01*
X122262533Y-94678668D01*
X122212459Y-94683600D01*
X121627541Y-94683600D01*
X121577467Y-94678668D01*
X121531716Y-94664789D01*
X121489543Y-94642248D01*
X121452584Y-94611916D01*
X121422252Y-94574957D01*
X121399711Y-94532784D01*
X121385832Y-94487033D01*
X121380900Y-94436959D01*
X121380900Y-93777041D01*
X121385832Y-93726967D01*
X121399711Y-93681216D01*
X121422252Y-93639043D01*
X121452584Y-93602084D01*
X121489543Y-93571752D01*
X121531716Y-93549211D01*
X121577467Y-93535332D01*
X121627541Y-93530400D01*
X122212459Y-93530400D01*
X122262533Y-93535332D01*
X122262533Y-93535332D01*
G37*
G36*
X123837533Y-93535332D02*
X123883284Y-93549211D01*
X123925457Y-93571752D01*
X123962416Y-93602084D01*
X123992748Y-93639043D01*
X124015289Y-93681216D01*
X124029168Y-93726967D01*
X124034100Y-93777041D01*
X124034100Y-94436959D01*
X124029168Y-94487033D01*
X124015289Y-94532784D01*
X123992748Y-94574957D01*
X123962416Y-94611916D01*
X123925457Y-94642248D01*
X123883284Y-94664789D01*
X123837533Y-94678668D01*
X123787459Y-94683600D01*
X123202541Y-94683600D01*
X123152467Y-94678668D01*
X123106716Y-94664789D01*
X123064543Y-94642248D01*
X123027584Y-94611916D01*
X122997252Y-94574957D01*
X122974711Y-94532784D01*
X122960832Y-94487033D01*
X122955900Y-94436959D01*
X122955900Y-93777041D01*
X122960832Y-93726967D01*
X122974711Y-93681216D01*
X122997252Y-93639043D01*
X123027584Y-93602084D01*
X123064543Y-93571752D01*
X123106716Y-93549211D01*
X123152467Y-93535332D01*
X123202541Y-93530400D01*
X123787459Y-93530400D01*
X123837533Y-93535332D01*
X123837533Y-93535332D01*
G37*
G36*
X129411600Y-94681600D02*
X128008400Y-94681600D01*
X128008400Y-93278400D01*
X129411600Y-93278400D01*
X129411600Y-94681600D01*
X129411600Y-94681600D01*
G37*
G36*
X131511600Y-94681600D02*
X130108400Y-94681600D01*
X130108400Y-93278400D01*
X131511600Y-93278400D01*
X131511600Y-94681600D01*
X131511600Y-94681600D01*
G37*
G36*
X118015600Y-94681600D02*
X116612400Y-94681600D01*
X116612400Y-93278400D01*
X118015600Y-93278400D01*
X118015600Y-94681600D01*
X118015600Y-94681600D01*
G37*
G36*
X120115600Y-94681600D02*
X118712400Y-94681600D01*
X118712400Y-93278400D01*
X120115600Y-93278400D01*
X120115600Y-94681600D01*
X120115600Y-94681600D01*
G37*
G36*
X139639600Y-94114600D02*
X138236400Y-94114600D01*
X138236400Y-92711400D01*
X139639600Y-92711400D01*
X139639600Y-94114600D01*
X139639600Y-94114600D01*
G37*
G36*
X148021600Y-93665600D02*
X146618400Y-93665600D01*
X146618400Y-92262400D01*
X148021600Y-92262400D01*
X148021600Y-93665600D01*
X148021600Y-93665600D01*
G37*
G36*
X137226600Y-92844600D02*
X135823400Y-92844600D01*
X135823400Y-91441400D01*
X137226600Y-91441400D01*
X137226600Y-92844600D01*
X137226600Y-92844600D01*
G37*
G36*
X134813600Y-92844600D02*
X133410400Y-92844600D01*
X133410400Y-91441400D01*
X134813600Y-91441400D01*
X134813600Y-92844600D01*
X134813600Y-92844600D01*
G37*
G36*
X129411600Y-92649600D02*
X128008400Y-92649600D01*
X128008400Y-91246400D01*
X129411600Y-91246400D01*
X129411600Y-92649600D01*
X129411600Y-92649600D01*
G37*
G36*
X131511600Y-92649600D02*
X130108400Y-92649600D01*
X130108400Y-91246400D01*
X131511600Y-91246400D01*
X131511600Y-92649600D01*
X131511600Y-92649600D01*
G37*
G36*
X123837533Y-90995332D02*
X123883284Y-91009211D01*
X123925457Y-91031752D01*
X123962416Y-91062084D01*
X123992748Y-91099043D01*
X124015289Y-91141216D01*
X124029168Y-91186967D01*
X124034100Y-91237041D01*
X124034100Y-91896959D01*
X124029168Y-91947033D01*
X124015289Y-91992784D01*
X123992748Y-92034957D01*
X123962416Y-92071916D01*
X123925457Y-92102248D01*
X123883284Y-92124789D01*
X123837533Y-92138668D01*
X123787459Y-92143600D01*
X123202541Y-92143600D01*
X123152467Y-92138668D01*
X123106716Y-92124789D01*
X123064543Y-92102248D01*
X123027584Y-92071916D01*
X122997252Y-92034957D01*
X122974711Y-91992784D01*
X122960832Y-91947033D01*
X122955900Y-91896959D01*
X122955900Y-91237041D01*
X122960832Y-91186967D01*
X122974711Y-91141216D01*
X122997252Y-91099043D01*
X123027584Y-91062084D01*
X123064543Y-91031752D01*
X123106716Y-91009211D01*
X123152467Y-90995332D01*
X123202541Y-90990400D01*
X123787459Y-90990400D01*
X123837533Y-90995332D01*
X123837533Y-90995332D01*
G37*
G36*
X122262533Y-90995332D02*
X122308284Y-91009211D01*
X122350457Y-91031752D01*
X122387416Y-91062084D01*
X122417748Y-91099043D01*
X122440289Y-91141216D01*
X122454168Y-91186967D01*
X122459100Y-91237041D01*
X122459100Y-91896959D01*
X122454168Y-91947033D01*
X122440289Y-91992784D01*
X122417748Y-92034957D01*
X122387416Y-92071916D01*
X122350457Y-92102248D01*
X122308284Y-92124789D01*
X122262533Y-92138668D01*
X122212459Y-92143600D01*
X121627541Y-92143600D01*
X121577467Y-92138668D01*
X121531716Y-92124789D01*
X121489543Y-92102248D01*
X121452584Y-92071916D01*
X121422252Y-92034957D01*
X121399711Y-91992784D01*
X121385832Y-91947033D01*
X121380900Y-91896959D01*
X121380900Y-91237041D01*
X121385832Y-91186967D01*
X121399711Y-91141216D01*
X121422252Y-91099043D01*
X121452584Y-91062084D01*
X121489543Y-91031752D01*
X121531716Y-91009211D01*
X121577467Y-90995332D01*
X121627541Y-90990400D01*
X122212459Y-90990400D01*
X122262533Y-90995332D01*
X122262533Y-90995332D01*
G37*
G36*
X120081600Y-92141600D02*
X118678400Y-92141600D01*
X118678400Y-90738400D01*
X120081600Y-90738400D01*
X120081600Y-92141600D01*
X120081600Y-92141600D01*
G37*
G36*
X117981600Y-92141600D02*
X116578400Y-92141600D01*
X116578400Y-90738400D01*
X117981600Y-90738400D01*
X117981600Y-92141600D01*
X117981600Y-92141600D01*
G37*
G36*
X139639600Y-92014600D02*
X138236400Y-92014600D01*
X138236400Y-90611400D01*
X139639600Y-90611400D01*
X139639600Y-92014600D01*
X139639600Y-92014600D01*
G37*
G36*
X148021600Y-91565600D02*
X146618400Y-91565600D01*
X146618400Y-90162400D01*
X148021600Y-90162400D01*
X148021600Y-91565600D01*
X148021600Y-91565600D01*
G37*
G36*
X142733600Y-91275600D02*
X140730400Y-91275600D01*
X140730400Y-89572400D01*
X142733600Y-89572400D01*
X142733600Y-91275600D01*
X142733600Y-91275600D01*
G37*
G36*
X145781600Y-91275600D02*
X143778400Y-91275600D01*
X143778400Y-89572400D01*
X145781600Y-89572400D01*
X145781600Y-91275600D01*
X145781600Y-91275600D01*
G37*
G36*
X134813600Y-90744600D02*
X133410400Y-90744600D01*
X133410400Y-89341400D01*
X134813600Y-89341400D01*
X134813600Y-90744600D01*
X134813600Y-90744600D01*
G37*
G36*
X137226600Y-90744600D02*
X135823400Y-90744600D01*
X135823400Y-89341400D01*
X137226600Y-89341400D01*
X137226600Y-90744600D01*
X137226600Y-90744600D01*
G37*
G36*
X132595600Y-90363600D02*
X131192400Y-90363600D01*
X131192400Y-88960400D01*
X132595600Y-88960400D01*
X132595600Y-90363600D01*
X132595600Y-90363600D01*
G37*
G36*
X130495600Y-90363600D02*
X129092400Y-90363600D01*
X129092400Y-88960400D01*
X130495600Y-88960400D01*
X130495600Y-90363600D01*
X130495600Y-90363600D01*
G37*
G36*
X140909600Y-88399600D02*
X139506400Y-88399600D01*
X139506400Y-86996400D01*
X140909600Y-86996400D01*
X140909600Y-88399600D01*
X140909600Y-88399600D01*
G37*
G36*
X138369600Y-88399600D02*
X136966400Y-88399600D01*
X136966400Y-86996400D01*
X138369600Y-86996400D01*
X138369600Y-88399600D01*
X138369600Y-88399600D01*
G37*
G36*
X124907600Y-88077600D02*
X123504400Y-88077600D01*
X123504400Y-86674400D01*
X124907600Y-86674400D01*
X124907600Y-88077600D01*
X124907600Y-88077600D01*
G37*
G36*
X122807600Y-88077600D02*
X121404400Y-88077600D01*
X121404400Y-86674400D01*
X122807600Y-86674400D01*
X122807600Y-88077600D01*
X122807600Y-88077600D01*
G37*
G36*
X120115600Y-88077600D02*
X118712400Y-88077600D01*
X118712400Y-86674400D01*
X120115600Y-86674400D01*
X120115600Y-88077600D01*
X120115600Y-88077600D01*
G37*
G36*
X118015600Y-88077600D02*
X116612400Y-88077600D01*
X116612400Y-86674400D01*
X118015600Y-86674400D01*
X118015600Y-88077600D01*
X118015600Y-88077600D01*
G37*
G36*
X131547789Y-83867600D02*
X131548765Y-83877511D01*
X131551656Y-83887040D01*
X131556350Y-83895823D01*
X131562668Y-83903521D01*
X131570366Y-83909839D01*
X131579149Y-83914533D01*
X131588678Y-83917424D01*
X131598589Y-83918400D01*
X131727600Y-83918400D01*
X131727600Y-84047599D01*
X131728576Y-84057510D01*
X131731467Y-84067039D01*
X131736161Y-84075822D01*
X131742479Y-84083520D01*
X131750177Y-84089838D01*
X131758960Y-84094532D01*
X131768489Y-84097423D01*
X131778400Y-84098399D01*
X132807602Y-84098399D01*
X132807602Y-86081601D01*
X131778400Y-86081601D01*
X131768489Y-86082577D01*
X131758960Y-86085468D01*
X131750177Y-86090162D01*
X131742479Y-86096480D01*
X131736161Y-86104178D01*
X131731467Y-86112961D01*
X131728576Y-86122490D01*
X131727600Y-86132401D01*
X131727600Y-86261600D01*
X131598589Y-86261600D01*
X131588678Y-86262576D01*
X131579149Y-86265467D01*
X131570366Y-86270161D01*
X131562668Y-86276479D01*
X131556350Y-86284177D01*
X131551656Y-86292960D01*
X131548765Y-86302489D01*
X131547789Y-86312400D01*
X131547789Y-87341602D01*
X129564211Y-87341602D01*
X129564211Y-86312400D01*
X129563235Y-86302489D01*
X129560344Y-86292960D01*
X129555650Y-86284177D01*
X129549332Y-86276479D01*
X129541634Y-86270161D01*
X129532851Y-86265467D01*
X129523322Y-86262576D01*
X129513411Y-86261600D01*
X129384400Y-86261600D01*
X129384400Y-86132401D01*
X129383424Y-86122490D01*
X129380533Y-86112961D01*
X129375839Y-86104178D01*
X129369521Y-86096480D01*
X129361823Y-86090162D01*
X129353040Y-86085468D01*
X129343511Y-86082577D01*
X129333600Y-86081601D01*
X128304398Y-86081601D01*
X128304398Y-84098399D01*
X129333600Y-84098399D01*
X129343511Y-84097423D01*
X129353040Y-84094532D01*
X129361823Y-84089838D01*
X129369521Y-84083520D01*
X129375839Y-84075822D01*
X129380533Y-84067039D01*
X129383424Y-84057510D01*
X129384400Y-84047599D01*
X129384400Y-83918400D01*
X129513411Y-83918400D01*
X129523322Y-83917424D01*
X129532851Y-83914533D01*
X129541634Y-83909839D01*
X129549332Y-83903521D01*
X129555650Y-83895823D01*
X129560344Y-83887040D01*
X129563235Y-83877511D01*
X129564211Y-83867600D01*
X129564211Y-82838398D01*
X131547789Y-82838398D01*
X131547789Y-83867600D01*
X131547789Y-83867600D01*
G37*
G36*
X150112665Y-83782420D02*
X150349537Y-83880535D01*
X150562723Y-84022982D01*
X150744018Y-84204277D01*
X150886465Y-84417463D01*
X150984580Y-84654335D01*
X151034600Y-84905804D01*
X151034600Y-85162196D01*
X150984580Y-85413665D01*
X150886465Y-85650537D01*
X150744018Y-85863723D01*
X150562723Y-86045018D01*
X150349537Y-86187465D01*
X150112665Y-86285580D01*
X149861196Y-86335600D01*
X149604804Y-86335600D01*
X149353335Y-86285580D01*
X149116463Y-86187465D01*
X148903277Y-86045018D01*
X148721982Y-85863723D01*
X148579535Y-85650537D01*
X148481420Y-85413665D01*
X148431400Y-85162196D01*
X148431400Y-84905804D01*
X148481420Y-84654335D01*
X148579535Y-84417463D01*
X148721982Y-84204277D01*
X148903277Y-84022982D01*
X149116463Y-83880535D01*
X149353335Y-83782420D01*
X149604804Y-83732400D01*
X149861196Y-83732400D01*
X150112665Y-83782420D01*
X150112665Y-83782420D01*
G37*
G36*
X140909600Y-86299600D02*
X139506400Y-86299600D01*
X139506400Y-84896400D01*
X140909600Y-84896400D01*
X140909600Y-86299600D01*
X140909600Y-86299600D01*
G37*
G36*
X138369600Y-86299600D02*
X136966400Y-86299600D01*
X136966400Y-84896400D01*
X138369600Y-84896400D01*
X138369600Y-86299600D01*
X138369600Y-86299600D01*
G37*
G36*
X124331600Y-85029600D02*
X122928400Y-85029600D01*
X122928400Y-83626400D01*
X124331600Y-83626400D01*
X124331600Y-85029600D01*
X124331600Y-85029600D01*
G37*
G36*
X126431600Y-85029600D02*
X125028400Y-85029600D01*
X125028400Y-83626400D01*
X126431600Y-83626400D01*
X126431600Y-85029600D01*
X126431600Y-85029600D01*
G37*
G36*
X115951000Y-84493100D02*
X113792000Y-84493100D01*
X113792000Y-82130900D01*
X115951000Y-82130900D01*
X115951000Y-84493100D01*
X115951000Y-84493100D01*
G37*
G36*
X119888000Y-84493100D02*
X117729000Y-84493100D01*
X117729000Y-82130900D01*
X119888000Y-82130900D01*
X119888000Y-84493100D01*
X119888000Y-84493100D01*
G37*
G36*
X143495600Y-84461600D02*
X141492400Y-84461600D01*
X141492400Y-82758400D01*
X143495600Y-82758400D01*
X143495600Y-84461600D01*
X143495600Y-84461600D01*
G37*
G36*
X138945600Y-83505600D02*
X137542400Y-83505600D01*
X137542400Y-82102400D01*
X138945600Y-82102400D01*
X138945600Y-83505600D01*
X138945600Y-83505600D01*
G37*
G36*
X136845600Y-83505600D02*
X135442400Y-83505600D01*
X135442400Y-82102400D01*
X136845600Y-82102400D01*
X136845600Y-83505600D01*
X136845600Y-83505600D01*
G37*
G36*
X151034600Y-82835600D02*
X148431400Y-82835600D01*
X148431400Y-80232400D01*
X151034600Y-80232400D01*
X151034600Y-82835600D01*
X151034600Y-82835600D01*
G37*
G36*
X126431600Y-82743600D02*
X125028400Y-82743600D01*
X125028400Y-81340400D01*
X126431600Y-81340400D01*
X126431600Y-82743600D01*
X126431600Y-82743600D01*
G37*
G36*
X124331600Y-82743600D02*
X122928400Y-82743600D01*
X122928400Y-81340400D01*
X124331600Y-81340400D01*
X124331600Y-82743600D01*
X124331600Y-82743600D01*
G37*
G36*
X128463600Y-81473600D02*
X127060400Y-81473600D01*
X127060400Y-80070400D01*
X128463600Y-80070400D01*
X128463600Y-81473600D01*
X128463600Y-81473600D01*
G37*
G36*
X130749600Y-81473600D02*
X129346400Y-81473600D01*
X129346400Y-80070400D01*
X130749600Y-80070400D01*
X130749600Y-81473600D01*
X130749600Y-81473600D01*
G37*
G36*
X138611600Y-81341600D02*
X137608400Y-81341600D01*
X137608400Y-80238400D01*
X138611600Y-80238400D01*
X138611600Y-81341600D01*
X138611600Y-81341600D01*
G37*
G36*
X136711600Y-81341600D02*
X135708400Y-81341600D01*
X135708400Y-80238400D01*
X136711600Y-80238400D01*
X136711600Y-81341600D01*
X136711600Y-81341600D01*
G37*
G36*
X132681600Y-81207600D02*
X131578400Y-81207600D01*
X131578400Y-80204400D01*
X132681600Y-80204400D01*
X132681600Y-81207600D01*
X132681600Y-81207600D01*
G37*
G36*
X143495600Y-80861600D02*
X141492400Y-80861600D01*
X141492400Y-79158400D01*
X143495600Y-79158400D01*
X143495600Y-80861600D01*
X143495600Y-80861600D01*
G37*
G36*
X116153833Y-77520262D02*
X116408905Y-77625916D01*
X116638469Y-77779307D01*
X116833693Y-77974531D01*
X116987084Y-78204095D01*
X117092738Y-78459167D01*
X117146600Y-78729954D01*
X117146600Y-79006046D01*
X117092738Y-79276833D01*
X116987084Y-79531905D01*
X116833693Y-79761469D01*
X116638469Y-79956693D01*
X116408905Y-80110084D01*
X116153833Y-80215738D01*
X115883046Y-80269600D01*
X115606954Y-80269600D01*
X115336167Y-80215738D01*
X115081095Y-80110084D01*
X114851531Y-79956693D01*
X114656307Y-79761469D01*
X114502916Y-79531905D01*
X114397262Y-79276833D01*
X114343400Y-79006046D01*
X114343400Y-78729954D01*
X114397262Y-78459167D01*
X114502916Y-78204095D01*
X114656307Y-77974531D01*
X114851531Y-77779307D01*
X115081095Y-77625916D01*
X115336167Y-77520262D01*
X115606954Y-77466400D01*
X115883046Y-77466400D01*
X116153833Y-77520262D01*
X116153833Y-77520262D01*
G37*
G36*
X134681600Y-80257600D02*
X133578400Y-80257600D01*
X133578400Y-79254400D01*
X134681600Y-79254400D01*
X134681600Y-80257600D01*
X134681600Y-80257600D01*
G37*
G36*
X126371600Y-80249600D02*
X124668400Y-80249600D01*
X124668400Y-78246400D01*
X126371600Y-78246400D01*
X126371600Y-80249600D01*
X126371600Y-80249600D01*
G37*
G36*
X122771600Y-80249600D02*
X121068400Y-80249600D01*
X121068400Y-78246400D01*
X122771600Y-78246400D01*
X122771600Y-80249600D01*
X122771600Y-80249600D01*
G37*
G36*
X128463600Y-79373600D02*
X127060400Y-79373600D01*
X127060400Y-77970400D01*
X128463600Y-77970400D01*
X128463600Y-79373600D01*
X128463600Y-79373600D01*
G37*
G36*
X130749600Y-79373600D02*
X129346400Y-79373600D01*
X129346400Y-77970400D01*
X130749600Y-77970400D01*
X130749600Y-79373600D01*
X130749600Y-79373600D01*
G37*
G36*
X137661600Y-79341600D02*
X136658400Y-79341600D01*
X136658400Y-78238400D01*
X137661600Y-78238400D01*
X137661600Y-79341600D01*
X137661600Y-79341600D01*
G37*
G36*
X132681600Y-79307600D02*
X131578400Y-79307600D01*
X131578400Y-78304400D01*
X132681600Y-78304400D01*
X132681600Y-79307600D01*
X132681600Y-79307600D01*
G37*
G36*
X122771600Y-77709600D02*
X121068400Y-77709600D01*
X121068400Y-75706400D01*
X122771600Y-75706400D01*
X122771600Y-77709600D01*
X122771600Y-77709600D01*
G37*
G36*
X126371600Y-77709600D02*
X124668400Y-77709600D01*
X124668400Y-75706400D01*
X126371600Y-75706400D01*
X126371600Y-77709600D01*
X126371600Y-77709600D01*
G37*
G36*
X141458950Y-77000100D02*
X139465050Y-77000100D01*
X139465050Y-69303900D01*
X141458950Y-69303900D01*
X141458950Y-77000100D01*
X141458950Y-77000100D01*
G37*
G36*
X135858250Y-77000100D02*
X133864350Y-77000100D01*
X133864350Y-69303900D01*
X135858250Y-69303900D01*
X135858250Y-77000100D01*
X135858250Y-77000100D01*
G37*
G36*
X130615600Y-76828600D02*
X129512400Y-76828600D01*
X129512400Y-75825400D01*
X130615600Y-75825400D01*
X130615600Y-76828600D01*
X130615600Y-76828600D01*
G37*
G36*
X132615600Y-75878600D02*
X131512400Y-75878600D01*
X131512400Y-74875400D01*
X132615600Y-74875400D01*
X132615600Y-75878600D01*
X132615600Y-75878600D01*
G37*
G36*
X113153833Y-72820262D02*
X113408905Y-72925916D01*
X113638469Y-73079307D01*
X113833693Y-73274531D01*
X113987084Y-73504095D01*
X114092738Y-73759167D01*
X114146600Y-74029954D01*
X114146600Y-74306046D01*
X114092738Y-74576833D01*
X113987084Y-74831905D01*
X113833693Y-75061469D01*
X113638469Y-75256693D01*
X113408905Y-75410084D01*
X113153833Y-75515738D01*
X112883046Y-75569600D01*
X112606954Y-75569600D01*
X112336167Y-75515738D01*
X112081095Y-75410084D01*
X111851531Y-75256693D01*
X111656307Y-75061469D01*
X111502916Y-74831905D01*
X111397262Y-74576833D01*
X111343400Y-74306046D01*
X111343400Y-74029954D01*
X111397262Y-73759167D01*
X111502916Y-73504095D01*
X111656307Y-73274531D01*
X111851531Y-73079307D01*
X112081095Y-72925916D01*
X112336167Y-72820262D01*
X112606954Y-72766400D01*
X112883046Y-72766400D01*
X113153833Y-72820262D01*
X113153833Y-72820262D01*
G37*
G36*
X120146600Y-75569600D02*
X117343400Y-75569600D01*
X117343400Y-72766400D01*
X120146600Y-72766400D01*
X120146600Y-75569600D01*
X120146600Y-75569600D01*
G37*
G36*
X130615600Y-74928600D02*
X129512400Y-74928600D01*
X129512400Y-73925400D01*
X130615600Y-73925400D01*
X130615600Y-74928600D01*
X130615600Y-74928600D01*
G37*
G36*
X125161600Y-74869600D02*
X123758400Y-74869600D01*
X123758400Y-73466400D01*
X125161600Y-73466400D01*
X125161600Y-74869600D01*
X125161600Y-74869600D01*
G37*
G36*
X123061600Y-74869600D02*
X121658400Y-74869600D01*
X121658400Y-73466400D01*
X123061600Y-73466400D01*
X123061600Y-74869600D01*
X123061600Y-74869600D01*
G37*
G36*
X150742909Y-68339883D02*
X151039354Y-68398850D01*
X151458214Y-68572347D01*
X151835185Y-68824232D01*
X152155768Y-69144815D01*
X152407653Y-69521786D01*
X152581150Y-69940646D01*
X152669600Y-70385313D01*
X152669600Y-70838687D01*
X152581150Y-71283354D01*
X152407653Y-71702214D01*
X152155768Y-72079185D01*
X151835185Y-72399768D01*
X151458214Y-72651653D01*
X151039354Y-72825150D01*
X150742909Y-72884117D01*
X150594688Y-72913600D01*
X150141312Y-72913600D01*
X149993091Y-72884117D01*
X149696646Y-72825150D01*
X149277786Y-72651653D01*
X148900815Y-72399768D01*
X148580232Y-72079185D01*
X148328347Y-71702214D01*
X148154850Y-71283354D01*
X148066400Y-70838687D01*
X148066400Y-70385313D01*
X148154850Y-69940646D01*
X148328347Y-69521786D01*
X148580232Y-69144815D01*
X148900815Y-68824232D01*
X149277786Y-68572347D01*
X149696646Y-68398850D01*
X149993091Y-68339883D01*
X150141312Y-68310400D01*
X150594688Y-68310400D01*
X150742909Y-68339883D01*
X150742909Y-68339883D01*
G37*
G36*
X126791600Y-71105600D02*
X125088400Y-71105600D01*
X125088400Y-69102400D01*
X126791600Y-69102400D01*
X126791600Y-71105600D01*
X126791600Y-71105600D01*
G37*
G36*
X130391600Y-71105600D02*
X128688400Y-71105600D01*
X128688400Y-69102400D01*
X130391600Y-69102400D01*
X130391600Y-71105600D01*
X130391600Y-71105600D01*
G37*
G36*
X124433600Y-70805600D02*
X123030400Y-70805600D01*
X123030400Y-69402400D01*
X124433600Y-69402400D01*
X124433600Y-70805600D01*
X124433600Y-70805600D01*
G37*
G36*
X122333600Y-70805600D02*
X120930400Y-70805600D01*
X120930400Y-69402400D01*
X122333600Y-69402400D01*
X122333600Y-70805600D01*
X122333600Y-70805600D01*
G37*
M02*
